<svg xmlns="http://www.w3.org/2000/svg" xmlns:xlink="http://www.w3.org/1999/xlink" version="1.1" data-diagram-type="DESCRIPTION" style="width:1227px;height:756px;background:#FFFFFF;" width="1227px" height="756px" viewBox="0 0 1227 756" zoomAndPan="magnify" preserveAspectRatio="none" contentStyleType="text/css"><?plantuml 1.2026.8?><defs/><g font-family="sans-serif" lengthAdjust="spacing"><g class="title" data-source-line="11"><text x="325.458" y="25.946" fill="#1F2D3D" font-size="17" textLength="569.583" font-weight="700" font-family="Arial">UML · Despliegue del PMV en el entorno de demostración local (INC-1)</text></g><!--cluster equipo--><g class="cluster" data-qualified-name="equipo" id="ent0001" data-source-line="13"><polygon points="14,62.548,24,52.548,1211.5,52.548,1211.5,598.548,1201.5,608.548,14,608.548,14,62.548" fill="#F1F3F5" style="stroke:#34506B;stroke-width:1;stroke-linejoin:miter;stroke-miterlimit:10;"/><line x1="1201.5" y1="62.548" x2="1211.5" y2="52.548" style="stroke:#34506B;stroke-width:1;"/><line x1="14" y1="62.548" x2="1201.5" y2="62.548" style="stroke:#34506B;stroke-width:1;"/><line x1="1201.5" y1="62.548" x2="1201.5" y2="608.548" style="stroke:#34506B;stroke-width:1;"/><text x="532.908" y="77.742" fill="#1F2D3D" font-size="13" textLength="151.684" font-weight="700" font-family="Arial">Equipo de demostración</text><text x="527.132" y="92.691" fill="#1F2D3D" font-size="13" textLength="163.236" font-weight="700" font-family="Arial">«dispositivo: PC o laptop»</text></g><!--cluster nav--><g class="cluster" data-qualified-name="equipo.nav" id="ent0002" data-source-line="14"><polygon points="36.5,127.548,46.5,117.548,257.5,117.548,257.5,246.548,247.5,256.548,36.5,256.548,36.5,127.548" fill="#F1F3F5" style="stroke:#34506B;stroke-width:1;stroke-linejoin:miter;stroke-miterlimit:10;"/><line x1="247.5" y1="127.548" x2="257.5" y2="117.548" style="stroke:#34506B;stroke-width:1;"/><line x1="36.5" y1="127.548" x2="247.5" y2="127.548" style="stroke:#34506B;stroke-width:1;"/><line x1="247.5" y1="127.548" x2="247.5" y2="256.548" style="stroke:#34506B;stroke-width:1;"/><text x="94.958" y="142.742" fill="#1F2D3D" font-size="13" textLength="96.084" font-weight="700" font-family="Arial">Navegador web</text><text x="70.399" y="157.691" fill="#1F2D3D" font-size="13" textLength="145.203" font-weight="700" font-family="Arial">«entorno de ejecución»</text></g><!--cluster py--><g class="cluster" data-qualified-name="equipo.py" id="ent0004" data-source-line="17"><polygon points="34,286.548,44,276.548,802.5,276.548,802.5,534.548,792.5,544.548,34,544.548,34,286.548" fill="#F1F3F5" style="stroke:#34506B;stroke-width:1;stroke-linejoin:miter;stroke-miterlimit:10;"/><line x1="792.5" y1="286.548" x2="802.5" y2="276.548" style="stroke:#34506B;stroke-width:1;"/><line x1="34" y1="286.548" x2="792.5" y2="286.548" style="stroke:#34506B;stroke-width:1;"/><line x1="792.5" y1="286.548" x2="792.5" y2="544.548" style="stroke:#34506B;stroke-width:1;"/><text x="322.691" y="301.742" fill="#1F2D3D" font-size="13" textLength="183.117" font-weight="700" font-family="Arial">Python 3.12+ · entorno virtual</text><text x="341.649" y="316.691" fill="#1F2D3D" font-size="13" textLength="145.203" font-weight="700" font-family="Arial">«entorno de ejecución»</text></g><!--cluster wsgi--><g class="cluster" data-qualified-name="equipo.py.wsgi" id="ent0005" data-source-line="18"><polygon points="522.5,351.548,532.5,341.548,782.5,341.548,782.5,514.548,772.5,524.548,522.5,524.548,522.5,351.548" fill="#F1F3F5" style="stroke:#34506B;stroke-width:1;stroke-linejoin:miter;stroke-miterlimit:10;"/><line x1="772.5" y1="351.548" x2="782.5" y2="341.548" style="stroke:#34506B;stroke-width:1;"/><line x1="522.5" y1="351.548" x2="772.5" y2="351.548" style="stroke:#34506B;stroke-width:1;"/><line x1="772.5" y1="351.548" x2="772.5" y2="524.548" style="stroke:#34506B;stroke-width:1;"/><text x="602.99" y="366.742" fill="#1F2D3D" font-size="13" textLength="91.019" font-weight="700" font-family="Arial">Servidor WSGI</text><text x="556.386" y="381.691" fill="#1F2D3D" font-size="13" textLength="184.228" font-weight="700" font-family="Arial">Waitress 3.0.1 (demostración)</text><text x="559.985" y="396.64" fill="#1F2D3D" font-size="13" textLength="177.03" font-weight="700" font-family="Arial">Flask dev server (desarrollo)</text><text x="575.899" y="411.588" fill="#1F2D3D" font-size="13" textLength="145.203" font-weight="700" font-family="Arial">«entorno de ejecución»</text></g><!--cluster fs--><g class="cluster" data-qualified-name="equipo.fs" id="ent0008" data-source-line="23"><path d="M973.5,329.548 L1178.135,329.548 A6,6 0 0 1 1182.135,333.548 L1189.135,350.497 L1187.5,350.497 A4,4 0 0 1 1191.5,354.497 L1191.5,584.548 A4,4 0 0 1 1187.5,588.548 L973.5,588.548 A4,4 0 0 1 969.5,584.548 L969.5,333.548 A4,4 0 0 1 973.5,329.548" style="stroke:#34506B;stroke-width:1.5;" fill="#FFF"/><line x1="969.5" y1="350.497" x2="1189.135" y2="350.497" style="stroke:#34506B;stroke-width:1.5;"/><text x="973.5" y="343.742" fill="#1F2D3D" font-size="13" textLength="206.635" font-weight="700" font-family="Arial">Sistema de archivos del proyecto</text></g><g class="entity" data-qualified-name="GMN17" id="ent0018" data-source-line="37"><path d="M7.5,633.048 L7.5,736.24 A4,4 0 0 0 11.5,740.24 L281.34,740.24 A4,4 0 0 0 285.34,736.24 L285.34,639.048 L275.34,629.048 L11.5,629.048 A4,4 0 0 0 7.5,633.048" style="stroke:#B08A2E;stroke-width:0.5;" fill="#FBF3DF"/><path d="M275.34,629.048 L275.34,637.048 A2,2 0 0 0 277.34,639.048 L285.34,639.048 L275.34,629.048" style="stroke:#B08A2E;stroke-width:1;" fill="#FBF3DF"/><text x="13.5" y="644.366" fill="#1F2D3D" font-size="11" textLength="67.858" font-family="Arial">Demostración</text><text x="81.358" y="644.366" fill="#1F2D3D" font-size="11" font-family="Arial"> </text><text x="84.415" y="644.366" fill="#1F2D3D" font-size="11" textLength="53.195" font-family="Arial">académica</text><text x="137.61" y="644.366" fill="#1F2D3D" font-size="11" font-family="Arial"> </text><text x="140.666" y="644.366" fill="#1F2D3D" font-size="11" textLength="22.623" font-family="Arial">local</text><text x="163.289" y="644.366" fill="#1F2D3D" font-size="11" font-family="Arial"> </text><text x="166.345" y="644.366" fill="#1F2D3D" font-size="11" textLength="17.735" font-family="Arial">con</text><text x="184.081" y="644.366" fill="#1F2D3D" font-size="11" font-family="Arial"> </text><text x="187.137" y="644.366" fill="#1F2D3D" font-size="11" textLength="26.909" font-family="Arial">datos</text><text x="214.046" y="644.366" fill="#1F2D3D" font-size="11" font-family="Arial"> </text><text x="217.102" y="644.366" fill="#1F2D3D" font-size="11" textLength="45.853" font-family="Arial">sintéticos</text><text x="13.5" y="657.015" fill="#1F2D3D" font-size="11" textLength="55.623" font-family="Arial">(ADR-002):</text><text x="69.123" y="657.015" fill="#1F2D3D" font-size="11" font-family="Arial"> </text><text x="72.179" y="657.015" fill="#1F2D3D" font-size="11" textLength="14.062" font-family="Arial">sin</text><text x="86.241" y="657.015" fill="#1F2D3D" font-size="11" font-family="Arial"> </text><text x="89.297" y="657.015" fill="#1F2D3D" font-size="11" textLength="34.837" font-family="Arial">CORS,</text><text x="124.134" y="657.015" fill="#1F2D3D" font-size="11" font-family="Arial"> </text><text x="127.19" y="657.015" fill="#1F2D3D" font-size="11" textLength="14.062" font-family="Arial">sin</text><text x="141.251" y="657.015" fill="#1F2D3D" font-size="11" font-family="Arial"> </text><text x="144.308" y="657.015" fill="#1F2D3D" font-size="11" textLength="23.832" font-family="Arial">CDN</text><text x="168.139" y="657.015" fill="#1F2D3D" font-size="11" font-family="Arial"> </text><text x="171.195" y="657.015" fill="#1F2D3D" font-size="11" textLength="39.746" font-family="Arial">externo,</text><text x="13.5" y="669.664" fill="#1F2D3D" font-size="11" textLength="14.062" font-family="Arial">sin</text><text x="27.562" y="669.664" fill="#1F2D3D" font-size="11" font-family="Arial"> </text><text x="30.618" y="669.664" fill="#1F2D3D" font-size="11" textLength="64.824" font-family="Arial">autenticación</text><text x="95.441" y="669.664" fill="#1F2D3D" font-size="11" font-family="Arial"> </text><text x="98.498" y="669.664" fill="#1F2D3D" font-size="11" textLength="8.562" font-family="Arial">ni</text><text x="107.059" y="669.664" fill="#1F2D3D" font-size="11" font-family="Arial"> </text><text x="110.115" y="669.664" fill="#1F2D3D" font-size="11" textLength="36.072" font-family="Arial">cifrado.</text><text x="146.188" y="669.664" fill="#1F2D3D" font-size="11" font-family="Arial"> </text><text x="149.244" y="669.664" fill="#1F2D3D" font-size="11" textLength="9.781" font-family="Arial">El</text><text x="159.024" y="669.664" fill="#1F2D3D" font-size="11" font-family="Arial"> </text><text x="162.081" y="669.664" fill="#1F2D3D" font-size="11" textLength="39.123" font-family="Arial">servidor</text><text x="201.204" y="669.664" fill="#1F2D3D" font-size="11" font-family="Arial"> </text><text x="204.26" y="669.664" fill="#1F2D3D" font-size="11" textLength="40.971" font-family="Arial">escucha</text><text x="245.23" y="669.664" fill="#1F2D3D" font-size="11" font-family="Arial"> </text><text x="248.287" y="669.664" fill="#1F2D3D" font-size="11" textLength="20.179" font-family="Arial">solo</text><text x="13.5" y="682.313" fill="#1F2D3D" font-size="11" textLength="12.235" font-family="Arial">en</text><text x="25.735" y="682.313" fill="#1F2D3D" font-size="11" font-family="Arial"> </text><text x="28.792" y="682.313" fill="#1F2D3D" font-size="11" textLength="48.931" font-family="Arial">127.0.0.1.</text><text x="13.5" y="694.962" fill="#1F2D3D" font-size="11" textLength="45.251" font-family="Arial">Arranque</text><text x="58.751" y="694.962" fill="#1F2D3D" font-size="11" font-family="Arial"> </text><text x="61.808" y="694.962" fill="#1F2D3D" font-size="11" textLength="63.594" font-family="Arial">reproducible:</text><text x="125.401" y="694.962" fill="#1F2D3D" font-size="11" font-family="Arial"> </text><text x="128.458" y="694.962" fill="#1F2D3D" font-size="11" textLength="33.027" font-family="Arial">python</text><text x="161.484" y="694.962" fill="#1F2D3D" font-size="11" font-family="Arial"> </text><text x="164.541" y="694.962" fill="#1F2D3D" font-size="11" textLength="12.826" font-family="Arial">-m</text><text x="177.367" y="694.962" fill="#1F2D3D" font-size="11" font-family="Arial"> </text><text x="180.423" y="694.962" fill="#1F2D3D" font-size="11" textLength="65.436" font-family="Arial">anemia_junin</text><text x="13.5" y="707.611" fill="#1F2D3D" font-size="11" textLength="49.5" font-family="Arial">(Waitress,</text><text x="63" y="707.611" fill="#1F2D3D" font-size="11" font-family="Arial"> </text><text x="66.056" y="707.611" fill="#1F2D3D" font-size="11" textLength="23.842" text-decoration="underline" font-family="Arial">main</text><text x="89.898" y="707.611" fill="#1F2D3D" font-size="11" textLength="21.393" font-family="Arial">.py).</text><text x="13.5" y="720.26" fill="#1F2D3D" font-size="11" textLength="14.062" font-family="Arial">Un</text><text x="27.562" y="720.26" fill="#1F2D3D" font-size="11" font-family="Arial"> </text><text x="30.618" y="720.26" fill="#1F2D3D" font-size="11" textLength="53.211" font-family="Arial">despliegue</text><text x="83.829" y="720.26" fill="#1F2D3D" font-size="11" font-family="Arial"> </text><text x="86.885" y="720.26" fill="#1F2D3D" font-size="11" textLength="12.235" font-family="Arial">en</text><text x="99.121" y="720.26" fill="#1F2D3D" font-size="11" font-family="Arial"> </text><text x="102.177" y="720.26" fill="#1F2D3D" font-size="11" textLength="26.909" font-family="Arial">posta</text><text x="129.086" y="720.26" fill="#1F2D3D" font-size="11" font-family="Arial"> </text><text x="132.142" y="720.26" fill="#1F2D3D" font-size="11" textLength="40.358" font-family="Arial">requiere</text><text x="172.5" y="720.26" fill="#1F2D3D" font-size="11" font-family="Arial"> </text><text x="175.557" y="720.26" fill="#1F2D3D" font-size="11" textLength="11.618" font-family="Arial">su</text><text x="187.174" y="720.26" fill="#1F2D3D" font-size="11" font-family="Arial"> </text><text x="190.23" y="720.26" fill="#1F2D3D" font-size="11" textLength="30.578" font-family="Arial">propia</text><text x="220.808" y="720.26" fill="#1F2D3D" font-size="11" font-family="Arial"> </text><text x="223.864" y="720.26" fill="#1F2D3D" font-size="11" textLength="46.476" font-family="Arial">evidencia</text><text x="13.5" y="732.909" fill="#1F2D3D" font-size="11" textLength="35.444" font-family="Arial">(INC-3:</text><text x="48.944" y="732.909" fill="#1F2D3D" font-size="11" font-family="Arial"> </text><text x="52" y="732.909" fill="#1F2D3D" font-size="11" textLength="36.69" font-family="Arial">captura</text><text x="88.69" y="732.909" fill="#1F2D3D" font-size="11" font-family="Arial"> </text><text x="91.746" y="732.909" fill="#1F2D3D" font-size="11" textLength="14.062" font-family="Arial">sin</text><text x="105.808" y="732.909" fill="#1F2D3D" font-size="11" font-family="Arial"> </text><text x="108.864" y="732.909" fill="#1F2D3D" font-size="11" textLength="44.032" font-family="Arial">conexión</text><text x="152.896" y="732.909" fill="#1F2D3D" font-size="11" font-family="Arial"> </text><text x="155.952" y="732.909" fill="#1F2D3D" font-size="11" font-family="Arial">y</text><text x="161.452" y="732.909" fill="#1F2D3D" font-size="11" font-family="Arial"> </text><text x="164.508" y="732.909" fill="#1F2D3D" font-size="11" textLength="76.42" font-family="Arial">sincronización).</text></g><!--entity html--><g class="entity" data-qualified-name="equipo.nav.html" id="ent0003" data-source-line="15"><rect x="65.5" y="183.048" width="162.215" height="52.897" fill="#FBF3DF" style="stroke:#B08A2E;stroke-width:0.5;" rx="4" ry="4"/><polygon points="210.715,188.048,210.715,202.048,222.715,202.048,222.715,194.048,216.715,188.048,210.715,188.048" fill="#FBF3DF" style="stroke:#B08A2E;stroke-width:0.5;stroke-linejoin:miter;stroke-miterlimit:10;"/><line x1="216.715" y1="188.048" x2="216.715" y2="194.048" style="stroke:#B08A2E;stroke-width:0.5;"/><line x1="222.715" y1="194.048" x2="216.715" y2="194.048" style="stroke:#B08A2E;stroke-width:0.5;"/><text x="75.5" y="208.242" fill="#1F2D3D" font-size="13" textLength="46.979" font-family="Arial">Páginas</text><text x="122.479" y="208.242" fill="#1F2D3D" font-size="13" font-family="Arial"> </text><text x="126.091" y="208.242" fill="#1F2D3D" font-size="13" textLength="35.388" font-family="Arial">HTML</text><text x="161.479" y="208.242" fill="#1F2D3D" font-size="13" font-family="Arial"> </text><text x="165.091" y="208.242" fill="#1F2D3D" font-size="13" textLength="42.625" font-family="Arial">(Jinja2)</text><text x="75.5" y="223.191" fill="#1F2D3D" font-size="13" textLength="20.96" font-family="Arial">con</text><text x="96.46" y="223.191" fill="#1F2D3D" font-size="13" font-family="Arial"> </text><text x="100.072" y="223.191" fill="#1F2D3D" font-size="13" textLength="64.295" font-family="Arial">formularios</text><text x="164.367" y="223.191" fill="#1F2D3D" font-size="13" font-family="Arial"> </text><text x="167.979" y="223.191" fill="#1F2D3D" font-size="13" textLength="35.388" font-family="Arial">CSRF</text></g><!--entity seed--><g class="entity" data-qualified-name="equipo.py.seed" id="ent0007" data-source-line="21"><rect x="54" y="444.048" width="184.642" height="52.897" fill="#FBF3DF" style="stroke:#B08A2E;stroke-width:0.5;" rx="4" ry="4"/><polygon points="221.642,449.048,221.642,463.048,233.642,463.048,233.642,455.048,227.642,449.048,221.642,449.048" fill="#FBF3DF" style="stroke:#B08A2E;stroke-width:0.5;stroke-linejoin:miter;stroke-miterlimit:10;"/><line x1="227.642" y1="449.048" x2="227.642" y2="455.048" style="stroke:#B08A2E;stroke-width:0.5;"/><line x1="233.642" y1="455.048" x2="227.642" y2="455.048" style="stroke:#B08A2E;stroke-width:0.5;"/><text x="64" y="469.242" fill="#1F2D3D" font-size="13" textLength="41.171" font-family="Arial">scripts/</text><text x="64" y="484.191" fill="#1F2D3D" font-size="13" textLength="154.642" font-family="Arial">cargar_datos_sinteticos.py</text></g><!--entity app--><g class="entity" data-qualified-name="equipo.py.wsgi.app" id="ent0006" data-source-line="19"><rect x="573.5" y="436.548" width="157.835" height="67.846" fill="#FBF3DF" style="stroke:#B08A2E;stroke-width:0.5;" rx="4" ry="4"/><polygon points="714.335,441.548,714.335,455.548,726.335,455.548,726.335,447.548,720.335,441.548,714.335,441.548" fill="#FBF3DF" style="stroke:#B08A2E;stroke-width:0.5;stroke-linejoin:miter;stroke-miterlimit:10;"/><line x1="720.335" y1="441.548" x2="720.335" y2="447.548" style="stroke:#B08A2E;stroke-width:0.5;"/><line x1="726.335" y1="447.548" x2="720.335" y2="447.548" style="stroke:#B08A2E;stroke-width:0.5;"/><text x="583.5" y="461.742" fill="#1F2D3D" font-size="13" textLength="77.333" font-family="Arial">anemia_junin</text><text x="660.833" y="461.742" fill="#1F2D3D" font-size="13" font-family="Arial"> </text><text x="664.445" y="461.742" fill="#1F2D3D" font-size="13" textLength="28.914" font-family="Arial">0.1.0</text><text x="583.5" y="476.691" fill="#1F2D3D" font-size="13" textLength="125.011" font-family="Arial">(bootstrap.crear_app)</text><text x="583.5" y="491.64" fill="#1F2D3D" font-size="13" textLength="31.059" font-family="Arial">Flask</text><text x="614.559" y="491.64" fill="#1F2D3D" font-size="13" font-family="Arial"> </text><text x="618.171" y="491.64" fill="#1F2D3D" font-size="13" textLength="18.072" font-family="Arial">3.1</text><text x="636.243" y="491.64" fill="#1F2D3D" font-size="13" font-family="Arial"> </text><text x="639.854" y="491.64" fill="#1F2D3D" font-size="13" font-family="Arial">·</text><text x="644.184" y="491.64" fill="#1F2D3D" font-size="13" font-family="Arial"> </text><text x="647.795" y="491.64" fill="#1F2D3D" font-size="13" textLength="63.54" font-family="Arial">Flask-WTF</text></g><!--entity db--><g class="entity" data-qualified-name="equipo.fs.db" id="ent0009" data-source-line="24"><path d="M1003,523.048 C1003,513.048 1080.558,513.048 1080.558,513.048 C1080.558,513.048 1158.116,513.048 1158.116,523.048 L1158.116,561.946 C1158.116,571.946 1080.558,571.946 1080.558,571.946 C1080.558,571.946 1003,571.946 1003,561.946 L1003,523.048" style="stroke:#34506B;stroke-width:0.5;" fill="#C9DAEC"/><path d="M1003,523.048 C1003,533.048 1080.558,533.048 1080.558,533.048 C1080.558,533.048 1158.116,533.048 1158.116,523.048" style="stroke:#34506B;stroke-width:0.5;" fill="none"/><text x="1013" y="549.242" fill="#1F2D3D" font-size="13" textLength="112.741" font-family="Arial">instance/anemia.db</text><text x="1013" y="564.191" fill="#1F2D3D" font-size="13" textLength="49.137" font-family="Arial">«archivo</text><text x="1062.137" y="564.191" fill="#1F2D3D" font-size="13" font-family="Arial"> </text><text x="1065.749" y="564.191" fill="#1F2D3D" font-size="13" textLength="43.354" font-family="Arial">SQLite,</text><text x="1109.104" y="564.191" fill="#1F2D3D" font-size="13" font-family="Arial"> </text><text x="1112.715" y="564.191" fill="#1F2D3D" font-size="13" textLength="35.401" font-family="Arial">WAL»</text></g><!--entity norma--><g class="entity" data-qualified-name="equipo.fs.norma" id="ent0010" data-source-line="25"><rect x="989.5" y="442.048" width="182.477" height="52.897" fill="#FBF3DF" style="stroke:#B08A2E;stroke-width:0.5;" rx="4" ry="4"/><polygon points="1154.977,447.048,1154.977,461.048,1166.977,461.048,1166.977,453.048,1160.977,447.048,1154.977,447.048" fill="#FBF3DF" style="stroke:#B08A2E;stroke-width:0.5;stroke-linejoin:miter;stroke-miterlimit:10;"/><line x1="1160.977" y1="447.048" x2="1160.977" y2="453.048" style="stroke:#B08A2E;stroke-width:0.5;"/><line x1="1166.977" y1="453.048" x2="1160.977" y2="453.048" style="stroke:#B08A2E;stroke-width:0.5;"/><text x="999.5" y="467.242" fill="#1F2D3D" font-size="13" textLength="143.8" font-family="Arial">config/normativa_v1.json</text><text x="999.5" y="482.191" fill="#1F2D3D" font-size="13" textLength="84.557" font-family="Arial">«configuración</text><text x="1084.057" y="482.191" fill="#1F2D3D" font-size="13" font-family="Arial"> </text><text x="1087.669" y="482.191" fill="#1F2D3D" font-size="13" textLength="64.308" font-family="Arial">normativa»</text></g><!--entity sql--><g class="entity" data-qualified-name="equipo.fs.sql" id="ent0011" data-source-line="26"><rect x="994.5" y="371.048" width="172.353" height="52.897" fill="#FBF3DF" style="stroke:#B08A2E;stroke-width:0.5;" rx="4" ry="4"/><polygon points="1149.853,376.048,1149.853,390.048,1161.853,390.048,1161.853,382.048,1155.853,376.048,1149.853,376.048" fill="#FBF3DF" style="stroke:#B08A2E;stroke-width:0.5;stroke-linejoin:miter;stroke-miterlimit:10;"/><line x1="1155.853" y1="376.048" x2="1155.853" y2="382.048" style="stroke:#B08A2E;stroke-width:0.5;"/><line x1="1161.853" y1="382.048" x2="1155.853" y2="382.048" style="stroke:#B08A2E;stroke-width:0.5;"/><text x="1004.5" y="396.242" fill="#1F2D3D" font-size="13" textLength="142.353" font-family="Arial">migrations/001_initial.sql</text><text x="1004.5" y="411.191" fill="#1F2D3D" font-size="13" textLength="67.939" font-family="Arial">«esquema»</text></g><g class="link" data-entity-1="ent0003" data-entity-2="ent0006" id="lnk12" data-link-type="dependency"><polygon points="613.326,436.292,609.109,427.392,609.535,433.033,603.894,433.459,613.326,436.292" fill="#34506B" style="stroke:#34506B;stroke-width:1;stroke-linejoin:miter;stroke-miterlimit:10;"/><path d="M227.611,233.346 C295.608,255.179 394.575,290.874 474.5,335.548 C525.946,364.304 575.118,403.447 609.535,433.033" style="stroke:#34506B;stroke-width:1.1;" fill="none"/><text x="328" y="243.804" fill="#1F2D3D" font-size="12" textLength="31.33" font-family="Arial">HTTP</text><text x="359.33" y="243.804" fill="#1F2D3D" font-size="12" font-family="Arial"> </text><text x="362.664" y="243.804" fill="#1F2D3D" font-size="12" font-family="Arial">·</text><text x="366.66" y="243.804" fill="#1F2D3D" font-size="12" font-family="Arial"> </text><text x="369.994" y="243.804" fill="#1F2D3D" font-size="12" textLength="80.074" font-family="Arial">127.0.0.1:8000</text><text x="346.369" y="257.603" fill="#1F2D3D" font-size="12" textLength="36.662" font-family="Arial">(HTML</text><text x="383.031" y="257.603" fill="#1F2D3D" font-size="12" font-family="Arial"> </text><text x="386.365" y="257.603" fill="#1F2D3D" font-size="12" font-family="Arial">y</text><text x="392.365" y="257.603" fill="#1F2D3D" font-size="12" font-family="Arial"> </text><text x="395.699" y="257.603" fill="#1F2D3D" font-size="12" textLength="36" font-family="Arial">JSON)</text></g><g class="link" data-entity-1="ent0006" data-entity-2="ent0009" id="lnk13" data-link-type="dependency"><polygon points="1002.936,529.608,994.729,524.164,998.006,528.775,993.395,532.052,1002.936,529.608" fill="#34506B" style="stroke:#34506B;stroke-width:1;stroke-linejoin:miter;stroke-miterlimit:10;"/><path d="M731.635,483.754 C808.859,496.806 921.332,515.816 998.006,528.775" style="stroke:#34506B;stroke-width:1.1;" fill="none"/><text x="833.5" y="497.804" fill="#1F2D3D" font-size="12" textLength="34.688" font-family="Arial">sqlite3</text><text x="868.188" y="497.804" fill="#1F2D3D" font-size="12" font-family="Arial"> </text><text x="871.521" y="497.804" fill="#1F2D3D" font-size="12" textLength="17.344" font-family="Arial">(en</text><text x="888.865" y="497.804" fill="#1F2D3D" font-size="12" font-family="Arial"> </text><text x="892.199" y="497.804" fill="#1F2D3D" font-size="12" textLength="46.688" font-family="Arial">proceso)</text></g><g class="link" data-entity-1="ent0006" data-entity-2="ent0010" id="lnk14" data-link-type="dependency"><polygon points="989.311,468.972,980.292,465.014,984.311,468.995,980.33,473.014,989.311,468.972" fill="#34506B" style="stroke:#34506B;stroke-width:1;stroke-linejoin:miter;stroke-miterlimit:10;"/><path d="M731.635,470.182 C804.416,469.84 907.884,469.354 984.311,468.995" style="stroke:#34506B;stroke-width:1.1;" fill="none"/><text x="832.5" y="464.804" fill="#1F2D3D" font-size="12" textLength="16.014" font-family="Arial">lee</text><text x="848.514" y="464.804" fill="#1F2D3D" font-size="12" font-family="Arial"> </text><text x="851.848" y="464.804" fill="#1F2D3D" font-size="12" font-family="Arial">y</text><text x="857.848" y="464.804" fill="#1F2D3D" font-size="12" font-family="Arial"> </text><text x="861.182" y="464.804" fill="#1F2D3D" font-size="12" textLength="31.354" font-family="Arial">valida</text><text x="892.535" y="464.804" fill="#1F2D3D" font-size="12" font-family="Arial"> </text><text x="895.869" y="464.804" fill="#1F2D3D" font-size="12" textLength="9.34" font-family="Arial">al</text><text x="905.209" y="464.804" fill="#1F2D3D" font-size="12" font-family="Arial"> </text><text x="908.543" y="464.804" fill="#1F2D3D" font-size="12" textLength="31.342" font-family="Arial">iniciar</text></g><g class="link" data-entity-1="ent0006" data-entity-2="ent0011" id="lnk15" data-link-type="dependency"><polygon points="994.185,412.168,984.638,409.746,989.256,413.013,985.99,417.631,994.185,412.168" fill="#34506B" style="stroke:#34506B;stroke-width:1;stroke-linejoin:miter;stroke-miterlimit:10;"/><path d="M731.635,457.159 C805.977,444.42 912.626,426.144 989.256,413.013" style="stroke:#34506B;stroke-width:1.1;" fill="none"/><text x="836.5" y="405.804" fill="#1F2D3D" font-size="12" textLength="31.354" font-family="Arial">aplica</text><text x="867.854" y="405.804" fill="#1F2D3D" font-size="12" font-family="Arial"> </text><text x="871.188" y="405.804" fill="#1F2D3D" font-size="12" textLength="64.693" font-family="Arial">migraciones</text><text x="864.183" y="419.603" fill="#1F2D3D" font-size="12" textLength="9.34" font-family="Arial">al</text><text x="873.522" y="419.603" fill="#1F2D3D" font-size="12" font-family="Arial"> </text><text x="876.856" y="419.603" fill="#1F2D3D" font-size="12" textLength="31.342" font-family="Arial">iniciar</text></g><g class="link" data-entity-1="ent0007" data-entity-2="ent0006" id="lnk16" data-link-type="dependency"><polygon points="573.408,470.548,564.408,466.548,568.408,470.548,564.408,474.548,573.408,470.548" fill="#34506B" style="stroke:#34506B;stroke-width:1;stroke-linejoin:miter;stroke-miterlimit:10;"/><path d="M239.063,470.548 C334.703,470.548 478.123,470.548 568.408,470.548" style="stroke:#34506B;stroke-width:1.1;" fill="none"/><text x="305.5" y="452.804" fill="#1F2D3D" font-size="12" textLength="19.342" font-family="Arial">API</text><text x="324.842" y="452.804" fill="#1F2D3D" font-size="12" font-family="Arial"> </text><text x="328.176" y="452.804" fill="#1F2D3D" font-size="12" textLength="49.365" font-family="Arial">mediante</text><text x="377.541" y="452.804" fill="#1F2D3D" font-size="12" font-family="Arial"> </text><text x="380.875" y="452.804" fill="#1F2D3D" font-size="12" textLength="34.688" font-family="Arial">cliente</text><text x="415.563" y="452.804" fill="#1F2D3D" font-size="12" font-family="Arial"> </text><text x="418.896" y="452.804" fill="#1F2D3D" font-size="12" textLength="13.348" font-family="Arial">de</text><text x="432.244" y="452.804" fill="#1F2D3D" font-size="12" font-family="Arial"> </text><text x="435.578" y="452.804" fill="#1F2D3D" font-size="12" textLength="37.365" font-family="Arial">prueba</text><text x="360.883" y="466.603" fill="#1F2D3D" font-size="12" textLength="20.666" font-family="Arial">(BD</text><text x="381.549" y="466.603" fill="#1F2D3D" font-size="12" font-family="Arial"> </text><text x="384.883" y="466.603" fill="#1F2D3D" font-size="12" textLength="32.678" font-family="Arial">vacía)</text></g><g class="link" data-entity-1="ent0001" data-entity-2="ent0018" id="lnk19" data-link-type="association"><path d="M146.5,608.679 C146.5,608.731 146.5,608.783 146.5,608.835 C146.5,615.51 146.5,622.186 146.5,628.861" style="stroke:#34506B;stroke-width:1.1;stroke-dasharray:7,7;" fill="none"/></g><?plantuml-src XLJ1Rjj64BtpAwO-IQX5I_OXXH0OSAsaTU0ugkNK5m74Q3cInbtkqhjB9MhXZ-anXvvwwBtwiSukQSLs3m44Y5pEl9ttvirynqRffYGe0bMOrqsbCqtB0C62uzKwGCcEL61hii114tnyVmd__WCJyhLcMZK49McOllyLo80yaGdM6Ikdygki3muLx_useAr23RsBg_F1g9zbnah4mPlxXkl_1y_DwzSb-zfw3honOvYUWmMDTR3rwUa1e0TgC__805geAzpG2alhu1Cj8i2JIkYEL9EGkso3cvGAW2xm4bM0W-dkpnKR-VZpZN3ilMDpXyVzkL7MmDAwgj7es7eudrs_JI3h86e1FEnBc6x3Me9Fyj7nzr6anmesx4A3-bj5rTkkfXPjHcx3aS_jxAUBkRb53ewy5_XXFeBUCy6apBSQ_M-2km4lYUHYX4VdhDQs_wshF_aLTvS_bGGDLOp5NMFOWDoQ3-Ucjx0sn8lhN3b2Ls1TxwyNwf5uUXdSthGwIK12VdWXk5UEw-2FH69qAq4gCLXVU3Q10YlhytgR03nHsGczjBeKRWSpzj6naGmwjHQJ-6J4sjcj-DMclANlE0amBj2Bg6nyGAFegAMMbyag7GJCVhdaG8TmUtRP2LCkNXGjRbZowiY88L2yYSLcbDzvcopRVciU7R-FUJHTV7y1L_7AOHmlVpGSZWesOdZKkRzltUBl6s7PvSjXKk4XowBrO30uZTh2M1nxCuswZuvVYJcaKUCVXiFOgsJbBRoRVRZgPp4svfGBIH4meNe2FHbR4KsHjryZKgKIf8aaUuEQImIPNYbFCRfzd8185CecK0Y9YX8gvEVcIN3itfDQpwONK579A5q69Jia_aiRQzVG0gNc7oToezhzXMbBoCU53S5MO9VTq8i8asUh1HMMkozLBABTCd5aavaWccdt9Ra9UcUJwy5mUDmVnsCu_t0zEsoV9bT0dmF9T1mAU3p29aXXWjYraa7nqibwoU6DJXEMHfEypD4QmLjjumBSDo0Nd3Fdq4W3mP4eNCh0BJIDPSpJbXXKy6oyUey3VWX5KI6ReX3_zoFGHs7pTT_6XWbv55YHWno1Rs8BQqOWAOkCoDuksfCnA5cQuiX4IcIXpudFDhuhPmt_tYsGF2DJGjJxFm00?></g></svg>