<svg xmlns="http://www.w3.org/2000/svg" xmlns:xlink="http://www.w3.org/1999/xlink" version="1.1" data-diagram-type="GANTT" style="width:1146px;height:630px;background:#FFFFFF;" width="1146px" height="630px" viewBox="0 0 1146 630" zoomAndPan="magnify" preserveAspectRatio="none" contentStyleType="text/css"><?plantuml 1.2026.8?><defs/><g font-family="sans-serif" lengthAdjust="spacing"><g class="title" data-source-line="3"><text x="332.76" y="25.946" fill="#1F2D3D" font-size="17" textLength="478.963" font-weight="700" font-family="Arial">Plan del Incremento 1 (no acredita ejecución ni aceptación)</text></g><line x1="0" y1="40.548" x2="203.456" y2="40.548" style="stroke:#C0C0C0;stroke-width:1;"/><line x1="0" y1="86.548" x2="203.456" y2="86.548" style="stroke:#C0C0C0;stroke-width:1;"/><line x1="0" y1="522.369" x2="203.456" y2="522.369" style="stroke:#C0C0C0;stroke-width:1;"/><line x1="0" y1="40.548" x2="0" y2="522.369" style="stroke:#C0C0C0;stroke-width:1;"/><line x1="70.715" y1="40.548" x2="70.715" y2="522.369" style="stroke:#C0C0C0;stroke-width:1;"/><line x1="141.431" y1="40.548" x2="141.431" y2="522.369" style="stroke:#C0C0C0;stroke-width:1;"/><line x1="203.456" y1="40.548" x2="203.456" y2="522.369" style="stroke:#C0C0C0;stroke-width:1;"/><text x="5" y="68.268" fill="#1F2D3D" font-size="13" textLength="30.348" font-family="Arial">Inicio</text><text x="75.715" y="68.268" fill="#1F2D3D" font-size="13" textLength="18.059" font-family="Arial">Fin</text><text x="146.431" y="68.268" fill="#1F2D3D" font-size="13" textLength="52.025" font-family="Arial">Duración</text><text x="5" y="100.742" fill="#1F2D3D" font-size="13" textLength="53.485" font-family="Arial">1 de sept</text><text x="75.715" y="100.742" fill="#1F2D3D" font-size="13" textLength="53.485" font-family="Arial">1 de sept</text><text x="146.431" y="100.742" fill="#1F2D3D" font-size="13" textLength="28.914" font-family="Arial">1 día</text><text x="5" y="119.691" fill="#1F2D3D" font-size="13" textLength="53.485" font-family="Arial">2 de sept</text><text x="75.715" y="119.691" fill="#1F2D3D" font-size="13" textLength="53.485" font-family="Arial">3 de sept</text><text x="146.431" y="119.691" fill="#1F2D3D" font-size="13" textLength="35.414" font-family="Arial">2 días</text><text x="5" y="138.64" fill="#1F2D3D" font-size="13" textLength="53.485" font-family="Arial">4 de sept</text><text x="75.715" y="138.64" fill="#1F2D3D" font-size="13" textLength="53.485" font-family="Arial">5 de sept</text><text x="146.431" y="138.64" fill="#1F2D3D" font-size="13" textLength="35.414" font-family="Arial">2 días</text><text x="5" y="157.588" fill="#1F2D3D" font-size="13" textLength="53.485" font-family="Arial">2 de sept</text><text x="75.715" y="157.588" fill="#1F2D3D" font-size="13" textLength="53.485" font-family="Arial">3 de sept</text><text x="146.431" y="157.588" fill="#1F2D3D" font-size="13" textLength="35.414" font-family="Arial">2 días</text><text x="5" y="176.537" fill="#1F2D3D" font-size="13" textLength="53.485" font-family="Arial">2 de sept</text><text x="75.715" y="176.537" fill="#1F2D3D" font-size="13" textLength="53.485" font-family="Arial">3 de sept</text><text x="146.431" y="176.537" fill="#1F2D3D" font-size="13" textLength="35.414" font-family="Arial">2 días</text><text x="5" y="195.486" fill="#1F2D3D" font-size="13" textLength="53.485" font-family="Arial">4 de sept</text><text x="75.715" y="195.486" fill="#1F2D3D" font-size="13" textLength="53.485" font-family="Arial">7 de sept</text><text x="146.431" y="195.486" fill="#1F2D3D" font-size="13" textLength="35.414" font-family="Arial">4 días</text><text x="5" y="214.435" fill="#1F2D3D" font-size="13" textLength="53.485" font-family="Arial">8 de sept</text><text x="75.715" y="214.435" fill="#1F2D3D" font-size="13" textLength="53.485" font-family="Arial">9 de sept</text><text x="146.431" y="214.435" fill="#1F2D3D" font-size="13" textLength="35.414" font-family="Arial">2 días</text><text x="5" y="233.383" fill="#1F2D3D" font-size="13" textLength="60.715" font-family="Arial">10 de sept</text><text x="75.715" y="233.383" fill="#1F2D3D" font-size="13" textLength="60.715" font-family="Arial">11 de sept</text><text x="146.431" y="233.383" fill="#1F2D3D" font-size="13" textLength="35.414" font-family="Arial">2 días</text><text x="5" y="252.332" fill="#1F2D3D" font-size="13" textLength="60.715" font-family="Arial">10 de sept</text><text x="75.715" y="252.332" fill="#1F2D3D" font-size="13" textLength="60.715" font-family="Arial">11 de sept</text><text x="146.431" y="252.332" fill="#1F2D3D" font-size="13" textLength="35.414" font-family="Arial">2 días</text><text x="5" y="271.281" fill="#1F2D3D" font-size="13" textLength="60.715" font-family="Arial">12 de sept</text><text x="75.715" y="271.281" fill="#1F2D3D" font-size="13" textLength="60.715" font-family="Arial">12 de sept</text><text x="146.431" y="271.281" fill="#1F2D3D" font-size="13" textLength="28.914" font-family="Arial">1 día</text><text x="5" y="290.229" fill="#1F2D3D" font-size="13" textLength="60.715" font-family="Arial">12 de sept</text><text x="75.715" y="290.229" fill="#1F2D3D" font-size="13" textLength="60.715" font-family="Arial">12 de sept</text><text x="146.431" y="290.229" fill="#1F2D3D" font-size="13" textLength="28.914" font-family="Arial">1 día</text><text x="5" y="309.178" fill="#1F2D3D" font-size="13" textLength="60.715" font-family="Arial">13 de sept</text><text x="75.715" y="309.178" fill="#1F2D3D" font-size="13" textLength="60.715" font-family="Arial">13 de sept</text><text x="146.431" y="309.178" fill="#1F2D3D" font-size="13" textLength="28.914" font-family="Arial">1 día</text><text x="5" y="328.127" fill="#1F2D3D" font-size="13" textLength="60.715" font-family="Arial">14 de sept</text><text x="75.715" y="328.127" fill="#1F2D3D" font-size="13" textLength="60.715" font-family="Arial">14 de sept</text><text x="146.431" y="328.127" fill="#1F2D3D" font-size="13" textLength="28.914" font-family="Arial">1 día</text><text x="5" y="347.076" fill="#1F2D3D" font-size="13" textLength="60.715" font-family="Arial">15 de sept</text><text x="75.715" y="347.076" fill="#1F2D3D" font-size="13" textLength="60.715" font-family="Arial">15 de sept</text><text x="146.431" y="347.076" fill="#1F2D3D" font-size="13" textLength="28.914" font-family="Arial">1 día</text><text x="5" y="366.024" fill="#1F2D3D" font-size="13" textLength="60.715" font-family="Arial">16 de sept</text><text x="75.715" y="366.024" fill="#1F2D3D" font-size="13" textLength="60.715" font-family="Arial">19 de sept</text><text x="146.431" y="366.024" fill="#1F2D3D" font-size="13" textLength="35.414" font-family="Arial">4 días</text><text x="5" y="384.973" fill="#1F2D3D" font-size="13" textLength="60.715" font-family="Arial">20 de sept</text><text x="75.715" y="384.973" fill="#1F2D3D" font-size="13" textLength="60.715" font-family="Arial">21 de sept</text><text x="146.431" y="384.973" fill="#1F2D3D" font-size="13" textLength="35.414" font-family="Arial">2 días</text><text x="5" y="403.922" fill="#1F2D3D" font-size="13" textLength="60.715" font-family="Arial">20 de sept</text><text x="75.715" y="403.922" fill="#1F2D3D" font-size="13" textLength="60.715" font-family="Arial">22 de sept</text><text x="146.431" y="403.922" fill="#1F2D3D" font-size="13" textLength="35.414" font-family="Arial">3 días</text><text x="5" y="422.871" fill="#1F2D3D" font-size="13" textLength="60.715" font-family="Arial">23 de sept</text><text x="75.715" y="422.871" fill="#1F2D3D" font-size="13" textLength="60.715" font-family="Arial">24 de sept</text><text x="146.431" y="422.871" fill="#1F2D3D" font-size="13" textLength="35.414" font-family="Arial">2 días</text><text x="5" y="441.819" fill="#1F2D3D" font-size="13" textLength="60.715" font-family="Arial">25 de sept</text><text x="75.715" y="441.819" fill="#1F2D3D" font-size="13" textLength="60.715" font-family="Arial">25 de sept</text><text x="146.431" y="441.819" fill="#1F2D3D" font-size="13" textLength="28.914" font-family="Arial">1 día</text><text x="5" y="460.768" fill="#1F2D3D" font-size="13" textLength="60.715" font-family="Arial">26 de sept</text><text x="75.715" y="460.768" fill="#1F2D3D" font-size="13" textLength="60.715" font-family="Arial">27 de sept</text><text x="146.431" y="460.768" fill="#1F2D3D" font-size="13" textLength="35.414" font-family="Arial">2 días</text><text x="5" y="479.717" fill="#1F2D3D" font-size="13" textLength="60.715" font-family="Arial">28 de sept</text><text x="75.715" y="479.717" fill="#1F2D3D" font-size="13" textLength="60.715" font-family="Arial">28 de sept</text><text x="146.431" y="479.717" fill="#1F2D3D" font-size="13" textLength="28.914" font-family="Arial">1 día</text><text x="5" y="498.666" fill="#1F2D3D" font-size="13" textLength="53.485" font-family="Arial">5 de sept</text><text x="75.715" y="498.666" fill="#1F2D3D" font-size="13" textLength="53.485" font-family="Arial">5 de sept</text><text x="146.431" y="498.666" fill="#1F2D3D" font-size="13" textLength="28.914" font-family="Arial">1 día</text><text x="5" y="517.614" fill="#1F2D3D" font-size="13" textLength="60.715" font-family="Arial">28 de sept</text><text x="75.715" y="517.614" fill="#1F2D3D" font-size="13" textLength="60.715" font-family="Arial">28 de sept</text><text x="146.431" y="517.614" fill="#1F2D3D" font-size="13" textLength="28.914" font-family="Arial">1 día</text><text x="443.71" y="52.742" fill="#1F2D3D" font-size="13" textLength="101.893" font-weight="700" font-family="Arial">septiembre 2026</text><text x="204.827" y="67.742" fill="#1F2D3D" font-size="13" textLength="18.059" font-family="Arial">ma</text><text x="227.797" y="67.742" fill="#1F2D3D" font-size="13" textLength="13.717" font-family="Arial">mi</text><text x="250.397" y="67.742" fill="#1F2D3D" font-size="13" textLength="10.118" font-family="Arial">ju</text><text x="271.562" y="67.742" fill="#1F2D3D" font-size="13" textLength="9.388" font-family="Arial">vi</text><text x="290.191" y="67.742" fill="#1F2D3D" font-size="13" textLength="13.73" font-family="Arial">sá</text><text x="310.626" y="67.742" fill="#1F2D3D" font-size="13" textLength="14.46" font-family="Arial">do</text><text x="333.597" y="67.742" fill="#1F2D3D" font-size="13" textLength="10.118" font-family="Arial">lu</text><text x="350.427" y="67.742" fill="#1F2D3D" font-size="13" textLength="18.059" font-family="Arial">ma</text><text x="373.397" y="67.742" fill="#1F2D3D" font-size="13" textLength="13.717" font-family="Arial">mi</text><text x="395.997" y="67.742" fill="#1F2D3D" font-size="13" textLength="10.118" font-family="Arial">ju</text><text x="417.162" y="67.742" fill="#1F2D3D" font-size="13" textLength="9.388" font-family="Arial">vi</text><text x="435.791" y="67.742" fill="#1F2D3D" font-size="13" textLength="13.73" font-family="Arial">sá</text><text x="456.226" y="67.742" fill="#1F2D3D" font-size="13" textLength="14.46" font-family="Arial">do</text><text x="479.197" y="67.742" fill="#1F2D3D" font-size="13" textLength="10.118" font-family="Arial">lu</text><text x="496.027" y="67.742" fill="#1F2D3D" font-size="13" textLength="18.059" font-family="Arial">ma</text><text x="518.997" y="67.742" fill="#1F2D3D" font-size="13" textLength="13.717" font-family="Arial">mi</text><text x="541.597" y="67.742" fill="#1F2D3D" font-size="13" textLength="10.118" font-family="Arial">ju</text><text x="562.762" y="67.742" fill="#1F2D3D" font-size="13" textLength="9.388" font-family="Arial">vi</text><text x="581.391" y="67.742" fill="#1F2D3D" font-size="13" textLength="13.73" font-family="Arial">sá</text><text x="601.826" y="67.742" fill="#1F2D3D" font-size="13" textLength="14.46" font-family="Arial">do</text><text x="624.797" y="67.742" fill="#1F2D3D" font-size="13" textLength="10.118" font-family="Arial">lu</text><text x="641.627" y="67.742" fill="#1F2D3D" font-size="13" textLength="18.059" font-family="Arial">ma</text><text x="664.597" y="67.742" fill="#1F2D3D" font-size="13" textLength="13.717" font-family="Arial">mi</text><text x="687.197" y="67.742" fill="#1F2D3D" font-size="13" textLength="10.118" font-family="Arial">ju</text><text x="708.362" y="67.742" fill="#1F2D3D" font-size="13" textLength="9.388" font-family="Arial">vi</text><text x="726.991" y="67.742" fill="#1F2D3D" font-size="13" textLength="13.73" font-family="Arial">sá</text><text x="747.426" y="67.742" fill="#1F2D3D" font-size="13" textLength="14.46" font-family="Arial">do</text><text x="770.397" y="67.742" fill="#1F2D3D" font-size="13" textLength="10.118" font-family="Arial">lu</text><text x="210.241" y="82.742" fill="#1F2D3D" font-size="13" font-family="Arial">1</text><text x="231.041" y="82.742" fill="#1F2D3D" font-size="13" font-family="Arial">2</text><text x="251.841" y="82.742" fill="#1F2D3D" font-size="13" font-family="Arial">3</text><text x="272.641" y="82.742" fill="#1F2D3D" font-size="13" font-family="Arial">4</text><text x="293.441" y="82.742" fill="#1F2D3D" font-size="13" font-family="Arial">5</text><text x="314.241" y="82.742" fill="#1F2D3D" font-size="13" font-family="Arial">6</text><text x="335.041" y="82.742" fill="#1F2D3D" font-size="13" font-family="Arial">7</text><text x="355.841" y="82.742" fill="#1F2D3D" font-size="13" font-family="Arial">8</text><text x="376.641" y="82.742" fill="#1F2D3D" font-size="13" font-family="Arial">9</text><text x="393.826" y="82.742" fill="#1F2D3D" font-size="13" textLength="14.46" font-family="Arial">10</text><text x="414.626" y="82.742" fill="#1F2D3D" font-size="13" textLength="14.46" font-family="Arial">11</text><text x="435.426" y="82.742" fill="#1F2D3D" font-size="13" textLength="14.46" font-family="Arial">12</text><text x="456.226" y="82.742" fill="#1F2D3D" font-size="13" textLength="14.46" font-family="Arial">13</text><text x="477.026" y="82.742" fill="#1F2D3D" font-size="13" textLength="14.46" font-family="Arial">14</text><text x="497.826" y="82.742" fill="#1F2D3D" font-size="13" textLength="14.46" font-family="Arial">15</text><text x="518.626" y="82.742" fill="#1F2D3D" font-size="13" textLength="14.46" font-family="Arial">16</text><text x="539.426" y="82.742" fill="#1F2D3D" font-size="13" textLength="14.46" font-family="Arial">17</text><text x="560.226" y="82.742" fill="#1F2D3D" font-size="13" textLength="14.46" font-family="Arial">18</text><text x="581.026" y="82.742" fill="#1F2D3D" font-size="13" textLength="14.46" font-family="Arial">19</text><text x="601.826" y="82.742" fill="#1F2D3D" font-size="13" textLength="14.46" font-family="Arial">20</text><text x="622.626" y="82.742" fill="#1F2D3D" font-size="13" textLength="14.46" font-family="Arial">21</text><text x="643.426" y="82.742" fill="#1F2D3D" font-size="13" textLength="14.46" font-family="Arial">22</text><text x="664.226" y="82.742" fill="#1F2D3D" font-size="13" textLength="14.46" font-family="Arial">23</text><text x="685.026" y="82.742" fill="#1F2D3D" font-size="13" textLength="14.46" font-family="Arial">24</text><text x="705.826" y="82.742" fill="#1F2D3D" font-size="13" textLength="14.46" font-family="Arial">25</text><text x="726.626" y="82.742" fill="#1F2D3D" font-size="13" textLength="14.46" font-family="Arial">26</text><text x="747.426" y="82.742" fill="#1F2D3D" font-size="13" textLength="14.46" font-family="Arial">27</text><text x="768.226" y="82.742" fill="#1F2D3D" font-size="13" textLength="14.46" font-family="Arial">28</text><line x1="203.456" y1="86.548" x2="203.456" y2="522.369" style="stroke:#C0C0C0;stroke-width:1;"/><line x1="224.256" y1="86.548" x2="224.256" y2="522.369" style="stroke:#C0C0C0;stroke-width:1;"/><line x1="245.056" y1="86.548" x2="245.056" y2="522.369" style="stroke:#C0C0C0;stroke-width:1;"/><line x1="265.856" y1="86.548" x2="265.856" y2="522.369" style="stroke:#C0C0C0;stroke-width:1;"/><line x1="286.656" y1="86.548" x2="286.656" y2="522.369" style="stroke:#C0C0C0;stroke-width:1;"/><line x1="307.456" y1="86.548" x2="307.456" y2="522.369" style="stroke:#C0C0C0;stroke-width:1;"/><line x1="328.256" y1="86.548" x2="328.256" y2="522.369" style="stroke:#C0C0C0;stroke-width:1;"/><line x1="349.056" y1="86.548" x2="349.056" y2="522.369" style="stroke:#C0C0C0;stroke-width:1;"/><line x1="369.856" y1="86.548" x2="369.856" y2="522.369" style="stroke:#C0C0C0;stroke-width:1;"/><line x1="390.656" y1="86.548" x2="390.656" y2="522.369" style="stroke:#C0C0C0;stroke-width:1;"/><line x1="411.456" y1="86.548" x2="411.456" y2="522.369" style="stroke:#C0C0C0;stroke-width:1;"/><line x1="432.256" y1="86.548" x2="432.256" y2="522.369" style="stroke:#C0C0C0;stroke-width:1;"/><line x1="453.056" y1="86.548" x2="453.056" y2="522.369" style="stroke:#C0C0C0;stroke-width:1;"/><line x1="473.856" y1="86.548" x2="473.856" y2="522.369" style="stroke:#C0C0C0;stroke-width:1;"/><line x1="494.656" y1="86.548" x2="494.656" y2="522.369" style="stroke:#C0C0C0;stroke-width:1;"/><line x1="515.456" y1="86.548" x2="515.456" y2="522.369" style="stroke:#C0C0C0;stroke-width:1;"/><line x1="536.256" y1="86.548" x2="536.256" y2="522.369" style="stroke:#C0C0C0;stroke-width:1;"/><line x1="557.056" y1="86.548" x2="557.056" y2="522.369" style="stroke:#C0C0C0;stroke-width:1;"/><line x1="577.856" y1="86.548" x2="577.856" y2="522.369" style="stroke:#C0C0C0;stroke-width:1;"/><line x1="598.656" y1="86.548" x2="598.656" y2="522.369" style="stroke:#C0C0C0;stroke-width:1;"/><line x1="619.456" y1="86.548" x2="619.456" y2="522.369" style="stroke:#C0C0C0;stroke-width:1;"/><line x1="640.256" y1="86.548" x2="640.256" y2="522.369" style="stroke:#C0C0C0;stroke-width:1;"/><line x1="661.056" y1="86.548" x2="661.056" y2="522.369" style="stroke:#C0C0C0;stroke-width:1;"/><line x1="681.856" y1="86.548" x2="681.856" y2="522.369" style="stroke:#C0C0C0;stroke-width:1;"/><line x1="702.656" y1="86.548" x2="702.656" y2="522.369" style="stroke:#C0C0C0;stroke-width:1;"/><line x1="723.456" y1="86.548" x2="723.456" y2="522.369" style="stroke:#C0C0C0;stroke-width:1;"/><line x1="744.256" y1="86.548" x2="744.256" y2="522.369" style="stroke:#C0C0C0;stroke-width:1;"/><line x1="765.056" y1="86.548" x2="765.056" y2="522.369" style="stroke:#C0C0C0;stroke-width:1;"/><line x1="785.856" y1="86.548" x2="785.856" y2="522.369" style="stroke:#C0C0C0;stroke-width:1;"/><line x1="203.456" y1="86.548" x2="785.856" y2="86.548" style="stroke:#C0C0C0;stroke-width:1;"/><line x1="203.456" y1="522.369" x2="785.856" y2="522.369" style="stroke:#C0C0C0;stroke-width:1;"/><path d="M216.256,103.497 L216.256,114.971 L221.256,114.971" style="stroke:#34506B;stroke-width:1.1;" fill="none"/><polygon points="220.256,110.971,224.256,114.971,220.256,118.971,220.256,110.971" fill="#34506B" style="stroke:#34506B;stroke-width:1;stroke-linejoin:miter;stroke-miterlimit:10;"/><path d="M257.856,122.446 L257.856,133.92 L262.856,133.92" style="stroke:#34506B;stroke-width:1.1;" fill="none"/><polygon points="261.856,129.92,265.856,133.92,261.856,137.92,261.856,129.92" fill="#34506B" style="stroke:#34506B;stroke-width:1;stroke-linejoin:miter;stroke-miterlimit:10;"/><path d="M216.256,103.497 L216.256,152.869 L221.256,152.869" style="stroke:#34506B;stroke-width:1.1;" fill="none"/><polygon points="220.256,148.869,224.256,152.869,220.256,156.869,220.256,148.869" fill="#34506B" style="stroke:#34506B;stroke-width:1;stroke-linejoin:miter;stroke-miterlimit:10;"/><path d="M216.256,103.497 L216.256,171.818 L221.256,171.818" style="stroke:#34506B;stroke-width:1.1;" fill="none"/><polygon points="220.256,167.818,224.256,171.818,220.256,175.818,220.256,167.818" fill="#34506B" style="stroke:#34506B;stroke-width:1;stroke-linejoin:miter;stroke-miterlimit:10;"/><path d="M257.856,122.446 L257.856,190.766 L262.856,190.766" style="stroke:#34506B;stroke-width:1.1;" fill="none"/><polygon points="261.856,186.766,265.856,190.766,261.856,194.766,261.856,186.766" fill="#34506B" style="stroke:#34506B;stroke-width:1;stroke-linejoin:miter;stroke-miterlimit:10;"/><path d="M257.856,179.292 L257.856,209.715 L346.056,209.715" style="stroke:#34506B;stroke-width:1.1;" fill="none"/><polygon points="345.056,205.715,349.056,209.715,345.056,213.715,345.056,205.715" fill="#34506B" style="stroke:#34506B;stroke-width:1;stroke-linejoin:miter;stroke-miterlimit:10;"/><path d="M341.056,198.241 L341.056,209.715 L346.056,209.715" style="stroke:#34506B;stroke-width:1.1;" fill="none"/><polygon points="345.056,205.715,349.056,209.715,345.056,213.715,345.056,205.715" fill="#34506B" style="stroke:#34506B;stroke-width:1;stroke-linejoin:miter;stroke-miterlimit:10;"/><path d="M257.856,160.343 L257.856,228.664 L387.656,228.664" style="stroke:#34506B;stroke-width:1.1;" fill="none"/><polygon points="386.656,224.664,390.656,228.664,386.656,232.664,386.656,224.664" fill="#34506B" style="stroke:#34506B;stroke-width:1;stroke-linejoin:miter;stroke-miterlimit:10;"/><path d="M382.656,217.189 L382.656,228.664 L387.656,228.664" style="stroke:#34506B;stroke-width:1.1;" fill="none"/><polygon points="386.656,224.664,390.656,228.664,386.656,232.664,386.656,224.664" fill="#34506B" style="stroke:#34506B;stroke-width:1;stroke-linejoin:miter;stroke-miterlimit:10;"/><path d="M299.456,141.395 L299.456,247.613 L387.656,247.613" style="stroke:#34506B;stroke-width:1.1;" fill="none"/><polygon points="386.656,243.613,390.656,247.613,386.656,251.613,386.656,243.613" fill="#34506B" style="stroke:#34506B;stroke-width:1;stroke-linejoin:miter;stroke-miterlimit:10;"/><path d="M382.656,217.189 L382.656,247.613 L387.656,247.613" style="stroke:#34506B;stroke-width:1.1;" fill="none"/><polygon points="386.656,243.613,390.656,247.613,386.656,251.613,386.656,243.613" fill="#34506B" style="stroke:#34506B;stroke-width:1;stroke-linejoin:miter;stroke-miterlimit:10;"/><path d="M424.256,255.087 L424.256,266.561 L429.256,266.561" style="stroke:#34506B;stroke-width:1.1;" fill="none"/><polygon points="428.256,262.561,432.256,266.561,428.256,270.561,428.256,262.561" fill="#34506B" style="stroke:#34506B;stroke-width:1;stroke-linejoin:miter;stroke-miterlimit:10;"/><path d="M424.256,255.087 L424.256,285.51 L429.256,285.51" style="stroke:#34506B;stroke-width:1.1;" fill="none"/><polygon points="428.256,281.51,432.256,285.51,428.256,289.51,428.256,281.51" fill="#34506B" style="stroke:#34506B;stroke-width:1;stroke-linejoin:miter;stroke-miterlimit:10;"/><path d="M424.256,236.138 L424.256,304.459 L450.056,304.459" style="stroke:#34506B;stroke-width:1.1;" fill="none"/><polygon points="449.056,300.459,453.056,304.459,449.056,308.459,449.056,300.459" fill="#34506B" style="stroke:#34506B;stroke-width:1;stroke-linejoin:miter;stroke-miterlimit:10;"/><path d="M445.056,274.036 L445.056,304.459 L450.056,304.459" style="stroke:#34506B;stroke-width:1.1;" fill="none"/><polygon points="449.056,300.459,453.056,304.459,449.056,308.459,449.056,300.459" fill="#34506B" style="stroke:#34506B;stroke-width:1;stroke-linejoin:miter;stroke-miterlimit:10;"/><path d="M445.056,292.984 L445.056,304.459 L450.056,304.459" style="stroke:#34506B;stroke-width:1.1;" fill="none"/><polygon points="449.056,300.459,453.056,304.459,449.056,308.459,449.056,300.459" fill="#34506B" style="stroke:#34506B;stroke-width:1;stroke-linejoin:miter;stroke-miterlimit:10;"/><path d="M465.856,311.933 L465.856,323.407 L470.856,323.407" style="stroke:#34506B;stroke-width:1.1;" fill="none"/><polygon points="469.856,319.407,473.856,323.407,469.856,327.407,469.856,319.407" fill="#34506B" style="stroke:#34506B;stroke-width:1;stroke-linejoin:miter;stroke-miterlimit:10;"/><path d="M486.656,330.882 L486.656,342.356 L491.656,342.356" style="stroke:#34506B;stroke-width:1.1;" fill="none"/><polygon points="490.656,338.356,494.656,342.356,490.656,346.356,490.656,338.356" fill="#34506B" style="stroke:#34506B;stroke-width:1;stroke-linejoin:miter;stroke-miterlimit:10;"/><path d="M507.456,349.831 L507.456,361.305 L512.456,361.305" style="stroke:#34506B;stroke-width:1.1;" fill="none"/><polygon points="511.456,357.305,515.456,361.305,511.456,365.305,511.456,357.305" fill="#34506B" style="stroke:#34506B;stroke-width:1;stroke-linejoin:miter;stroke-miterlimit:10;"/><path d="M590.656,368.779 L590.656,380.254 L595.656,380.254" style="stroke:#34506B;stroke-width:1.1;" fill="none"/><polygon points="594.656,376.254,598.656,380.254,594.656,384.254,594.656,376.254" fill="#34506B" style="stroke:#34506B;stroke-width:1;stroke-linejoin:miter;stroke-miterlimit:10;"/><path d="M590.656,368.779 L590.656,399.202 L595.656,399.202" style="stroke:#34506B;stroke-width:1.1;" fill="none"/><polygon points="594.656,395.202,598.656,399.202,594.656,403.202,594.656,395.202" fill="#34506B" style="stroke:#34506B;stroke-width:1;stroke-linejoin:miter;stroke-miterlimit:10;"/><path d="M632.256,387.728 L632.256,418.151 L658.056,418.151" style="stroke:#34506B;stroke-width:1.1;" fill="none"/><polygon points="657.056,414.151,661.056,418.151,657.056,422.151,657.056,414.151" fill="#34506B" style="stroke:#34506B;stroke-width:1;stroke-linejoin:miter;stroke-miterlimit:10;"/><path d="M653.056,406.677 L653.056,418.151 L658.056,418.151" style="stroke:#34506B;stroke-width:1.1;" fill="none"/><polygon points="657.056,414.151,661.056,418.151,657.056,422.151,657.056,414.151" fill="#34506B" style="stroke:#34506B;stroke-width:1;stroke-linejoin:miter;stroke-miterlimit:10;"/><path d="M694.656,425.625 L694.656,437.1 L699.656,437.1" style="stroke:#34506B;stroke-width:1.1;" fill="none"/><polygon points="698.656,433.1,702.656,437.1,698.656,441.1,698.656,433.1" fill="#34506B" style="stroke:#34506B;stroke-width:1;stroke-linejoin:miter;stroke-miterlimit:10;"/><path d="M715.456,444.574 L715.456,456.049 L720.456,456.049" style="stroke:#34506B;stroke-width:1.1;" fill="none"/><polygon points="719.456,452.049,723.456,456.049,719.456,460.049,719.456,452.049" fill="#34506B" style="stroke:#34506B;stroke-width:1;stroke-linejoin:miter;stroke-miterlimit:10;"/><path d="M757.056,463.523 L757.056,474.997 L762.056,474.997" style="stroke:#34506B;stroke-width:1.1;" fill="none"/><polygon points="761.056,470.997,765.056,474.997,761.056,478.997,761.056,470.997" fill="#34506B" style="stroke:#34506B;stroke-width:1;stroke-linejoin:miter;stroke-miterlimit:10;"/><rect x="205.456" y="88.548" width="16.8" height="14.949" fill="#FA8072" style="stroke:#FA8072;stroke-width:1;" rx="4" ry="4"/><rect x="226.256" y="107.497" width="37.6" height="14.949" fill="#FA8072" style="stroke:#FA8072;stroke-width:1;" rx="4" ry="4"/><rect x="267.856" y="126.446" width="37.6" height="14.949" fill="#ADD8E6" style="stroke:#ADD8E6;stroke-width:1;" rx="4" ry="4"/><rect x="226.256" y="145.395" width="37.6" height="14.949" fill="#ADD8E6" style="stroke:#ADD8E6;stroke-width:1;" rx="4" ry="4"/><rect x="226.256" y="164.343" width="37.6" height="14.949" fill="#ADD8E6" style="stroke:#ADD8E6;stroke-width:1;" rx="4" ry="4"/><rect x="267.856" y="183.292" width="79.2" height="14.949" fill="#FA8072" style="stroke:#FA8072;stroke-width:1;" rx="4" ry="4"/><rect x="351.056" y="202.241" width="37.6" height="14.949" fill="#FA8072" style="stroke:#FA8072;stroke-width:1;" rx="4" ry="4"/><rect x="392.656" y="221.189" width="37.6" height="14.949" fill="#ADD8E6" style="stroke:#ADD8E6;stroke-width:1;" rx="4" ry="4"/><rect x="392.656" y="240.138" width="37.6" height="14.949" fill="#FA8072" style="stroke:#FA8072;stroke-width:1;" rx="4" ry="4"/><rect x="434.256" y="259.087" width="16.8" height="14.949" fill="#FA8072" style="stroke:#FA8072;stroke-width:1;" rx="4" ry="4"/><rect x="434.256" y="278.036" width="16.8" height="14.949" fill="#FA8072" style="stroke:#FA8072;stroke-width:1;" rx="4" ry="4"/><rect x="455.056" y="296.984" width="16.8" height="14.949" fill="#FA8072" style="stroke:#FA8072;stroke-width:1;" rx="4" ry="4"/><rect x="475.856" y="315.933" width="16.8" height="14.949" fill="#FA8072" style="stroke:#FA8072;stroke-width:1;" rx="4" ry="4"/><rect x="496.656" y="334.882" width="16.8" height="14.949" fill="#FA8072" style="stroke:#FA8072;stroke-width:1;" rx="4" ry="4"/><rect x="517.456" y="353.831" width="79.2" height="14.949" fill="#FA8072" style="stroke:#FA8072;stroke-width:1;" rx="4" ry="4"/><rect x="600.656" y="372.779" width="37.6" height="14.949" fill="#ADD8E6" style="stroke:#ADD8E6;stroke-width:1;" rx="4" ry="4"/><rect x="600.656" y="391.728" width="58.4" height="14.949" fill="#FA8072" style="stroke:#FA8072;stroke-width:1;" rx="4" ry="4"/><rect x="663.056" y="410.677" width="37.6" height="14.949" fill="#FA8072" style="stroke:#FA8072;stroke-width:1;" rx="4" ry="4"/><rect x="704.656" y="429.625" width="16.8" height="14.949" fill="#FA8072" style="stroke:#FA8072;stroke-width:1;" rx="4" ry="4"/><rect x="725.456" y="448.574" width="37.6" height="14.949" fill="#FA8072" style="stroke:#FA8072;stroke-width:1;" rx="4" ry="4"/><rect x="767.056" y="467.523" width="16.8" height="14.949" fill="#FA8072" style="stroke:#FA8072;stroke-width:1;" rx="4" ry="4"/><polygon points="297.056,486.472,303.056,492.472,297.056,498.472,291.056,492.472" fill="#000" style="stroke:#000;stroke-width:1;stroke-linejoin:miter;stroke-miterlimit:10;"/><polygon points="775.456,505.42,781.456,511.42,775.456,517.42,769.456,511.42" fill="#000" style="stroke:#000;stroke-width:1;stroke-linejoin:miter;stroke-miterlimit:10;"/><text x="226.256" y="100.742" fill="#1F2D3D" font-size="13" textLength="200.878" font-family="Arial">A01 Sprint Planning S1 (Porras V.)</text><text x="267.856" y="119.691" fill="#1F2D3D" font-size="13" textLength="263.745" font-family="Arial">A02 Arquitectura hexagonal y ADR (Auqui H.)</text><text x="309.456" y="138.64" fill="#1F2D3D" font-size="13" textLength="292.659" font-family="Arial">A03 Esquema de datos y migración 001 (Auqui H.)</text><text x="267.856" y="157.588" fill="#1F2D3D" font-size="13" textLength="351.165" font-family="Arial">A04 Entorno de calidad (pytest, cobertura, ruff) (Huamani R.)</text><text x="267.856" y="176.537" fill="#1F2D3D" font-size="13" textLength="258.654" font-family="Arial">A05 Normativa JSON y proveedor (Auqui H.)</text><text x="351.056" y="195.486" fill="#1F2D3D" font-size="13" textLength="289.021" font-family="Arial">A06 Validadores de dominio (HIST-1.3) (Auqui H.)</text><text x="392.656" y="214.435" fill="#1F2D3D" font-size="13" textLength="259.372" font-family="Arial">A07 Clasificador de Hb (HIST-1.3) (Auqui H.)</text><text x="434.256" y="233.383" fill="#1F2D3D" font-size="13" textLength="254.332" font-family="Arial">A08 Pruebas de valores límite (Huamani R.)</text><text x="434.256" y="252.332" fill="#1F2D3D" font-size="13" textLength="359.811" font-family="Arial">A09 Registro: caso de uso y repositorios (HIST-1.1) (Auqui H.)</text><text x="455.056" y="271.281" fill="#1F2D3D" font-size="13" textLength="285.042" font-family="Arial">A10 API POST/GET /ninos + OpenAPI (Auqui H.)</text><text x="455.056" y="290.229" fill="#1F2D3D" font-size="13" textLength="243.49" font-family="Arial">A11 Formulario web de registro (Auqui H.)</text><text x="475.856" y="309.178" fill="#1F2D3D" font-size="13" textLength="372.125" font-family="Arial">A12 Pruebas persistencia/API y revisión de código (Huamani R.)</text><text x="496.656" y="328.127" fill="#1F2D3D" font-size="13" textLength="250.707" font-family="Arial">A13 Revisión y retrospectiva S1 (Porras V.)</text><text x="517.456" y="347.076" fill="#1F2D3D" font-size="13" textLength="200.878" font-family="Arial">A14 Sprint Planning S2 (Porras V.)</text><text x="600.656" y="366.024" fill="#1F2D3D" font-size="13" textLength="276.739" font-family="Arial">A15 Expediente y dosajes (HIST-1.2) (Auqui H.)</text><text x="642.256" y="384.973" fill="#1F2D3D" font-size="13" textLength="286.857" font-family="Arial">A16 Listado en seguimiento (HIST-1.4) (Auqui H.)</text><text x="663.056" y="403.922" fill="#1F2D3D" font-size="13" textLength="267.344" font-family="Arial">A17 Reporte del periodo (HIST-1.5) (Auqui H.)</text><text x="704.656" y="422.871" fill="#1F2D3D" font-size="13" textLength="355.513" font-family="Arial">A18 Pruebas de integración, cobertura y ruff S2 (Huamani R.)</text><text x="725.456" y="441.819" fill="#1F2D3D" font-size="13" textLength="302.745" font-family="Arial">A19 Datos sintéticos y demostración local (Auqui H.)</text><text x="767.056" y="460.768" fill="#1F2D3D" font-size="13" textLength="358.427" font-family="Arial">A20 Revisión de aceptación con personal de salud (Porras V.)</text><text x="787.856" y="479.717" fill="#1F2D3D" font-size="13" textLength="310.705" font-family="Arial">A21 Retrospectiva y actualización del plan (Porras V.)</text><text x="306.056" y="498.666" fill="#1F2D3D" font-size="13" textLength="122.123" font-family="Arial">H0 Arquitectura base</text><text x="784.456" y="517.614" fill="#1F2D3D" font-size="13" textLength="133.682" font-family="Arial">H1 Aceptación prevista</text><text x="204.827" y="534.563" fill="#1F2D3D" font-size="13" textLength="18.059" font-family="Arial">ma</text><text x="227.797" y="534.563" fill="#1F2D3D" font-size="13" textLength="13.717" font-family="Arial">mi</text><text x="250.397" y="534.563" fill="#1F2D3D" font-size="13" textLength="10.118" font-family="Arial">ju</text><text x="271.562" y="534.563" fill="#1F2D3D" font-size="13" textLength="9.388" font-family="Arial">vi</text><text x="290.191" y="534.563" fill="#1F2D3D" font-size="13" textLength="13.73" font-family="Arial">sá</text><text x="310.626" y="534.563" fill="#1F2D3D" font-size="13" textLength="14.46" font-family="Arial">do</text><text x="333.597" y="534.563" fill="#1F2D3D" font-size="13" textLength="10.118" font-family="Arial">lu</text><text x="350.427" y="534.563" fill="#1F2D3D" font-size="13" textLength="18.059" font-family="Arial">ma</text><text x="373.397" y="534.563" fill="#1F2D3D" font-size="13" textLength="13.717" font-family="Arial">mi</text><text x="395.997" y="534.563" fill="#1F2D3D" font-size="13" textLength="10.118" font-family="Arial">ju</text><text x="417.162" y="534.563" fill="#1F2D3D" font-size="13" textLength="9.388" font-family="Arial">vi</text><text x="435.791" y="534.563" fill="#1F2D3D" font-size="13" textLength="13.73" font-family="Arial">sá</text><text x="456.226" y="534.563" fill="#1F2D3D" font-size="13" textLength="14.46" font-family="Arial">do</text><text x="479.197" y="534.563" fill="#1F2D3D" font-size="13" textLength="10.118" font-family="Arial">lu</text><text x="496.027" y="534.563" fill="#1F2D3D" font-size="13" textLength="18.059" font-family="Arial">ma</text><text x="518.997" y="534.563" fill="#1F2D3D" font-size="13" textLength="13.717" font-family="Arial">mi</text><text x="541.597" y="534.563" fill="#1F2D3D" font-size="13" textLength="10.118" font-family="Arial">ju</text><text x="562.762" y="534.563" fill="#1F2D3D" font-size="13" textLength="9.388" font-family="Arial">vi</text><text x="581.391" y="534.563" fill="#1F2D3D" font-size="13" textLength="13.73" font-family="Arial">sá</text><text x="601.826" y="534.563" fill="#1F2D3D" font-size="13" textLength="14.46" font-family="Arial">do</text><text x="624.797" y="534.563" fill="#1F2D3D" font-size="13" textLength="10.118" font-family="Arial">lu</text><text x="641.627" y="534.563" fill="#1F2D3D" font-size="13" textLength="18.059" font-family="Arial">ma</text><text x="664.597" y="534.563" fill="#1F2D3D" font-size="13" textLength="13.717" font-family="Arial">mi</text><text x="687.197" y="534.563" fill="#1F2D3D" font-size="13" textLength="10.118" font-family="Arial">ju</text><text x="708.362" y="534.563" fill="#1F2D3D" font-size="13" textLength="9.388" font-family="Arial">vi</text><text x="726.991" y="534.563" fill="#1F2D3D" font-size="13" textLength="13.73" font-family="Arial">sá</text><text x="747.426" y="534.563" fill="#1F2D3D" font-size="13" textLength="14.46" font-family="Arial">do</text><text x="770.397" y="534.563" fill="#1F2D3D" font-size="13" textLength="10.118" font-family="Arial">lu</text><text x="210.241" y="551.563" fill="#1F2D3D" font-size="13" font-family="Arial">1</text><text x="231.041" y="551.563" fill="#1F2D3D" font-size="13" font-family="Arial">2</text><text x="251.841" y="551.563" fill="#1F2D3D" font-size="13" font-family="Arial">3</text><text x="272.641" y="551.563" fill="#1F2D3D" font-size="13" font-family="Arial">4</text><text x="293.441" y="551.563" fill="#1F2D3D" font-size="13" font-family="Arial">5</text><text x="314.241" y="551.563" fill="#1F2D3D" font-size="13" font-family="Arial">6</text><text x="335.041" y="551.563" fill="#1F2D3D" font-size="13" font-family="Arial">7</text><text x="355.841" y="551.563" fill="#1F2D3D" font-size="13" font-family="Arial">8</text><text x="376.641" y="551.563" fill="#1F2D3D" font-size="13" font-family="Arial">9</text><text x="393.826" y="551.563" fill="#1F2D3D" font-size="13" textLength="14.46" font-family="Arial">10</text><text x="414.626" y="551.563" fill="#1F2D3D" font-size="13" textLength="14.46" font-family="Arial">11</text><text x="435.426" y="551.563" fill="#1F2D3D" font-size="13" textLength="14.46" font-family="Arial">12</text><text x="456.226" y="551.563" fill="#1F2D3D" font-size="13" textLength="14.46" font-family="Arial">13</text><text x="477.026" y="551.563" fill="#1F2D3D" font-size="13" textLength="14.46" font-family="Arial">14</text><text x="497.826" y="551.563" fill="#1F2D3D" font-size="13" textLength="14.46" font-family="Arial">15</text><text x="518.626" y="551.563" fill="#1F2D3D" font-size="13" textLength="14.46" font-family="Arial">16</text><text x="539.426" y="551.563" fill="#1F2D3D" font-size="13" textLength="14.46" font-family="Arial">17</text><text x="560.226" y="551.563" fill="#1F2D3D" font-size="13" textLength="14.46" font-family="Arial">18</text><text x="581.026" y="551.563" fill="#1F2D3D" font-size="13" textLength="14.46" font-family="Arial">19</text><text x="601.826" y="551.563" fill="#1F2D3D" font-size="13" textLength="14.46" font-family="Arial">20</text><text x="622.626" y="551.563" fill="#1F2D3D" font-size="13" textLength="14.46" font-family="Arial">21</text><text x="643.426" y="551.563" fill="#1F2D3D" font-size="13" textLength="14.46" font-family="Arial">22</text><text x="664.226" y="551.563" fill="#1F2D3D" font-size="13" textLength="14.46" font-family="Arial">23</text><text x="685.026" y="551.563" fill="#1F2D3D" font-size="13" textLength="14.46" font-family="Arial">24</text><text x="705.826" y="551.563" fill="#1F2D3D" font-size="13" textLength="14.46" font-family="Arial">25</text><text x="726.626" y="551.563" fill="#1F2D3D" font-size="13" textLength="14.46" font-family="Arial">26</text><text x="747.426" y="551.563" fill="#1F2D3D" font-size="13" textLength="14.46" font-family="Arial">27</text><text x="768.226" y="551.563" fill="#1F2D3D" font-size="13" textLength="14.46" font-family="Arial">28</text><text x="443.71" y="567.563" fill="#1F2D3D" font-size="13" textLength="101.893" font-weight="700" font-family="Arial">septiembre 2026</text><g class="legend" data-source-line="98"><rect x="448.003" y="581.369" width="248.477" height="35.298" fill="#F1F3F5" style="stroke:#D5DBE1;stroke-width:1;" rx="4" ry="4"/><text x="453.003" y="596.687" fill="#1F2D3D" font-size="11" textLength="236" font-family="Arial">Rojo: ruta crítica. Azul: holgura. Días calendario.</text><text x="453.003" y="609.336" fill="#1F2D3D" font-size="11" textLength="238.477" font-family="Arial">S1: 01-14 sep. S2: 15-28 sep. Hitos planificados.</text></g><?plantuml-src xLdBSjiu5jtpAp3LcwIcen0KzKfrfK9RKZjTcSHbkNeMKwuKB48o4f9W0D2Eaie7pIAh_WJ_M5-0fCm7u3p6ivCNTk42lFVWuEBWmdWX5H5gIpAbq31uAuVXMzDuoxAre2dD5CVUFw2H5355RnLDoI0lqiHJJ2KKdIOaGp5DqClzS8JHeumZ0ksOAOBeExekrkpshmnb3CmqLyGq7tkdWaEdGWQ3H84VZ9_uioS-zdB1CYNN14B4X2Kx3-9i2xAbY4hlFv6FqSeCCG0obctH2iAUSY68H7yE7byW-Al7NLYSbtQQnHOhasZD4mxO4SlGYYGfptHNW2BneM0Au1Q2e2lwaMnvHXAqGz7y33sA2kX59tUHWtxam2ljxSZ3okgA3A2UF2yzwkOGBUI70fO1Q0Tk59S08MLRKPAAVE2cZsROHnDwfRsDPbHPssXUiUsLEaeAMc4j0GqDe10jODK5B3a0WXLZCOdHetodg5I_WfDBAZHblo9HR3QFqQEJWgG4Ck7i3bteu2gqSXNUYsvFLsZGZT1hBbAYs3L1VwpUl0QoSi6lAOsviF0qSY0PMP6ClW_9o20PepzBSc2mD8l7KvOn3eoyN9q_mOFXOmkWiMFXnbr0ayhgJE0QpTYWcQ3ZX4YsOMiDICCvkRmVoQIFPEgLzZQIMMLr8HdLI2ON5UPcSufEHK4lYQ7ecYI6hUJsQmfxpveyqnukx7kblOKBuyfwpvA5DPRfHJM9PdE6pkYMIINuCqXqQHA-W3yx96ZE9ODTm60xrYnY6uip1zgP5UtCpUAmnZPhGpLDxAFez2KwVRCwV_hxuXmz1Oa4PFz4RtAQwPuUCEptWGLUQMy3gwqkOBCA2OpH8p5QmWOi4WBSe1jwgKaJ5OqM6DW10rjXuE-0WGsCO9zMEHKIejDipSXJpOLUlcicZNfg2RlzAsPRRiirt1TrFFHAUnjTRNMXczReWekApcOJjvj3oBiQe0OBpCaS3YAjQTPZ3_Vb7eTUQM_ZhAqEdBXM3Moq7eVzOpUmnUyBEXvvfRqTlxQwujTPZesQun5QVCoXh80wWm8LCPVa7RtRSO5bn-6-fEEnLzhRM6QLrOMb5WTiz1oFGJh0SSp13P9qMx2KcVgdHXFQqFJrFF2zqjv24-3AwbOhN0ifDfAE9v0cEHV0Z2x88CqPZ-_GZ6ne9WuqNKqFWihgucOFnOWuReauv0kjovD6GQ1J6Ie2aq6MhTQNzS1iggwi1s5bTK6hpnSylQWcqMpEqDpKK19GtlvNiRMffsAQSX2eggHAE9Gr5lRwMXwOVEvg-TxgWhXN0oFUWT_Oxy1VesI6ppCZOARqX3v9e2wtxC2WB-V1s2ljRMoJokh2LkjeOEGym82jgJyxWASAA6m-LGXDxkbRWGLKNzo3gLVQsw1ggmDKKEjbeCNzn6_Nvf1sz09TaHpEkdPbUu9Hr20pDxglI7ym04Ze5Z2XIwuKJxqp_WuEVL70VMOjRhz2df01YZuLoJDqnPCjX1sW-UrNcAQ-isInFkq6tWe_Gpu6bGLzo0UGwSyG7e7pidd2TE9fhgeoJ0uy-BGCxBs0N-OcvdallkkEbWkoXLj1GdQyW2jLIXN9YETvyZtBSY982iIitsy5BxBuM9EAVbcQdyO8UGKmRhIkRqWYQQCdfXjI96h9C_MQf1GOPoInzw_O9uhW1BHsLf7nCfWFvuqXaH3yfkeSXYD_VDJj_ERNTx63RjVv5Lk_pwYK2CgoHcT5XiYeGDE6_KQG_DyiLbSe6FiDUqe-_Wkym3tK16ftPZociB0eR1e5oTvhuwZbXcMw-fPbY9dVNAJoNltPGwZ3TMae9pYfMse7Wozv4bU6Da487JcM_4iZufhaYe6kV6w52DeUmsWKZQFMTzKE-MmDWvV3vKZtS15JKLdde_dH0hV2O2lmBorQ5NK4ELeEvyjka2D_6WMB7moouH15T2Zm7HGqbnSqXsJRn85mCLuibfCkmYg_xIks0XoKgrrE-w6xlVNicZF90OF-FyddUrR_H_1qqgn5cj3P-J21ldGsqe-arNUw1Grb6pYjVYAPccvYeeW-OknkZcVpQ77iGDZQTJpDUGRQ_K2Pq_IjAou1K_sPnMcbDx35nVzXXOrVsuVT8TyyiSomCZ-hKwRHMKYwTgxKJ-nDoo7LeckjHVqRT9rG0j4U0atl08YK4kooKDIAlTbv9_7toKrpnI1HcThzh_aawOS2BjxbYfpg3RbcEPGoRZgQWwpCD0POftrV6jNTLiUls8Q-OXcrds3xNgS0_0xMtArWPRSrikagyyGsfJcxPhOKshkk1rYT7_6F_IyZKB_ZgjCwtJEwWJo1bND7hGgZA65RkAVe6xfePP2W4WHFqchS4KtuZTbGIC5TiQCwC0DNjlt4Jfap0XU7sAtvzG1h7R7IrNVNvMBlf55h2RVYoHkMGgLVQP6LuzBQB5Nr1ZtNzQ1jKlkESZE7BPFzmCxrNjdNUexyS5QCpTaeekY37LosUkgttym_wLBo_BaZJhZ4YwWR9rYCZy959-_sBikhgikZlRYmQ673uwQ0AoTtUhGAuxwOAwtLuKNa5OrTONB1BvDxo5XE5iD63bNMsM8O3NrDyE6nxl1OTtYiEppM7Hxh3ezrXyUwmsFTuR7ky5XtUAmxFDOT7kiU_B4EX0rm3QP_0m00?></g></svg>