<svg xmlns="http://www.w3.org/2000/svg" xmlns:xlink="http://www.w3.org/1999/xlink" version="1.1" data-diagram-type="DESCRIPTION" style="width:830px;height:811px;background:#FFFFFF;" width="830px" height="811px" viewBox="0 0 830 811" zoomAndPan="magnify" preserveAspectRatio="none" contentStyleType="text/css"><?plantuml 1.2026.8?><defs/><g font-family="sans-serif" lengthAdjust="spacing"><g class="title" data-source-line="10"><text x="166.237" y="23.132" fill="#000" font-size="14" textLength="490.526" font-weight="700" font-family="'Arial'">Ciclo de vida adaptado: iterativo-incremental + Scrum + DevOps + MLOps</text></g><!--cluster Incrementos (Tabla 16)--><g class="cluster" data-qualified-name="Incrementos .Tabla 16." id="ent0001" data-source-line="12"><path d="M246.5,49.099 L378.205,49.099 A3.75,3.75 0 0 1 380.705,51.599 L387.705,68.897 L465.5,68.897 A2.5,2.5 0 0 1 468,71.397 L468,331.599 A2.5,2.5 0 0 1 465.5,334.099 L246.5,334.099 A2.5,2.5 0 0 1 244,331.599 L244,51.599 A2.5,2.5 0 0 1 246.5,49.099" style="stroke:#000;stroke-width:1.5;" fill="#E3F2FD"/><line x1="244" y1="68.897" x2="387.705" y2="68.897" style="stroke:#000;stroke-width:1.5;"/><text x="248" y="62.354" fill="#000" font-size="12" textLength="130.705" font-weight="700" font-family="'Arial'">Incrementos (Tabla 16)</text></g><!--cluster Carril DevOps continuo (ci.yml)--><g class="cluster" data-qualified-name="Carril DevOps continuo .ci.yml." id="ent0007" data-source-line="20"><path d="M16.5,62.599 L196.867,62.599 A3.75,3.75 0 0 1 199.367,65.099 L206.367,82.397 L225.5,82.397 A2.5,2.5 0 0 1 228,84.897 L228,596.599 A2.5,2.5 0 0 1 225.5,599.099 L16.5,599.099 A2.5,2.5 0 0 1 14,596.599 L14,65.099 A2.5,2.5 0 0 1 16.5,62.599" style="stroke:#000;stroke-width:1.5;" fill="#FFF9C4"/><line x1="14" y1="82.397" x2="206.367" y2="82.397" style="stroke:#000;stroke-width:1.5;"/><text x="18" y="75.854" fill="#000" font-size="12" textLength="179.367" font-weight="700" font-family="'Arial'">Carril DevOps continuo (ci.yml)</text></g><!--cluster Subciclo MLOps (desde INC-5)--><g class="cluster" data-qualified-name="Subciclo MLOps .desde INC-5." id="ent0019" data-source-line="34"><path d="M634.5,62.599 L810.186,62.599 A3.75,3.75 0 0 1 812.686,65.099 L819.686,82.397 L819.5,82.397 A2.5,2.5 0 0 1 822,84.897 L822,443.099 A2.5,2.5 0 0 1 819.5,445.599 L634.5,445.599 A2.5,2.5 0 0 1 632,443.099 L632,65.099 A2.5,2.5 0 0 1 634.5,62.599" style="stroke:#000;stroke-width:1.5;" fill="#F3E5F5"/><line x1="632" y1="82.397" x2="819.686" y2="82.397" style="stroke:#000;stroke-width:1.5;"/><text x="636" y="75.854" fill="#000" font-size="12" textLength="174.686" font-weight="700" font-family="'Arial'">Subciclo MLOps (desde INC-5)</text></g><!--cluster Descartados como modelo único (Tabla 8, puntaje sobre 30)--><g class="cluster" data-qualified-name="Descartados como modelo .nico .Tabla 8. puntaje sobre 30." id="ent0027" data-source-line="44"><path d="M259.5,342.099 L603.912,342.099 A3.75,3.75 0 0 1 606.412,344.599 L613.412,361.897 L613.5,361.897 A2.5,2.5 0 0 1 616,364.397 L616,456.599 A2.5,2.5 0 0 1 613.5,459.099 L259.5,459.099 A2.5,2.5 0 0 1 257,456.599 L257,344.599 A2.5,2.5 0 0 1 259.5,342.099" style="stroke:#000;stroke-width:1.5;" fill="#FFCDD2"/><line x1="257" y1="361.897" x2="613.412" y2="361.897" style="stroke:#000;stroke-width:1.5;"/><text x="261" y="355.354" fill="#000" font-size="12" textLength="343.412" font-weight="700" font-family="'Arial'">Descartados como modelo único (Tabla 8, puntaje sobre 30)</text></g><!--cluster Decisión ponderada (Tabla 9)--><g class="cluster" data-qualified-name="Decisi.n ponderada .Tabla 9." id="ent0030" data-source-line="49"><path d="M18.5,607.099 L186.867,607.099 A3.75,3.75 0 0 1 189.367,609.599 L196.367,626.897 L555.5,626.897 A2.5,2.5 0 0 1 558,629.397 L558,721.599 A2.5,2.5 0 0 1 555.5,724.099 L18.5,724.099 A2.5,2.5 0 0 1 16,721.599 L16,609.599 A2.5,2.5 0 0 1 18.5,607.099" style="stroke:#000;stroke-width:1.5;" fill="#C8E6C9"/><line x1="16" y1="626.897" x2="196.367" y2="626.897" style="stroke:#000;stroke-width:1.5;"/><text x="20" y="620.354" fill="#000" font-size="12" textLength="167.367" font-weight="700" font-family="'Arial'">Decisión ponderada (Tabla 9)</text></g><g class="entity" data-qualified-name="GMN41" id="ent0042" data-source-line="64"><path d="M345,744.099 L345,795.495 A0,0 0 0 0 345,795.495 L605.455,795.495 A0,0 0 0 0 605.455,795.495 L605.455,754.099 L595.455,744.099 L479,744.099 L475,708.567 L471,744.099 L345,744.099 A0,0 0 0 0 345,744.099" style="stroke:#181818;stroke-width:0.5;" fill="#FEFFDD"/><path d="M595.455,744.099 L595.455,754.099 L605.455,754.099 L595.455,744.099" style="stroke:#181818;stroke-width:0.5;" fill="#FEFFDD"/><text x="351" y="760.354" fill="#000" font-size="12" textLength="40.693" font-family="'Arial'">Fuente:</text><text x="391.693" y="760.354" fill="#000" font-size="12" font-family="'Arial'"> </text><text x="395.027" y="760.354" fill="#000" font-size="12" textLength="40.682" font-family="'Arial'">Informe</text><text x="435.709" y="760.354" fill="#000" font-size="12" font-family="'Arial'"> </text><text x="439.043" y="760.354" fill="#000" font-size="12" textLength="57.369" font-family="'Arial'">integrador,</text><text x="496.412" y="760.354" fill="#000" font-size="12" font-family="'Arial'"> </text><text x="499.746" y="760.354" fill="#000" font-size="12" textLength="36.018" font-family="'Arial'">Tablas</text><text x="535.764" y="760.354" fill="#000" font-size="12" font-family="'Arial'"> </text><text x="539.098" y="760.354" fill="#000" font-size="12" font-family="'Arial'">8</text><text x="545.771" y="760.354" fill="#000" font-size="12" font-family="'Arial'"> </text><text x="549.105" y="760.354" fill="#000" font-size="12" font-family="'Arial'">y</text><text x="555.105" y="760.354" fill="#000" font-size="12" font-family="'Arial'"> </text><text x="558.439" y="760.354" fill="#000" font-size="12" font-family="'Arial'">9</text><text x="565.113" y="760.354" fill="#000" font-size="12" font-family="'Arial'"> </text><text x="568.447" y="760.354" fill="#000" font-size="12" textLength="22.008" font-family="'Arial'">(S2,</text><text x="351" y="774.153" fill="#000" font-size="12" textLength="36.018" font-family="'Arial'">Tablas</text><text x="387.018" y="774.153" fill="#000" font-size="12" font-family="'Arial'"> </text><text x="390.352" y="774.153" fill="#000" font-size="12" font-family="'Arial'">3</text><text x="397.025" y="774.153" fill="#000" font-size="12" font-family="'Arial'"> </text><text x="400.359" y="774.153" fill="#000" font-size="12" font-family="'Arial'">y</text><text x="406.359" y="774.153" fill="#000" font-size="12" font-family="'Arial'"> </text><text x="409.693" y="774.153" fill="#000" font-size="12" textLength="14.004" font-family="'Arial'">6);</text><text x="351" y="787.952" fill="#000" font-size="12" textLength="194.068" font-family="'Arial'">pmv_fastapi/.github/workflows/ci.yml</text></g><!--entity INC1--><g class="entity" data-qualified-name="Incrementos .Tabla 16..INC1" id="ent0002" data-source-line="13"><rect x="264.5" y="89.099" width="175.426" height="61.396" fill="#A5D6A7" style="stroke:#181818;stroke-width:0.5;" rx="2.5" ry="2.5"/><text x="274.5" y="110.354" fill="#000" font-size="12" textLength="31.336" font-family="'Arial'">INC-1</text><text x="274.5" y="124.153" fill="#000" font-size="12" textLength="37.348" font-family="'Arial'">Sprints</text><text x="311.848" y="124.153" fill="#000" font-size="12" font-family="'Arial'"> </text><text x="315.182" y="124.153" fill="#000" font-size="12" font-family="'Arial'">1</text><text x="321.855" y="124.153" fill="#000" font-size="12" font-family="'Arial'"> </text><text x="325.189" y="124.153" fill="#000" font-size="12" font-family="'Arial'">y</text><text x="331.189" y="124.153" fill="#000" font-size="12" font-family="'Arial'"> </text><text x="334.523" y="124.153" fill="#000" font-size="12" font-family="'Arial'">2</text><text x="341.197" y="124.153" fill="#000" font-size="12" font-family="'Arial'"> </text><text x="344.531" y="124.153" fill="#000" font-size="12" textLength="85.395" font-family="'Arial'">(01-28/09/2026)</text><text x="274.5" y="137.952" fill="#000" font-size="12" textLength="58.711" font-family="'Arial'">Entregado:</text><text x="333.211" y="137.952" fill="#000" font-size="12" font-family="'Arial'"> </text><text x="336.545" y="137.952" fill="#000" font-size="12" textLength="52.682" font-family="'Arial'">v1.0-PMV</text></g><!--entity INC2--><g class="entity" data-qualified-name="Incrementos .Tabla 16..INC2" id="ent0003" data-source-line="14"><rect x="280.5" y="186.099" width="146.721" height="47.598" fill="#BBDEFB" style="stroke:#181818;stroke-width:0.5;" rx="2.5" ry="2.5"/><text x="290.5" y="207.354" fill="#000" font-size="12" textLength="31.336" font-family="'Arial'">INC-2</text><text x="321.836" y="207.354" fill="#000" font-size="12" font-family="'Arial'"> </text><text x="325.17" y="207.354" fill="#000" font-size="12" font-family="'Arial'">y</text><text x="331.17" y="207.354" fill="#000" font-size="12" font-family="'Arial'"> </text><text x="334.504" y="207.354" fill="#000" font-size="12" textLength="41.361" font-family="'Arial'">backlog</text><text x="375.865" y="207.354" fill="#000" font-size="12" font-family="'Arial'"> </text><text x="379.199" y="207.354" fill="#000" font-size="12" textLength="38.021" font-family="'Arial'">técnico</text><text x="290.5" y="221.153" fill="#000" font-size="12" textLength="31.348" font-family="'Arial'">Sprint</text><text x="321.848" y="221.153" fill="#000" font-size="12" font-family="'Arial'"> </text><text x="325.182" y="221.153" fill="#000" font-size="12" font-family="'Arial'">3</text><text x="331.855" y="221.153" fill="#000" font-size="12" font-family="'Arial'"> </text><text x="335.189" y="221.153" fill="#000" font-size="12" textLength="72.047" font-family="'Arial'">(29/09-12/10)</text></g><!--entity INC3--><g class="entity" data-qualified-name="Incrementos .Tabla 16..INC3" id="ent0004" data-source-line="15"><rect x="260.5" y="270.099" width="191.445" height="47.598" fill="#BBDEFB" style="stroke:#181818;stroke-width:0.5;" rx="2.5" ry="2.5"/><text x="270.5" y="291.354" fill="#000" font-size="12" textLength="31.336" font-family="'Arial'">INC-3</text><text x="301.836" y="291.354" fill="#000" font-size="12" font-family="'Arial'"> </text><text x="305.17" y="291.354" fill="#000" font-size="12" font-family="'Arial'">a</text><text x="311.844" y="291.354" fill="#000" font-size="12" font-family="'Arial'"> </text><text x="315.178" y="291.354" fill="#000" font-size="12" textLength="31.336" font-family="'Arial'">INC-6</text><text x="270.5" y="305.153" fill="#000" font-size="12" textLength="37.348" font-family="'Arial'">Sprints</text><text x="307.848" y="305.153" fill="#000" font-size="12" font-family="'Arial'"> </text><text x="311.182" y="305.153" fill="#000" font-size="12" font-family="'Arial'">4</text><text x="317.855" y="305.153" fill="#000" font-size="12" font-family="'Arial'"> </text><text x="321.189" y="305.153" fill="#000" font-size="12" font-family="'Arial'">a</text><text x="327.863" y="305.153" fill="#000" font-size="12" font-family="'Arial'"> </text><text x="331.197" y="305.153" fill="#000" font-size="12" font-family="'Arial'">8</text><text x="337.871" y="305.153" fill="#000" font-size="12" font-family="'Arial'"> </text><text x="341.205" y="305.153" fill="#000" font-size="12" textLength="33.352" font-family="'Arial'">(hasta</text><text x="374.557" y="305.153" fill="#000" font-size="12" font-family="'Arial'"> </text><text x="377.891" y="305.153" fill="#000" font-size="12" textLength="64.055" font-family="'Arial'">21/12/2026)</text></g><!--entity DF1--><g class="entity" data-qualified-name="Carril DevOps continuo .ci.yml..DF1" id="ent0008" data-source-line="21"><rect x="70.5" y="102.599" width="140.709" height="33.799" fill="#F1F1F1" style="stroke:#181818;stroke-width:0.5;" rx="2.5" ry="2.5"/><text x="80.5" y="123.854" fill="#000" font-size="12" textLength="32.01" font-family="'Arial'">Rama</text><text x="112.51" y="123.854" fill="#000" font-size="12" font-family="'Arial'"> </text><text x="115.844" y="123.854" fill="#000" font-size="12" textLength="40.693" font-family="'Arial'">feature,</text><text x="156.537" y="123.854" fill="#000" font-size="12" font-family="'Arial'"> </text><text x="159.871" y="123.854" fill="#000" font-size="12" textLength="16.67" font-family="'Arial'">PR</text><text x="176.541" y="123.854" fill="#000" font-size="12" font-family="'Arial'"> </text><text x="179.875" y="123.854" fill="#000" font-size="12" font-family="'Arial'">y</text><text x="185.875" y="123.854" fill="#000" font-size="12" font-family="'Arial'"> </text><text x="189.209" y="123.854" fill="#000" font-size="12" textLength="12" font-family="'Arial'">CI</text></g><!--entity DF3--><g class="entity" data-qualified-name="Carril DevOps continuo .ci.yml..DF3" id="ent0009" data-source-line="22"><rect x="74" y="193.099" width="122.023" height="33.799" fill="#F1F1F1" style="stroke:#181818;stroke-width:0.5;" rx="2.5" ry="2.5"/><text x="84" y="214.354" fill="#000" font-size="12" textLength="22.008" font-family="'Arial'">Ruff</text><text x="106.008" y="214.354" fill="#000" font-size="12" font-family="'Arial'"> </text><text x="109.342" y="214.354" fill="#000" font-size="12" textLength="19.336" font-family="'Arial'">(lint</text><text x="128.678" y="214.354" fill="#000" font-size="12" font-family="'Arial'"> </text><text x="132.012" y="214.354" fill="#000" font-size="12" font-family="'Arial'">y</text><text x="138.012" y="214.354" fill="#000" font-size="12" font-family="'Arial'"> </text><text x="141.346" y="214.354" fill="#000" font-size="12" textLength="44.678" font-family="'Arial'">formato)</text></g><!--entity DF4--><g class="entity" data-qualified-name="Carril DevOps continuo .ci.yml..DF4" id="ent0010" data-source-line="23"><rect x="43" y="277.099" width="164.398" height="33.799" fill="#F1F1F1" style="stroke:#181818;stroke-width:0.5;" rx="2.5" ry="2.5"/><text x="53" y="298.354" fill="#000" font-size="12" textLength="32.016" font-family="'Arial'">pytest</text><text x="85.016" y="298.354" fill="#000" font-size="12" font-family="'Arial'"> </text><text x="88.35" y="298.354" fill="#000" font-size="12" font-family="'Arial'">+</text><text x="95.357" y="298.354" fill="#000" font-size="12" font-family="'Arial'"> </text><text x="98.691" y="298.354" fill="#000" font-size="12" textLength="50.695" font-family="'Arial'">cobertura</text><text x="149.387" y="298.354" fill="#000" font-size="12" font-family="'Arial'"> </text><text x="152.721" y="298.354" fill="#000" font-size="12" textLength="44.678" font-family="'Arial'">(SQLite)</text></g><!--entity DF5--><g class="entity" data-qualified-name="Carril DevOps continuo .ci.yml..DF5" id="ent0011" data-source-line="24"><rect x="30.5" y="395.599" width="181.438" height="33.799" fill="#F1F1F1" style="stroke:#181818;stroke-width:0.5;" rx="2.5" ry="2.5"/><text x="40.5" y="416.854" fill="#000" font-size="12" textLength="59.373" font-family="'Arial'">Integración</text><text x="99.873" y="416.854" fill="#000" font-size="12" font-family="'Arial'"> </text><text x="103.207" y="416.854" fill="#000" font-size="12" textLength="13.348" font-family="'Arial'">en</text><text x="116.555" y="416.854" fill="#000" font-size="12" font-family="'Arial'"> </text><text x="119.889" y="416.854" fill="#000" font-size="12" textLength="65.367" font-family="'Arial'">PostgreSQL</text><text x="185.256" y="416.854" fill="#000" font-size="12" font-family="'Arial'"> </text><text x="188.59" y="416.854" fill="#000" font-size="12" textLength="13.348" font-family="'Arial'">16</text></g><!--entity DF6--><g class="entity" data-qualified-name="Carril DevOps continuo .ci.yml..DF6" id="ent0012" data-source-line="25"><rect x="66.5" y="479.099" width="109.361" height="33.799" fill="#F1F1F1" style="stroke:#181818;stroke-width:0.5;" rx="2.5" ry="2.5"/><text x="76.5" y="500.354" fill="#000" font-size="12" textLength="22.682" font-family="'Arial'">E2E</text><text x="99.182" y="500.354" fill="#000" font-size="12" font-family="'Arial'"> </text><text x="102.516" y="500.354" fill="#000" font-size="12" textLength="63.346" font-family="'Arial'">(Playwright)</text></g><!--entity DF7--><g class="entity" data-qualified-name="Carril DevOps continuo .ci.yml..DF7" id="ent0013" data-source-line="26"><rect x="41" y="549.099" width="160.08" height="33.799" fill="#F1F1F1" style="stroke:#181818;stroke-width:0.5;" rx="2.5" ry="2.5"/><text x="51" y="570.354" fill="#000" font-size="12" textLength="40.025" font-family="'Arial'">Imagen</text><text x="91.025" y="570.354" fill="#000" font-size="12" font-family="'Arial'"> </text><text x="94.359" y="570.354" fill="#000" font-size="12" textLength="38.01" font-family="'Arial'">Docker</text><text x="132.369" y="570.354" fill="#000" font-size="12" font-family="'Arial'"> </text><text x="135.703" y="570.354" fill="#000" font-size="12" textLength="13.348" font-family="'Arial'">de</text><text x="149.051" y="570.354" fill="#000" font-size="12" font-family="'Arial'"> </text><text x="152.385" y="570.354" fill="#000" font-size="12" textLength="38.695" font-family="'Arial'">staging</text></g><!--entity MLO1--><g class="entity" data-qualified-name="Subciclo MLOps .desde INC-5..MLO1" id="ent0020" data-source-line="35"><rect x="648.5" y="102.599" width="140.732" height="33.799" fill="#F1F1F1" style="stroke:#181818;stroke-width:0.5;" rx="2.5" ry="2.5"/><text x="658.5" y="123.854" fill="#000" font-size="12" textLength="31.348" font-family="'Arial'">Datos</text><text x="689.848" y="123.854" fill="#000" font-size="12" font-family="'Arial'"> </text><text x="693.182" y="123.854" fill="#000" font-size="12" font-family="'Arial'">y</text><text x="699.182" y="123.854" fill="#000" font-size="12" font-family="'Arial'"> </text><text x="702.516" y="123.854" fill="#000" font-size="12" textLength="76.717" font-family="'Arial'">entrenamiento</text></g><!--entity MLO2--><g class="entity" data-qualified-name="Subciclo MLOps .desde INC-5..MLO2" id="ent0021" data-source-line="36"><rect x="661" y="193.099" width="116.053" height="33.799" fill="#F1F1F1" style="stroke:#181818;stroke-width:0.5;" rx="2.5" ry="2.5"/><text x="671" y="214.354" fill="#000" font-size="12" textLength="58.705" font-family="'Arial'">Evaluación</text><text x="729.705" y="214.354" fill="#000" font-size="12" font-family="'Arial'"> </text><text x="733.039" y="214.354" fill="#000" font-size="12" textLength="34.014" font-family="'Arial'">clínica</text></g><!--entity MLO3--><g class="entity" data-qualified-name="Subciclo MLOps .desde INC-5..MLO3" id="ent0022" data-source-line="37"><rect x="678.5" y="277.099" width="81.371" height="33.799" fill="#F1F1F1" style="stroke:#181818;stroke-width:0.5;" rx="2.5" ry="2.5"/><text x="688.5" y="298.354" fill="#000" font-size="12" textLength="61.371" font-family="'Arial'">Publicación</text></g><!--entity MLO4--><g class="entity" data-qualified-name="Subciclo MLOps .desde INC-5..MLO4" id="ent0023" data-source-line="38"><rect x="682.5" y="395.599" width="73.361" height="33.799" fill="#F1F1F1" style="stroke:#181818;stroke-width:0.5;" rx="2.5" ry="2.5"/><text x="692.5" y="416.854" fill="#000" font-size="12" textLength="53.361" font-family="'Arial'">Monitoreo</text></g><!--entity NO1--><g class="entity" data-qualified-name="Descartados como modelo .nico .Tabla 8. puntaje sobre 30..NO1" id="ent0028" data-source-line="45"><rect x="274" y="388.599" width="138.066" height="47.598" fill="#F1F1F1" style="stroke:#181818;stroke-width:0.5;" rx="2.5" ry="2.5"/><text x="284" y="409.854" fill="#000" font-size="12" textLength="47.361" font-family="'Arial'">Cascada</text><text x="331.361" y="409.854" fill="#000" font-size="12" font-family="'Arial'"> </text><text x="334.695" y="409.854" fill="#000" font-size="12" textLength="27.352" font-family="'Arial'">pura:</text><text x="362.047" y="409.854" fill="#000" font-size="12" font-family="'Arial'"> </text><text x="365.381" y="409.854" fill="#000" font-size="12" textLength="23.355" font-family="'Arial'">8/30</text><text x="284" y="423.653" fill="#000" font-size="12" textLength="44.701" font-family="'Arial'">Congela</text><text x="328.701" y="423.653" fill="#000" font-size="12" font-family="'Arial'"> </text><text x="332.035" y="423.653" fill="#000" font-size="12" textLength="15.34" font-family="'Arial'">los</text><text x="347.375" y="423.653" fill="#000" font-size="12" font-family="'Arial'"> </text><text x="350.709" y="423.653" fill="#000" font-size="12" textLength="51.357" font-family="'Arial'">requisitos</text></g><!--entity NO2--><g class="entity" data-qualified-name="Descartados como modelo .nico .Tabla 8. puntaje sobre 30..NO2" id="ent0029" data-source-line="46"><rect x="430" y="382.099" width="170.076" height="61.396" fill="#F1F1F1" style="stroke:#181818;stroke-width:0.5;" rx="2.5" ry="2.5"/><text x="440" y="403.354" fill="#000" font-size="12" textLength="34.67" font-family="'Arial'">Scrum</text><text x="474.67" y="403.354" fill="#000" font-size="12" font-family="'Arial'"> </text><text x="478.004" y="403.354" fill="#000" font-size="12" textLength="17.344" font-family="'Arial'">por</text><text x="495.348" y="403.354" fill="#000" font-size="12" font-family="'Arial'"> </text><text x="498.682" y="403.354" fill="#000" font-size="12" textLength="9.334" font-family="'Arial'">sí</text><text x="508.016" y="403.354" fill="#000" font-size="12" font-family="'Arial'"> </text><text x="511.35" y="403.354" fill="#000" font-size="12" textLength="25.348" font-family="'Arial'">solo:</text><text x="536.697" y="403.354" fill="#000" font-size="12" font-family="'Arial'"> </text><text x="540.031" y="403.354" fill="#000" font-size="12" textLength="30.029" font-family="'Arial'">27/30</text><text x="440" y="417.153" fill="#000" font-size="12" textLength="15.34" font-family="'Arial'">No</text><text x="455.34" y="417.153" fill="#000" font-size="12" font-family="'Arial'"> </text><text x="458.674" y="417.153" fill="#000" font-size="12" textLength="32.695" font-family="'Arial'">define</text><text x="491.369" y="417.153" fill="#000" font-size="12" font-family="'Arial'"> </text><text x="494.703" y="417.153" fill="#000" font-size="12" textLength="29.344" font-family="'Arial'">cómo</text><text x="524.047" y="417.153" fill="#000" font-size="12" font-family="'Arial'"> </text><text x="527.381" y="417.153" fill="#000" font-size="12" textLength="62.695" font-family="'Arial'">automatizar</text><text x="440" y="430.952" fill="#000" font-size="12" textLength="9.34" font-family="'Arial'">la</text><text x="449.34" y="430.952" fill="#000" font-size="12" font-family="'Arial'"> </text><text x="452.674" y="430.952" fill="#000" font-size="12" textLength="40.699" font-family="'Arial'">entrega</text></g><!--entity DEC1--><g class="entity" data-qualified-name="Decisi.n ponderada .Tabla 9..DEC1" id="ent0031" data-source-line="50"><rect x="32.5" y="647.099" width="177.055" height="61.396" fill="#90EE90" style="stroke:#181818;stroke-width:0.5;" rx="2.5" ry="2.5"/><text x="42.5" y="668.354" fill="#000" font-size="12" textLength="17.338" font-family="'Arial'">Alt.</text><text x="59.838" y="668.354" fill="#000" font-size="12" font-family="'Arial'"> </text><text x="63.172" y="668.354" fill="#000" font-size="12" font-family="'Arial'">1</text><text x="69.846" y="668.354" fill="#000" font-size="12" font-family="'Arial'"> </text><text x="73.18" y="668.354" fill="#000" font-size="12" textLength="50.027" font-family="'Arial'">(elegida):</text><text x="123.207" y="668.354" fill="#000" font-size="12" font-family="'Arial'"> </text><text x="126.541" y="668.354" fill="#000" font-size="12" textLength="23.355" font-family="'Arial'">4,75</text><text x="42.5" y="682.153" fill="#000" font-size="12" textLength="108.709" font-family="'Arial'">Iterativo-incremental</text><text x="151.209" y="682.153" fill="#000" font-size="12" font-family="'Arial'"> </text><text x="154.543" y="682.153" fill="#000" font-size="12" font-family="'Arial'">+</text><text x="161.551" y="682.153" fill="#000" font-size="12" font-family="'Arial'"> </text><text x="164.885" y="682.153" fill="#000" font-size="12" textLength="34.67" font-family="'Arial'">Scrum</text><text x="42.5" y="695.952" fill="#000" font-size="12" font-family="'Arial'">+</text><text x="49.508" y="695.952" fill="#000" font-size="12" font-family="'Arial'"> </text><text x="52.842" y="695.952" fill="#000" font-size="12" textLength="43.348" font-family="'Arial'">DevOps</text><text x="96.189" y="695.952" fill="#000" font-size="12" font-family="'Arial'"> </text><text x="99.523" y="695.952" fill="#000" font-size="12" font-family="'Arial'">+</text><text x="106.531" y="695.952" fill="#000" font-size="12" font-family="'Arial'"> </text><text x="109.865" y="695.952" fill="#000" font-size="12" textLength="38.678" font-family="'Arial'">MLOps</text></g><!--entity DEC2--><g class="entity" data-qualified-name="Decisi.n ponderada .Tabla 9..DEC2" id="ent0032" data-source-line="51"><rect x="228" y="647.099" width="162.102" height="61.396" fill="#F1F1F1" style="stroke:#181818;stroke-width:0.5;" rx="2.5" ry="2.5"/><text x="238" y="668.354" fill="#000" font-size="12" textLength="17.338" font-family="'Arial'">Alt.</text><text x="255.338" y="668.354" fill="#000" font-size="12" font-family="'Arial'"> </text><text x="258.672" y="668.354" fill="#000" font-size="12" textLength="10.008" font-family="'Arial'">2:</text><text x="268.68" y="668.354" fill="#000" font-size="12" font-family="'Arial'"> </text><text x="272.014" y="668.354" fill="#000" font-size="12" textLength="23.355" font-family="'Arial'">3,85</text><text x="238" y="682.153" fill="#000" font-size="12" textLength="26.01" font-family="'Arial'">Flujo</text><text x="264.01" y="682.153" fill="#000" font-size="12" font-family="'Arial'"> </text><text x="267.344" y="682.153" fill="#000" font-size="12" textLength="45.369" font-family="'Arial'">continuo</text><text x="312.713" y="682.153" fill="#000" font-size="12" font-family="'Arial'"> </text><text x="316.047" y="682.153" fill="#000" font-size="12" textLength="19.348" font-family="'Arial'">con</text><text x="335.395" y="682.153" fill="#000" font-size="12" font-family="'Arial'"> </text><text x="338.729" y="682.153" fill="#000" font-size="12" textLength="41.373" font-family="'Arial'">Kanban</text><text x="238" y="695.952" fill="#000" font-size="12" font-family="'Arial'">+</text><text x="245.008" y="695.952" fill="#000" font-size="12" font-family="'Arial'"> </text><text x="248.342" y="695.952" fill="#000" font-size="12" textLength="43.348" font-family="'Arial'">DevOps</text><text x="291.689" y="695.952" fill="#000" font-size="12" font-family="'Arial'"> </text><text x="295.023" y="695.952" fill="#000" font-size="12" font-family="'Arial'">+</text><text x="302.031" y="695.952" fill="#000" font-size="12" font-family="'Arial'"> </text><text x="305.365" y="695.952" fill="#000" font-size="12" textLength="47.355" font-family="'Arial'">DataOps</text></g><!--entity DEC3--><g class="entity" data-qualified-name="Decisi.n ponderada .Tabla 9..DEC3" id="ent0033" data-source-line="52"><rect x="408.5" y="647.099" width="133.051" height="61.396" fill="#F1F1F1" style="stroke:#181818;stroke-width:0.5;" rx="2.5" ry="2.5"/><text x="418.5" y="668.354" fill="#000" font-size="12" textLength="17.338" font-family="'Arial'">Alt.</text><text x="435.838" y="668.354" fill="#000" font-size="12" font-family="'Arial'"> </text><text x="439.172" y="668.354" fill="#000" font-size="12" textLength="10.008" font-family="'Arial'">3:</text><text x="449.18" y="668.354" fill="#000" font-size="12" font-family="'Arial'"> </text><text x="452.514" y="668.354" fill="#000" font-size="12" textLength="23.355" font-family="'Arial'">2,95</text><text x="418.5" y="682.153" fill="#000" font-size="12" textLength="62.695" font-family="'Arial'">Incremental</text><text x="481.195" y="682.153" fill="#000" font-size="12" font-family="'Arial'"> </text><text x="484.529" y="682.153" fill="#000" font-size="12" font-family="'Arial'">+</text><text x="491.537" y="682.153" fill="#000" font-size="12" font-family="'Arial'"> </text><text x="494.871" y="682.153" fill="#000" font-size="12" textLength="36.68" font-family="'Arial'">Espiral</text><text x="418.5" y="695.952" fill="#000" font-size="12" textLength="15.34" font-family="'Arial'">sin</text><text x="433.84" y="695.952" fill="#000" font-size="12" font-family="'Arial'"> </text><text x="437.174" y="695.952" fill="#000" font-size="12" textLength="80.713" font-family="'Arial'">automatización</text></g><g class="link" data-entity-1="ent0002" data-entity-2="ent0003" id="lnk5" data-link-type="dependency"><polygon points="353.475,185.882,357.271,176.794,353.362,180.884,349.273,176.975,353.475,185.882" fill="#181818" style="stroke:#181818;stroke-width:1;stroke-linejoin:miter;stroke-miterlimit:10;"/><path d="M352.677,150.561 C352.938,162.094 353.118,170.08 353.362,180.884" style="stroke:#181818;stroke-width:1;" fill="none"/></g><g class="link" data-entity-1="ent0003" data-entity-2="ent0004" id="lnk6" data-link-type="dependency"><polygon points="355.438,270.046,359.217,260.951,355.316,265.047,351.219,261.146,355.438,270.046" fill="#181818" style="stroke:#181818;stroke-width:1;stroke-linejoin:miter;stroke-miterlimit:10;"/><path d="M354.568,234.377 C354.84,245.552 355.044,253.902 355.316,265.047" style="stroke:#181818;stroke-width:1;" fill="none"/></g><g class="link" data-entity-1="ent0008" data-entity-2="ent0009" id="lnk14" data-link-type="dependency"><polygon points="136.094,192.969,140.693,184.26,136.432,187.981,132.711,183.719,136.094,192.969" fill="#181818" style="stroke:#181818;stroke-width:1;stroke-linejoin:miter;stroke-miterlimit:10;"/><path d="M139.9,136.831 C138.817,152.799 137.512,172.048 136.432,187.981" style="stroke:#181818;stroke-width:1;" fill="none"/></g><g class="link" data-entity-1="ent0009" data-entity-2="ent0010" id="lnk15" data-link-type="dependency"><polygon points="126.972,276.932,132.032,268.482,127.577,271.968,124.09,267.514,126.972,276.932" fill="#181818" style="stroke:#181818;stroke-width:1;stroke-linejoin:miter;stroke-miterlimit:10;"/><path d="M133.024,227.299 C131.271,241.675 129.329,257.603 127.577,271.968" style="stroke:#181818;stroke-width:1;" fill="none"/></g><g class="link" data-entity-1="ent0010" data-entity-2="ent0011" id="lnk16" data-link-type="dependency"><polygon points="121.551,395.537,125.858,386.68,121.723,390.54,117.863,386.405,121.551,395.537" fill="#181818" style="stroke:#181818;stroke-width:1;stroke-linejoin:miter;stroke-miterlimit:10;"/><path d="M124.444,311.297 C123.68,333.555 122.485,368.355 121.723,390.54" style="stroke:#181818;stroke-width:1;" fill="none"/></g><g class="link" data-entity-1="ent0011" data-entity-2="ent0012" id="lnk17" data-link-type="dependency"><polygon points="121,479.03,125,470.03,121,474.03,117,470.03,121,479.03" fill="#181818" style="stroke:#181818;stroke-width:1;stroke-linejoin:miter;stroke-miterlimit:10;"/><path d="M121,429.7 C121,443.988 121,459.752 121,474.03" style="stroke:#181818;stroke-width:1;" fill="none"/></g><g class="link" data-entity-1="ent0012" data-entity-2="ent0013" id="lnk18" data-link-type="dependency"><polygon points="121,548.627,125,539.627,121,543.627,117,539.627,121,548.627" fill="#181818" style="stroke:#181818;stroke-width:1;stroke-linejoin:miter;stroke-miterlimit:10;"/><path d="M121,513.214 C121,523.896 121,532.872 121,543.627" style="stroke:#181818;stroke-width:1;" fill="none"/></g><g class="link" data-entity-1="ent0020" data-entity-2="ent0021" id="lnk24" data-link-type="dependency"><polygon points="719,192.969,723,183.969,719,187.969,715,183.969,719,192.969" fill="#181818" style="stroke:#181818;stroke-width:1;stroke-linejoin:miter;stroke-miterlimit:10;"/><path d="M719,136.831 C719,152.799 719,172.037 719,187.969" style="stroke:#181818;stroke-width:1;stroke-dasharray:7,7;" fill="none"/></g><g class="link" data-entity-1="ent0021" data-entity-2="ent0022" id="lnk25" data-link-type="dependency"><polygon points="719,276.932,723,267.932,719,271.932,715,267.932,719,276.932" fill="#181818" style="stroke:#181818;stroke-width:1;stroke-linejoin:miter;stroke-miterlimit:10;"/><path d="M719,227.299 C719,241.675 719,257.566 719,271.932" style="stroke:#181818;stroke-width:1;stroke-dasharray:7,7;" fill="none"/></g><g class="link" data-entity-1="ent0022" data-entity-2="ent0023" id="lnk26" data-link-type="dependency"><polygon points="719,395.537,723,386.537,719,390.537,715,386.537,719,395.537" fill="#181818" style="stroke:#181818;stroke-width:1;stroke-linejoin:miter;stroke-miterlimit:10;"/><path d="M719,311.297 C719,333.555 719,368.352 719,390.537" style="stroke:#181818;stroke-width:1;stroke-dasharray:7,7;" fill="none"/></g><?plantuml-src VLPDR-Cs4BthLqoJGsNKNw9inqw11H9R1e9kqdHJj8UwA6Y9LhYXI9MYR7YB_g0UzhItNlt7EgIaZIq7zS7sKCCtCszc7lGjB4ic3IkkuKvkbCuOS3HJJHEbuMUw5hI0AUnX1luJQGv2F9XqkfK9mGJy8jTuhy2pcFVtcV2-oJLDCmg2xbLfeCYOeP9wnGkNETKqWpMDNrAjIfdCbS1ObqltEV98s8QMmYoLD0yK4xkuqPoAYxSzdlWd1W4vUhZJDF-L9-OPo6XuT2vLmWgM0naV7MegN-nXEFGymurWCEUnK1W1jZoXG1EQ6-Ja6hXXcXg-LJqkOyqoP8yA-0wUObrc-BjWsn_p0l_SlyTVpyknJffYzdUDkoh0RvZhNC1b52x9SW5_UG2QnKXJAgpxmxmNhEHJHIm4I3a1VnZqo7Gmd0t8a4mwAnb9erdg4ji6_M7lyVwN2y0EuUq0Bc_6YydDrJakGJ3Blr0fcCC_iUInQa9XStqomn2zW0o2OQU18t1vUxk8bhVdS25Gwz6RlAOxmgCf-C-qC1H8C40ibt635XwXkLnxlNSkIcMJnWwzluyed5EjkMWeZh7jN9OA_6hcB9SuGRFvgCtb1ugJk67Kb9fruV43bZ-_Swaiba7BjTnim1UMY3tOXQ16TMhNyDGrt-FU6EnqhDPC8pR57VdfFGv8Ss7KughQh9WVlaXW4XvLOLBDy0vEGdrbV7eb8X7uZxX4EytJPzC0Jrh06T8ZOQ7Y5wRjp2BhAPTfxMqd00jrd5PLu7TjZPmrggsniyQrDN7MfBQkJbhnLAvZjo5kpC77dSAuTWh6hWzXD4QSLXyMr0x_7cl7gPKqutORN9A8qcf4jAMYhBcAnU4ppYXjNCcfwsEv5lZK-JOkhLxTAycDqknhD5kt3Ghz_hi6qluqTbZPOMEFJgfVi2AcsWg27SDCGOQYWcGS_hMhrAptj0jvYVBm4HkYrfgXkbGpEbyiI9kREKL8L9eSv-WQfeDmk99p9LE6G0B3QFPdoGiied0bFBJvglGdHoKj3fynda1985SEvi7gs8PB1l7X2oPBIwDmhladgbSIuLab8ZKkQLKQOrJRX5p91AKFKwpBczbYvjDeCf-rYxaHfe-IvJF1KfJFpZMCkbVZbRpxF_5SoRPwLlCRMIcR3QDeDdmZ2hc6i3j5xAKeFwfNKS0_y0ELQofFS744wH4oUGCnHEAwCvljIOvHaNDDnKeMN1vH-3fr2EVagjAptvvvaZ3vkzjRjq21vvQm_S2DFhRp_8djXQl-7CncRh_UV1HwJc6_FahKJZeucy7LsRaDuNbI6GPhPR0kvAHwAtZhfQ1xzbRGFNqj-1xoRFl7nYf_pWVzb9ldSZtOAVso4MfN3EeN12OJi36z_m00?></g></svg>