<svg xmlns="http://www.w3.org/2000/svg" xmlns:xlink="http://www.w3.org/1999/xlink" version="1.1" data-diagram-type="DESCRIPTION" style="width:895px;height:798px;background:#FFFFFF;" width="895px" height="798px" viewBox="0 0 895 798" zoomAndPan="magnify" preserveAspectRatio="none" contentStyleType="text/css"><?plantuml 1.2026.8?><defs/><g font-family="sans-serif" lengthAdjust="spacing"><g class="title" data-source-line="10"><text x="198.737" y="23.132" fill="#000" font-size="14" textLength="490.526" font-weight="700" font-family="'Arial'">Ciclo de vida adaptado: iterativo-incremental + Scrum + DevOps + MLOps</text></g><!--cluster Incrementos (Tabla 16)--><g class="cluster" data-qualified-name="Incrementos .Tabla 16." id="ent0001" data-source-line="12"><path d="M311.5,49.099 L443.205,49.099 A3.75,3.75 0 0 1 445.705,51.599 L452.705,68.897 L530.5,68.897 A2.5,2.5 0 0 1 533,71.397 L533,331.599 A2.5,2.5 0 0 1 530.5,334.099 L311.5,334.099 A2.5,2.5 0 0 1 309,331.599 L309,51.599 A2.5,2.5 0 0 1 311.5,49.099" style="stroke:#000;stroke-width:1.5;" fill="#E3F2FD"/><line x1="309" y1="68.897" x2="452.705" y2="68.897" style="stroke:#000;stroke-width:1.5;"/><text x="313" y="62.354" fill="#000" font-size="12" textLength="130.705" font-weight="700" font-family="'Arial'">Incrementos (Tabla 16)</text></g><!--cluster Carril DevOps continuo (integración continua)--><g class="cluster" data-qualified-name="Carril DevOps continuo .integraci.n continua." id="ent0007" data-source-line="20"><path d="M16.5,62.599 L280.855,62.599 A3.75,3.75 0 0 1 283.355,65.099 L290.355,82.397 L290.5,82.397 A2.5,2.5 0 0 1 293,84.897 L293,596.599 A2.5,2.5 0 0 1 290.5,599.099 L16.5,599.099 A2.5,2.5 0 0 1 14,596.599 L14,65.099 A2.5,2.5 0 0 1 16.5,62.599" style="stroke:#000;stroke-width:1.5;" fill="#FFF9C4"/><line x1="14" y1="82.397" x2="290.355" y2="82.397" style="stroke:#000;stroke-width:1.5;"/><text x="18" y="75.854" fill="#000" font-size="12" textLength="263.355" font-weight="700" font-family="'Arial'">Carril DevOps continuo (integración continua)</text></g><!--cluster Subciclo MLOps (desde INC-5)--><g class="cluster" data-qualified-name="Subciclo MLOps .desde INC-5." id="ent0019" data-source-line="34"><path d="M699.5,62.599 L875.186,62.599 A3.75,3.75 0 0 1 877.686,65.099 L884.686,82.397 L884.5,82.397 A2.5,2.5 0 0 1 887,84.897 L887,443.099 A2.5,2.5 0 0 1 884.5,445.599 L699.5,445.599 A2.5,2.5 0 0 1 697,443.099 L697,65.099 A2.5,2.5 0 0 1 699.5,62.599" style="stroke:#000;stroke-width:1.5;" fill="#F3E5F5"/><line x1="697" y1="82.397" x2="884.686" y2="82.397" style="stroke:#000;stroke-width:1.5;"/><text x="701" y="75.854" fill="#000" font-size="12" textLength="174.686" font-weight="700" font-family="'Arial'">Subciclo MLOps (desde INC-5)</text></g><!--cluster Descartados como modelo único (Tabla 8, puntaje sobre 30)--><g class="cluster" data-qualified-name="Descartados como modelo .nico .Tabla 8. puntaje sobre 30." id="ent0027" data-source-line="44"><path d="M324.5,342.099 L668.912,342.099 A3.75,3.75 0 0 1 671.412,344.599 L678.412,361.897 L678.5,361.897 A2.5,2.5 0 0 1 681,364.397 L681,456.599 A2.5,2.5 0 0 1 678.5,459.099 L324.5,459.099 A2.5,2.5 0 0 1 322,456.599 L322,344.599 A2.5,2.5 0 0 1 324.5,342.099" style="stroke:#000;stroke-width:1.5;" fill="#FFCDD2"/><line x1="322" y1="361.897" x2="678.412" y2="361.897" style="stroke:#000;stroke-width:1.5;"/><text x="326" y="355.354" fill="#000" font-size="12" textLength="343.412" font-weight="700" font-family="'Arial'">Descartados como modelo único (Tabla 8, puntaje sobre 30)</text></g><!--cluster Decisión ponderada (Tabla 9)--><g class="cluster" data-qualified-name="Decisi.n ponderada .Tabla 9." id="ent0030" data-source-line="49"><path d="M83.5,607.099 L251.867,607.099 A3.75,3.75 0 0 1 254.367,609.599 L261.367,626.897 L620.5,626.897 A2.5,2.5 0 0 1 623,629.397 L623,721.599 A2.5,2.5 0 0 1 620.5,724.099 L83.5,724.099 A2.5,2.5 0 0 1 81,721.599 L81,609.599 A2.5,2.5 0 0 1 83.5,607.099" style="stroke:#000;stroke-width:1.5;" fill="#C8E6C9"/><line x1="81" y1="626.897" x2="261.367" y2="626.897" style="stroke:#000;stroke-width:1.5;"/><text x="85" y="620.354" fill="#000" font-size="12" textLength="167.367" font-weight="700" font-family="'Arial'">Decisión ponderada (Tabla 9)</text></g><g class="entity" data-qualified-name="GMN41" id="ent0042" data-source-line="64"><path d="M412,744.099 L412,781.696 A0,0 0 0 0 412,781.696 L667.809,781.696 A0,0 0 0 0 667.809,781.696 L667.809,754.099 L657.809,744.099 L544,744.099 L540,708.273 L536,744.099 L412,744.099 A0,0 0 0 0 412,744.099" style="stroke:#181818;stroke-width:0.5;" fill="#FEFFDD"/><path d="M657.809,744.099 L657.809,754.099 L667.809,754.099 L657.809,744.099" style="stroke:#181818;stroke-width:0.5;" fill="#FEFFDD"/><text x="418" y="760.354" fill="#000" font-size="12" textLength="40.693" font-family="'Arial'">Fuente:</text><text x="458.693" y="760.354" fill="#000" font-size="12" font-family="'Arial'"> </text><text x="462.027" y="760.354" fill="#000" font-size="12" textLength="62.045" font-family="'Arial'">elaboración</text><text x="524.072" y="760.354" fill="#000" font-size="12" font-family="'Arial'"> </text><text x="527.406" y="760.354" fill="#000" font-size="12" textLength="33.357" font-family="'Arial'">propia</text><text x="560.764" y="760.354" fill="#000" font-size="12" font-family="'Arial'"> </text><text x="564.098" y="760.354" fill="#000" font-size="12" textLength="40.014" font-family="'Arial'">(Tablas</text><text x="604.111" y="760.354" fill="#000" font-size="12" font-family="'Arial'"> </text><text x="607.445" y="760.354" fill="#000" font-size="12" font-family="'Arial'">8</text><text x="614.119" y="760.354" fill="#000" font-size="12" font-family="'Arial'"> </text><text x="617.453" y="760.354" fill="#000" font-size="12" font-family="'Arial'">y</text><text x="623.453" y="760.354" fill="#000" font-size="12" font-family="'Arial'"> </text><text x="626.787" y="760.354" fill="#000" font-size="12" font-family="'Arial'">9</text><text x="633.461" y="760.354" fill="#000" font-size="12" font-family="'Arial'"> </text><text x="636.795" y="760.354" fill="#000" font-size="12" textLength="16.014" font-family="'Arial'">del</text><text x="418" y="774.153" fill="#000" font-size="12" textLength="47.344" font-family="'Arial'">informe).</text></g><!--entity INC1--><g class="entity" data-qualified-name="Incrementos .Tabla 16..INC1" id="ent0002" data-source-line="13"><rect x="329.5" y="89.099" width="175.426" height="61.396" fill="#A5D6A7" style="stroke:#181818;stroke-width:0.5;" rx="2.5" ry="2.5"/><text x="339.5" y="110.354" fill="#000" font-size="12" textLength="31.336" font-family="'Arial'">INC-1</text><text x="339.5" y="124.153" fill="#000" font-size="12" textLength="37.348" font-family="'Arial'">Sprints</text><text x="376.848" y="124.153" fill="#000" font-size="12" font-family="'Arial'"> </text><text x="380.182" y="124.153" fill="#000" font-size="12" font-family="'Arial'">1</text><text x="386.855" y="124.153" fill="#000" font-size="12" font-family="'Arial'"> </text><text x="390.189" y="124.153" fill="#000" font-size="12" font-family="'Arial'">y</text><text x="396.189" y="124.153" fill="#000" font-size="12" font-family="'Arial'"> </text><text x="399.523" y="124.153" fill="#000" font-size="12" font-family="'Arial'">2</text><text x="406.197" y="124.153" fill="#000" font-size="12" font-family="'Arial'"> </text><text x="409.531" y="124.153" fill="#000" font-size="12" textLength="85.395" font-family="'Arial'">(01-28/09/2026)</text><text x="339.5" y="137.952" fill="#000" font-size="12" textLength="58.711" font-family="'Arial'">Entregado:</text><text x="398.211" y="137.952" fill="#000" font-size="12" font-family="'Arial'"> </text><text x="401.545" y="137.952" fill="#000" font-size="12" textLength="52.682" font-family="'Arial'">v1.0-PMV</text></g><!--entity INC2--><g class="entity" data-qualified-name="Incrementos .Tabla 16..INC2" id="ent0003" data-source-line="14"><rect x="345.5" y="186.099" width="146.721" height="47.598" fill="#BBDEFB" style="stroke:#181818;stroke-width:0.5;" rx="2.5" ry="2.5"/><text x="355.5" y="207.354" fill="#000" font-size="12" textLength="31.336" font-family="'Arial'">INC-2</text><text x="386.836" y="207.354" fill="#000" font-size="12" font-family="'Arial'"> </text><text x="390.17" y="207.354" fill="#000" font-size="12" font-family="'Arial'">y</text><text x="396.17" y="207.354" fill="#000" font-size="12" font-family="'Arial'"> </text><text x="399.504" y="207.354" fill="#000" font-size="12" textLength="41.361" font-family="'Arial'">backlog</text><text x="440.865" y="207.354" fill="#000" font-size="12" font-family="'Arial'"> </text><text x="444.199" y="207.354" fill="#000" font-size="12" textLength="38.021" font-family="'Arial'">técnico</text><text x="355.5" y="221.153" fill="#000" font-size="12" textLength="31.348" font-family="'Arial'">Sprint</text><text x="386.848" y="221.153" fill="#000" font-size="12" font-family="'Arial'"> </text><text x="390.182" y="221.153" fill="#000" font-size="12" font-family="'Arial'">3</text><text x="396.855" y="221.153" fill="#000" font-size="12" font-family="'Arial'"> </text><text x="400.189" y="221.153" fill="#000" font-size="12" textLength="72.047" font-family="'Arial'">(29/09-12/10)</text></g><!--entity INC3--><g class="entity" data-qualified-name="Incrementos .Tabla 16..INC3" id="ent0004" data-source-line="15"><rect x="325.5" y="270.099" width="191.445" height="47.598" fill="#BBDEFB" style="stroke:#181818;stroke-width:0.5;" rx="2.5" ry="2.5"/><text x="335.5" y="291.354" fill="#000" font-size="12" textLength="31.336" font-family="'Arial'">INC-3</text><text x="366.836" y="291.354" fill="#000" font-size="12" font-family="'Arial'"> </text><text x="370.17" y="291.354" fill="#000" font-size="12" font-family="'Arial'">a</text><text x="376.844" y="291.354" fill="#000" font-size="12" font-family="'Arial'"> </text><text x="380.178" y="291.354" fill="#000" font-size="12" textLength="31.336" font-family="'Arial'">INC-6</text><text x="335.5" y="305.153" fill="#000" font-size="12" textLength="37.348" font-family="'Arial'">Sprints</text><text x="372.848" y="305.153" fill="#000" font-size="12" font-family="'Arial'"> </text><text x="376.182" y="305.153" fill="#000" font-size="12" font-family="'Arial'">4</text><text x="382.855" y="305.153" fill="#000" font-size="12" font-family="'Arial'"> </text><text x="386.189" y="305.153" fill="#000" font-size="12" font-family="'Arial'">a</text><text x="392.863" y="305.153" fill="#000" font-size="12" font-family="'Arial'"> </text><text x="396.197" y="305.153" fill="#000" font-size="12" font-family="'Arial'">8</text><text x="402.871" y="305.153" fill="#000" font-size="12" font-family="'Arial'"> </text><text x="406.205" y="305.153" fill="#000" font-size="12" textLength="33.352" font-family="'Arial'">(hasta</text><text x="439.557" y="305.153" fill="#000" font-size="12" font-family="'Arial'"> </text><text x="442.891" y="305.153" fill="#000" font-size="12" textLength="64.055" font-family="'Arial'">21/12/2026)</text></g><!--entity DF1--><g class="entity" data-qualified-name="Carril DevOps continuo .integraci.n continua..DF1" id="ent0008" data-source-line="21"><rect x="135.5" y="102.599" width="140.709" height="33.799" fill="#F1F1F1" style="stroke:#181818;stroke-width:0.5;" rx="2.5" ry="2.5"/><text x="145.5" y="123.854" fill="#000" font-size="12" textLength="32.01" font-family="'Arial'">Rama</text><text x="177.51" y="123.854" fill="#000" font-size="12" font-family="'Arial'"> </text><text x="180.844" y="123.854" fill="#000" font-size="12" textLength="40.693" font-family="'Arial'">feature,</text><text x="221.537" y="123.854" fill="#000" font-size="12" font-family="'Arial'"> </text><text x="224.871" y="123.854" fill="#000" font-size="12" textLength="16.67" font-family="'Arial'">PR</text><text x="241.541" y="123.854" fill="#000" font-size="12" font-family="'Arial'"> </text><text x="244.875" y="123.854" fill="#000" font-size="12" font-family="'Arial'">y</text><text x="250.875" y="123.854" fill="#000" font-size="12" font-family="'Arial'"> </text><text x="254.209" y="123.854" fill="#000" font-size="12" textLength="12" font-family="'Arial'">CI</text></g><!--entity DF3--><g class="entity" data-qualified-name="Carril DevOps continuo .integraci.n continua..DF3" id="ent0009" data-source-line="22"><rect x="139" y="193.099" width="122.023" height="33.799" fill="#F1F1F1" style="stroke:#181818;stroke-width:0.5;" rx="2.5" ry="2.5"/><text x="149" y="214.354" fill="#000" font-size="12" textLength="22.008" font-family="'Arial'">Ruff</text><text x="171.008" y="214.354" fill="#000" font-size="12" font-family="'Arial'"> </text><text x="174.342" y="214.354" fill="#000" font-size="12" textLength="19.336" font-family="'Arial'">(lint</text><text x="193.678" y="214.354" fill="#000" font-size="12" font-family="'Arial'"> </text><text x="197.012" y="214.354" fill="#000" font-size="12" font-family="'Arial'">y</text><text x="203.012" y="214.354" fill="#000" font-size="12" font-family="'Arial'"> </text><text x="206.346" y="214.354" fill="#000" font-size="12" textLength="44.678" font-family="'Arial'">formato)</text></g><!--entity DF4--><g class="entity" data-qualified-name="Carril DevOps continuo .integraci.n continua..DF4" id="ent0010" data-source-line="23"><rect x="108" y="277.099" width="164.398" height="33.799" fill="#F1F1F1" style="stroke:#181818;stroke-width:0.5;" rx="2.5" ry="2.5"/><text x="118" y="298.354" fill="#000" font-size="12" textLength="32.016" font-family="'Arial'">pytest</text><text x="150.016" y="298.354" fill="#000" font-size="12" font-family="'Arial'"> </text><text x="153.35" y="298.354" fill="#000" font-size="12" font-family="'Arial'">+</text><text x="160.357" y="298.354" fill="#000" font-size="12" font-family="'Arial'"> </text><text x="163.691" y="298.354" fill="#000" font-size="12" textLength="50.695" font-family="'Arial'">cobertura</text><text x="214.387" y="298.354" fill="#000" font-size="12" font-family="'Arial'"> </text><text x="217.721" y="298.354" fill="#000" font-size="12" textLength="44.678" font-family="'Arial'">(SQLite)</text></g><!--entity DF5--><g class="entity" data-qualified-name="Carril DevOps continuo .integraci.n continua..DF5" id="ent0011" data-source-line="24"><rect x="95.5" y="395.599" width="181.438" height="33.799" fill="#F1F1F1" style="stroke:#181818;stroke-width:0.5;" rx="2.5" ry="2.5"/><text x="105.5" y="416.854" fill="#000" font-size="12" textLength="59.373" font-family="'Arial'">Integración</text><text x="164.873" y="416.854" fill="#000" font-size="12" font-family="'Arial'"> </text><text x="168.207" y="416.854" fill="#000" font-size="12" textLength="13.348" font-family="'Arial'">en</text><text x="181.555" y="416.854" fill="#000" font-size="12" font-family="'Arial'"> </text><text x="184.889" y="416.854" fill="#000" font-size="12" textLength="65.367" font-family="'Arial'">PostgreSQL</text><text x="250.256" y="416.854" fill="#000" font-size="12" font-family="'Arial'"> </text><text x="253.59" y="416.854" fill="#000" font-size="12" textLength="13.348" font-family="'Arial'">16</text></g><!--entity DF6--><g class="entity" data-qualified-name="Carril DevOps continuo .integraci.n continua..DF6" id="ent0012" data-source-line="25"><rect x="131.5" y="479.099" width="109.361" height="33.799" fill="#F1F1F1" style="stroke:#181818;stroke-width:0.5;" rx="2.5" ry="2.5"/><text x="141.5" y="500.354" fill="#000" font-size="12" textLength="22.682" font-family="'Arial'">E2E</text><text x="164.182" y="500.354" fill="#000" font-size="12" font-family="'Arial'"> </text><text x="167.516" y="500.354" fill="#000" font-size="12" textLength="63.346" font-family="'Arial'">(Playwright)</text></g><!--entity DF7--><g class="entity" data-qualified-name="Carril DevOps continuo .integraci.n continua..DF7" id="ent0013" data-source-line="26"><rect x="106" y="549.099" width="160.08" height="33.799" fill="#F1F1F1" style="stroke:#181818;stroke-width:0.5;" rx="2.5" ry="2.5"/><text x="116" y="570.354" fill="#000" font-size="12" textLength="40.025" font-family="'Arial'">Imagen</text><text x="156.025" y="570.354" fill="#000" font-size="12" font-family="'Arial'"> </text><text x="159.359" y="570.354" fill="#000" font-size="12" textLength="38.01" font-family="'Arial'">Docker</text><text x="197.369" y="570.354" fill="#000" font-size="12" font-family="'Arial'"> </text><text x="200.703" y="570.354" fill="#000" font-size="12" textLength="13.348" font-family="'Arial'">de</text><text x="214.051" y="570.354" fill="#000" font-size="12" font-family="'Arial'"> </text><text x="217.385" y="570.354" fill="#000" font-size="12" textLength="38.695" font-family="'Arial'">staging</text></g><!--entity MLO1--><g class="entity" data-qualified-name="Subciclo MLOps .desde INC-5..MLO1" id="ent0020" data-source-line="35"><rect x="713.5" y="102.599" width="140.732" height="33.799" fill="#F1F1F1" style="stroke:#181818;stroke-width:0.5;" rx="2.5" ry="2.5"/><text x="723.5" y="123.854" fill="#000" font-size="12" textLength="31.348" font-family="'Arial'">Datos</text><text x="754.848" y="123.854" fill="#000" font-size="12" font-family="'Arial'"> </text><text x="758.182" y="123.854" fill="#000" font-size="12" font-family="'Arial'">y</text><text x="764.182" y="123.854" fill="#000" font-size="12" font-family="'Arial'"> </text><text x="767.516" y="123.854" fill="#000" font-size="12" textLength="76.717" font-family="'Arial'">entrenamiento</text></g><!--entity MLO2--><g class="entity" data-qualified-name="Subciclo MLOps .desde INC-5..MLO2" id="ent0021" data-source-line="36"><rect x="726" y="193.099" width="116.053" height="33.799" fill="#F1F1F1" style="stroke:#181818;stroke-width:0.5;" rx="2.5" ry="2.5"/><text x="736" y="214.354" fill="#000" font-size="12" textLength="58.705" font-family="'Arial'">Evaluación</text><text x="794.705" y="214.354" fill="#000" font-size="12" font-family="'Arial'"> </text><text x="798.039" y="214.354" fill="#000" font-size="12" textLength="34.014" font-family="'Arial'">clínica</text></g><!--entity MLO3--><g class="entity" data-qualified-name="Subciclo MLOps .desde INC-5..MLO3" id="ent0022" data-source-line="37"><rect x="743.5" y="277.099" width="81.371" height="33.799" fill="#F1F1F1" style="stroke:#181818;stroke-width:0.5;" rx="2.5" ry="2.5"/><text x="753.5" y="298.354" fill="#000" font-size="12" textLength="61.371" font-family="'Arial'">Publicación</text></g><!--entity MLO4--><g class="entity" data-qualified-name="Subciclo MLOps .desde INC-5..MLO4" id="ent0023" data-source-line="38"><rect x="747.5" y="395.599" width="73.361" height="33.799" fill="#F1F1F1" style="stroke:#181818;stroke-width:0.5;" rx="2.5" ry="2.5"/><text x="757.5" y="416.854" fill="#000" font-size="12" textLength="53.361" font-family="'Arial'">Monitoreo</text></g><!--entity NO1--><g class="entity" data-qualified-name="Descartados como modelo .nico .Tabla 8. puntaje sobre 30..NO1" id="ent0028" data-source-line="45"><rect x="339" y="388.599" width="138.066" height="47.598" fill="#F1F1F1" style="stroke:#181818;stroke-width:0.5;" rx="2.5" ry="2.5"/><text x="349" y="409.854" fill="#000" font-size="12" textLength="47.361" font-family="'Arial'">Cascada</text><text x="396.361" y="409.854" fill="#000" font-size="12" font-family="'Arial'"> </text><text x="399.695" y="409.854" fill="#000" font-size="12" textLength="27.352" font-family="'Arial'">pura:</text><text x="427.047" y="409.854" fill="#000" font-size="12" font-family="'Arial'"> </text><text x="430.381" y="409.854" fill="#000" font-size="12" textLength="23.355" font-family="'Arial'">8/30</text><text x="349" y="423.653" fill="#000" font-size="12" textLength="44.701" font-family="'Arial'">Congela</text><text x="393.701" y="423.653" fill="#000" font-size="12" font-family="'Arial'"> </text><text x="397.035" y="423.653" fill="#000" font-size="12" textLength="15.34" font-family="'Arial'">los</text><text x="412.375" y="423.653" fill="#000" font-size="12" font-family="'Arial'"> </text><text x="415.709" y="423.653" fill="#000" font-size="12" textLength="51.357" font-family="'Arial'">requisitos</text></g><!--entity NO2--><g class="entity" data-qualified-name="Descartados como modelo .nico .Tabla 8. puntaje sobre 30..NO2" id="ent0029" data-source-line="46"><rect x="495" y="382.099" width="170.076" height="61.396" fill="#F1F1F1" style="stroke:#181818;stroke-width:0.5;" rx="2.5" ry="2.5"/><text x="505" y="403.354" fill="#000" font-size="12" textLength="34.67" font-family="'Arial'">Scrum</text><text x="539.67" y="403.354" fill="#000" font-size="12" font-family="'Arial'"> </text><text x="543.004" y="403.354" fill="#000" font-size="12" textLength="17.344" font-family="'Arial'">por</text><text x="560.348" y="403.354" fill="#000" font-size="12" font-family="'Arial'"> </text><text x="563.682" y="403.354" fill="#000" font-size="12" textLength="9.334" font-family="'Arial'">sí</text><text x="573.016" y="403.354" fill="#000" font-size="12" font-family="'Arial'"> </text><text x="576.35" y="403.354" fill="#000" font-size="12" textLength="25.348" font-family="'Arial'">solo:</text><text x="601.697" y="403.354" fill="#000" font-size="12" font-family="'Arial'"> </text><text x="605.031" y="403.354" fill="#000" font-size="12" textLength="30.029" font-family="'Arial'">27/30</text><text x="505" y="417.153" fill="#000" font-size="12" textLength="15.34" font-family="'Arial'">No</text><text x="520.34" y="417.153" fill="#000" font-size="12" font-family="'Arial'"> </text><text x="523.674" y="417.153" fill="#000" font-size="12" textLength="32.695" font-family="'Arial'">define</text><text x="556.369" y="417.153" fill="#000" font-size="12" font-family="'Arial'"> </text><text x="559.703" y="417.153" fill="#000" font-size="12" textLength="29.344" font-family="'Arial'">cómo</text><text x="589.047" y="417.153" fill="#000" font-size="12" font-family="'Arial'"> </text><text x="592.381" y="417.153" fill="#000" font-size="12" textLength="62.695" font-family="'Arial'">automatizar</text><text x="505" y="430.952" fill="#000" font-size="12" textLength="9.34" font-family="'Arial'">la</text><text x="514.34" y="430.952" fill="#000" font-size="12" font-family="'Arial'"> </text><text x="517.674" y="430.952" fill="#000" font-size="12" textLength="40.699" font-family="'Arial'">entrega</text></g><!--entity DEC1--><g class="entity" data-qualified-name="Decisi.n ponderada .Tabla 9..DEC1" id="ent0031" data-source-line="50"><rect x="97.5" y="647.099" width="177.055" height="61.396" fill="#90EE90" style="stroke:#181818;stroke-width:0.5;" rx="2.5" ry="2.5"/><text x="107.5" y="668.354" fill="#000" font-size="12" textLength="17.338" font-family="'Arial'">Alt.</text><text x="124.838" y="668.354" fill="#000" font-size="12" font-family="'Arial'"> </text><text x="128.172" y="668.354" fill="#000" font-size="12" font-family="'Arial'">1</text><text x="134.846" y="668.354" fill="#000" font-size="12" font-family="'Arial'"> </text><text x="138.18" y="668.354" fill="#000" font-size="12" textLength="50.027" font-family="'Arial'">(elegida):</text><text x="188.207" y="668.354" fill="#000" font-size="12" font-family="'Arial'"> </text><text x="191.541" y="668.354" fill="#000" font-size="12" textLength="23.355" font-family="'Arial'">4,75</text><text x="107.5" y="682.153" fill="#000" font-size="12" textLength="108.709" font-family="'Arial'">Iterativo-incremental</text><text x="216.209" y="682.153" fill="#000" font-size="12" font-family="'Arial'"> </text><text x="219.543" y="682.153" fill="#000" font-size="12" font-family="'Arial'">+</text><text x="226.551" y="682.153" fill="#000" font-size="12" font-family="'Arial'"> </text><text x="229.885" y="682.153" fill="#000" font-size="12" textLength="34.67" font-family="'Arial'">Scrum</text><text x="107.5" y="695.952" fill="#000" font-size="12" font-family="'Arial'">+</text><text x="114.508" y="695.952" fill="#000" font-size="12" font-family="'Arial'"> </text><text x="117.842" y="695.952" fill="#000" font-size="12" textLength="43.348" font-family="'Arial'">DevOps</text><text x="161.189" y="695.952" fill="#000" font-size="12" font-family="'Arial'"> </text><text x="164.523" y="695.952" fill="#000" font-size="12" font-family="'Arial'">+</text><text x="171.531" y="695.952" fill="#000" font-size="12" font-family="'Arial'"> </text><text x="174.865" y="695.952" fill="#000" font-size="12" textLength="38.678" font-family="'Arial'">MLOps</text></g><!--entity DEC2--><g class="entity" data-qualified-name="Decisi.n ponderada .Tabla 9..DEC2" id="ent0032" data-source-line="51"><rect x="293" y="647.099" width="162.102" height="61.396" fill="#F1F1F1" style="stroke:#181818;stroke-width:0.5;" rx="2.5" ry="2.5"/><text x="303" y="668.354" fill="#000" font-size="12" textLength="17.338" font-family="'Arial'">Alt.</text><text x="320.338" y="668.354" fill="#000" font-size="12" font-family="'Arial'"> </text><text x="323.672" y="668.354" fill="#000" font-size="12" textLength="10.008" font-family="'Arial'">2:</text><text x="333.68" y="668.354" fill="#000" font-size="12" font-family="'Arial'"> </text><text x="337.014" y="668.354" fill="#000" font-size="12" textLength="23.355" font-family="'Arial'">3,85</text><text x="303" y="682.153" fill="#000" font-size="12" textLength="26.01" font-family="'Arial'">Flujo</text><text x="329.01" y="682.153" fill="#000" font-size="12" font-family="'Arial'"> </text><text x="332.344" y="682.153" fill="#000" font-size="12" textLength="45.369" font-family="'Arial'">continuo</text><text x="377.713" y="682.153" fill="#000" font-size="12" font-family="'Arial'"> </text><text x="381.047" y="682.153" fill="#000" font-size="12" textLength="19.348" font-family="'Arial'">con</text><text x="400.395" y="682.153" fill="#000" font-size="12" font-family="'Arial'"> </text><text x="403.729" y="682.153" fill="#000" font-size="12" textLength="41.373" font-family="'Arial'">Kanban</text><text x="303" y="695.952" fill="#000" font-size="12" font-family="'Arial'">+</text><text x="310.008" y="695.952" fill="#000" font-size="12" font-family="'Arial'"> </text><text x="313.342" y="695.952" fill="#000" font-size="12" textLength="43.348" font-family="'Arial'">DevOps</text><text x="356.689" y="695.952" fill="#000" font-size="12" font-family="'Arial'"> </text><text x="360.023" y="695.952" fill="#000" font-size="12" font-family="'Arial'">+</text><text x="367.031" y="695.952" fill="#000" font-size="12" font-family="'Arial'"> </text><text x="370.365" y="695.952" fill="#000" font-size="12" textLength="47.355" font-family="'Arial'">DataOps</text></g><!--entity DEC3--><g class="entity" data-qualified-name="Decisi.n ponderada .Tabla 9..DEC3" id="ent0033" data-source-line="52"><rect x="473.5" y="647.099" width="133.051" height="61.396" fill="#F1F1F1" style="stroke:#181818;stroke-width:0.5;" rx="2.5" ry="2.5"/><text x="483.5" y="668.354" fill="#000" font-size="12" textLength="17.338" font-family="'Arial'">Alt.</text><text x="500.838" y="668.354" fill="#000" font-size="12" font-family="'Arial'"> </text><text x="504.172" y="668.354" fill="#000" font-size="12" textLength="10.008" font-family="'Arial'">3:</text><text x="514.18" y="668.354" fill="#000" font-size="12" font-family="'Arial'"> </text><text x="517.514" y="668.354" fill="#000" font-size="12" textLength="23.355" font-family="'Arial'">2,95</text><text x="483.5" y="682.153" fill="#000" font-size="12" textLength="62.695" font-family="'Arial'">Incremental</text><text x="546.195" y="682.153" fill="#000" font-size="12" font-family="'Arial'"> </text><text x="549.529" y="682.153" fill="#000" font-size="12" font-family="'Arial'">+</text><text x="556.537" y="682.153" fill="#000" font-size="12" font-family="'Arial'"> </text><text x="559.871" y="682.153" fill="#000" font-size="12" textLength="36.68" font-family="'Arial'">Espiral</text><text x="483.5" y="695.952" fill="#000" font-size="12" textLength="15.34" font-family="'Arial'">sin</text><text x="498.84" y="695.952" fill="#000" font-size="12" font-family="'Arial'"> </text><text x="502.174" y="695.952" fill="#000" font-size="12" textLength="80.713" font-family="'Arial'">automatización</text></g><g class="link" data-entity-1="ent0002" data-entity-2="ent0003" id="lnk5" data-link-type="dependency"><polygon points="418.475,185.882,422.271,176.794,418.362,180.884,414.273,176.975,418.475,185.882" fill="#181818" style="stroke:#181818;stroke-width:1;stroke-linejoin:miter;stroke-miterlimit:10;"/><path d="M417.677,150.561 C417.938,162.094 418.118,170.08 418.362,180.884" style="stroke:#181818;stroke-width:1;" fill="none"/></g><g class="link" data-entity-1="ent0003" data-entity-2="ent0004" id="lnk6" data-link-type="dependency"><polygon points="420.438,270.046,424.217,260.951,420.316,265.047,416.219,261.146,420.438,270.046" fill="#181818" style="stroke:#181818;stroke-width:1;stroke-linejoin:miter;stroke-miterlimit:10;"/><path d="M419.568,234.377 C419.84,245.552 420.044,253.902 420.316,265.047" style="stroke:#181818;stroke-width:1;" fill="none"/></g><g class="link" data-entity-1="ent0008" data-entity-2="ent0009" id="lnk14" data-link-type="dependency"><polygon points="201.094,192.969,205.693,184.26,201.432,187.981,197.711,183.719,201.094,192.969" fill="#181818" style="stroke:#181818;stroke-width:1;stroke-linejoin:miter;stroke-miterlimit:10;"/><path d="M204.9,136.831 C203.817,152.799 202.512,172.048 201.432,187.981" style="stroke:#181818;stroke-width:1;" fill="none"/></g><g class="link" data-entity-1="ent0009" data-entity-2="ent0010" id="lnk15" data-link-type="dependency"><polygon points="191.972,276.932,197.032,268.482,192.577,271.968,189.09,267.514,191.972,276.932" fill="#181818" style="stroke:#181818;stroke-width:1;stroke-linejoin:miter;stroke-miterlimit:10;"/><path d="M198.024,227.299 C196.271,241.675 194.329,257.603 192.577,271.968" style="stroke:#181818;stroke-width:1;" fill="none"/></g><g class="link" data-entity-1="ent0010" data-entity-2="ent0011" id="lnk16" data-link-type="dependency"><polygon points="186.551,395.537,190.858,386.68,186.723,390.54,182.863,386.405,186.551,395.537" fill="#181818" style="stroke:#181818;stroke-width:1;stroke-linejoin:miter;stroke-miterlimit:10;"/><path d="M189.444,311.297 C188.68,333.555 187.485,368.355 186.723,390.54" style="stroke:#181818;stroke-width:1;" fill="none"/></g><g class="link" data-entity-1="ent0011" data-entity-2="ent0012" id="lnk17" data-link-type="dependency"><polygon points="186,479.03,190,470.03,186,474.03,182,470.03,186,479.03" fill="#181818" style="stroke:#181818;stroke-width:1;stroke-linejoin:miter;stroke-miterlimit:10;"/><path d="M186,429.7 C186,443.988 186,459.752 186,474.03" style="stroke:#181818;stroke-width:1;" fill="none"/></g><g class="link" data-entity-1="ent0012" data-entity-2="ent0013" id="lnk18" data-link-type="dependency"><polygon points="186,548.627,190,539.627,186,543.627,182,539.627,186,548.627" fill="#181818" style="stroke:#181818;stroke-width:1;stroke-linejoin:miter;stroke-miterlimit:10;"/><path d="M186,513.214 C186,523.896 186,532.872 186,543.627" style="stroke:#181818;stroke-width:1;" fill="none"/></g><g class="link" data-entity-1="ent0020" data-entity-2="ent0021" id="lnk24" data-link-type="dependency"><polygon points="784,192.969,788,183.969,784,187.969,780,183.969,784,192.969" fill="#181818" style="stroke:#181818;stroke-width:1;stroke-linejoin:miter;stroke-miterlimit:10;"/><path d="M784,136.831 C784,152.799 784,172.037 784,187.969" style="stroke:#181818;stroke-width:1;stroke-dasharray:7,7;" fill="none"/></g><g class="link" data-entity-1="ent0021" data-entity-2="ent0022" id="lnk25" data-link-type="dependency"><polygon points="784,276.932,788,267.932,784,271.932,780,267.932,784,276.932" fill="#181818" style="stroke:#181818;stroke-width:1;stroke-linejoin:miter;stroke-miterlimit:10;"/><path d="M784,227.299 C784,241.675 784,257.566 784,271.932" style="stroke:#181818;stroke-width:1;stroke-dasharray:7,7;" fill="none"/></g><g class="link" data-entity-1="ent0022" data-entity-2="ent0023" id="lnk26" data-link-type="dependency"><polygon points="784,395.537,788,386.537,784,390.537,780,386.537,784,395.537" fill="#181818" style="stroke:#181818;stroke-width:1;stroke-linejoin:miter;stroke-miterlimit:10;"/><path d="M784,311.297 C784,333.555 784,368.352 784,390.537" style="stroke:#181818;stroke-width:1;stroke-dasharray:7,7;" fill="none"/></g><?plantuml-src VLPDR-Cs4BthLqoJGsNKNwByNNI1H9Q1e9iqNHVjeUw1bcY56ufKAIg1j-WFwc5FU-lLVwn3ojhOIb0VB0qvV9nvysQWRs5LCMbOkO0RkLCwPy3Hp3HDbOPVw5RG4cQmXpduQz8iXBWmwNHh4u89-6MXyLpP-HuIAgc0b45q0pz0F-FceTeEdfL-t0drN0uItj_dmlkcq3JBAGYwLvM1CcS63thb8vS5rJI7BKqUCwqgcKPAO2oNA_SxyKZPZbR2h9GqTnG3lxZId8gBjptM_1E3W9niFcjQ_CPJym1aD3nPbofb9Ik0Z4yMDPMFTZ4SUfxXHc1wF17Avld4KmeqfOL1pXR03TFKy2VLupBHB4TsaO_lO9teAiVdaZtzL9JuSliUdvvNO9uqm-Xl6dTLWjymsxc0opXSaTKI_l80D4kGfanOzxke5spakYOU0Ym90NyOzCXiC9mFo91CEXiPIwDPvW9x2lh3tltjhnU05SJJ0LnUZPUJg-bhN89Wbd-XCZ27VnB94zLSXSNtoHolw0La40mx3Ho1o-lhPRowVWqN0hKUlSbBk2DSce7_G4j3WGG3n78HDsZX2PgBjTTxvswfRTBOeVVt2OKHrPgBXk84oyvbfS0_IZhXXo-oMQQMMXJKF1grgVr0KPWxHasbMHVkFo0RqOsBRBaAMgxLRWU-iBpimVOFDQfpT0tFNOizjfd1mYTgopHYKsofdz-ZNfe3enPrfr4p2VUgD9bcU0Q5SJmoFZyIanZyU-ofPysp1zC0Jrh0ER8bOQcIHwQjXB486PVPqTiA0XDr5DTPuF_H6ZbhTBJ6pXeVhOcp9aThUbQPTRLDNCCurOEFBORtMb6CNHt2U8muhJeigUs5FUQE8fOqvxOvN928qYf4_4H5rLHO73wZP6dZIivTxwkjm5tdsxYqQdMh93TAiw-tsRpjfT3llsiWxQEnmzeE6tjqblsIbGdLTZvOLUOASfmnICRXNzjPJRVFkb1KE2q-Oa7KLZCSDhL6e-MIjBc9A4BYu2bGHmkO3SBXHaPAPWo115wZsPyLBp69qgLmr-Qh7aS53jRoy1dl4pWXoDJ1tDcnjkEIGNBuWi7IoYZKDVz4zKOYFAjdoX6Nj39Dy5PRX4B952SXXdXCRswJYMRn99gtaxaIfeyJp6U2PJXDEmiOTQVZZRpvlrcwaUrXMkitjfDjFepZ-V2DMyW2mkuCiLUY-gXUPWI-m8zKRgaymqK9qXDayWPYYCHrvpRQinZZik2QYeqikJoXy4Lr2EUcLptUVd_WQSha7wvlNGC5dcl2zeQJFfRpzOwjXSl-DPYDtFwzkHLwRk1-tKhLitHmDeBfgtLxXUT9PHXibS6ya9Fw8s81gBwjQaPMeLN1c_8tNn6eU_p2S5yQdRx7P0eMoViF?></g></svg>