<svg xmlns="http://www.w3.org/2000/svg" xmlns:xlink="http://www.w3.org/1999/xlink" version="1.1" data-diagram-type="DESCRIPTION" style="width:963px;height:513px;background:#FFFFFF;" width="963px" height="513px" viewBox="0 0 963 513" zoomAndPan="magnify" preserveAspectRatio="none" contentStyleType="text/css"><?plantuml 1.2026.8?><defs/><g font-family="sans-serif" lengthAdjust="spacing"><g class="title" data-source-line="8"><text x="298.15" y="23.132" fill="#000" font-size="14" textLength="360.199" font-weight="700" font-family="'Arial'">C4 · Nivel 1 — Diagrama de Contexto del PMV FastAPI</text></g><!--entity enf--><g class="entity" data-qualified-name="enf" id="ent0001" data-source-line="10"><ellipse cx="237.794" cy="57.599" rx="8" ry="8" fill="#DCE9F7" style="stroke:#181818;stroke-width:0.5;"/><path d="M237.794,65.599 L237.794,92.599 M224.794,73.599 L250.794,73.599 M237.794,92.599 L224.794,107.599 M237.794,92.599 L250.794,107.599" style="stroke:#181818;stroke-width:0.5;" fill="none"/><text x="189.5" y="119.417" fill="#000" font-size="11" textLength="88.059" font-family="'Arial'">Personal de salud</text><text x="189.5" y="132.065" fill="#000" font-size="11" textLength="96.588" font-family="'Arial'">(Enfermera/técnica)</text></g><!--entity acs--><g class="entity" data-qualified-name="acs" id="ent0002" data-source-line="11"><ellipse cx="369.889" cy="57.599" rx="8" ry="8" fill="#DCE9F7" style="stroke:#181818;stroke-width:0.5;"/><path d="M369.889,65.599 L369.889,92.599 M356.889,73.599 L382.889,73.599 M369.889,92.599 L356.889,107.599 M369.889,92.599 L382.889,107.599" style="stroke:#181818;stroke-width:0.5;" fill="none"/><text x="322.5" y="119.417" fill="#000" font-size="11" textLength="94.778" font-family="'Arial'">Agente comunitario</text><text x="322.5" y="132.065" fill="#000" font-size="11" textLength="41.588" font-family="'Arial'">de salud</text></g><!--entity mic--><g class="entity" data-qualified-name="mic" id="ent0003" data-source-line="12"><ellipse cx="477.876" cy="57.599" rx="8" ry="8" fill="#DCE9F7" style="stroke:#181818;stroke-width:0.5;"/><path d="M477.876,65.599 L477.876,92.599 M464.876,73.599 L490.876,73.599 M477.876,92.599 L464.876,107.599 M477.876,92.599 L490.876,107.599" style="stroke:#181818;stroke-width:0.5;" fill="none"/><text x="436" y="119.417" fill="#000" font-size="11" textLength="83.751" font-family="'Arial'">Gestión territorial</text><text x="436" y="132.065" fill="#000" font-size="11" textLength="50.112" font-family="'Arial'">(Microred)</text></g><!--entity sis--><g class="entity" data-qualified-name="sis" id="ent0004" data-source-line="14"><rect x="234.5" y="206.599" width="271.297" height="32.649" fill="#EAF2FB" style="stroke:#181818;stroke-width:0.5;" rx="2.5" ry="2.5"/><text x="244.5" y="226.917" fill="#000" font-size="11" textLength="251.297" font-family="'Arial'">Sistema de Detección Temprana de Anemia Infantil</text></g><g class="entity" data-qualified-name="GMN5" id="ent0006" data-source-line="16"><path d="M524,199.099 L524,219.099 L505.844,223.099 L524,227.099 L524,247.045 A0,0 0 0 0 524,247.045 L719.861,247.045 A0,0 0 0 0 719.861,247.045 L719.861,209.099 L709.861,199.099 L524,199.099 A0,0 0 0 0 524,199.099" style="stroke:#181818;stroke-width:0.5;" fill="#FEFFDD"/><path d="M709.861,199.099 L709.861,209.099 L719.861,209.099 L709.861,199.099" style="stroke:#181818;stroke-width:0.5;" fill="#FEFFDD"/><text x="530" y="214.417" fill="#000" font-size="11" textLength="174.861" font-family="'Arial'">Registro nominal, validación clínica,</text><text x="530" y="227.065" fill="#000" font-size="11" textLength="114.334" font-family="'Arial'">seguimiento y reportes.</text><text x="530" y="239.714" fill="#000" font-size="11" textLength="100.574" font-family="'Arial'">PMV = Incremento 1</text></g><!--entity his--><g class="entity" data-qualified-name="his" id="ent0008" data-source-line="21"><rect x="6" y="325.099" width="82.342" height="32.649" fill="#F0F0F0" style="stroke:#181818;stroke-width:0.5;" rx="2.5" ry="2.5"/><text x="16" y="345.417" fill="#000" font-size="11" textLength="62.342" font-family="'Arial'">HIS / MINSA</text></g><g class="entity" data-qualified-name="GMN9" id="ent0010" data-source-line="23"><path d="M106,324.099 L106,337.599 L88.057,341.599 L106,345.599 L106,359.396 A0,0 0 0 0 106,359.396 L281.682,359.396 A0,0 0 0 0 281.682,359.396 L281.682,334.099 L271.682,324.099 L106,324.099 A0,0 0 0 0 106,324.099" style="stroke:#181818;stroke-width:0.5;" fill="#FEFFDD"/><path d="M271.682,324.099 L271.682,334.099 L281.682,334.099 L271.682,324.099" style="stroke:#181818;stroke-width:0.5;" fill="#FEFFDD"/><text x="112" y="339.417" fill="#000" font-size="11" textLength="125.941" font-family="'Arial'">Sistema oficial de registro</text><text x="112" y="352.065" fill="#000" font-size="11" textLength="154.682" font-family="'Arial'">(futuro, INC-1 fuera de alcance)</text></g><!--entity wa--><g class="entity" data-qualified-name="wa" id="ent0012" data-source-line="27"><rect x="300.5" y="325.099" width="139.222" height="32.649" fill="#F0F0F0" style="stroke:#181818;stroke-width:0.5;" rx="2.5" ry="2.5"/><text x="310.5" y="345.417" fill="#000" font-size="11" textLength="119.222" font-family="'Arial'">WhatsApp Business API</text></g><g class="entity" data-qualified-name="GMN13" id="ent0014" data-source-line="29"><path d="M458,329.599 L458,337.599 L439.832,341.599 L458,345.599 L458,352.248 A0,0 0 0 0 458,352.248 L636.099,352.248 A0,0 0 0 0 636.099,352.248 L636.099,339.599 L626.099,329.599 L458,329.599 A0,0 0 0 0 458,329.599" style="stroke:#181818;stroke-width:0.5;" fill="#FEFFDD"/><path d="M626.099,329.599 L626.099,339.599 L636.099,339.599 L626.099,329.599" style="stroke:#181818;stroke-width:0.5;" fill="#FEFFDD"/><text x="464" y="344.917" fill="#000" font-size="11" textLength="157.099" font-family="'Arial'">Recordatorios a familias (INC-4)</text></g><!--entity fam--><g class="entity" data-qualified-name="fam" id="ent0016" data-source-line="32"><ellipse cx="369.814" cy="432.599" rx="8" ry="8" fill="#F0F0F0" style="stroke:#181818;stroke-width:0.5;"/><path d="M369.814,440.599 L369.814,467.599 M356.814,448.599 L382.814,448.599 M369.814,467.599 L356.814,482.599 M369.814,467.599 L382.814,482.599" style="stroke:#181818;stroke-width:0.5;" fill="none"/><text x="336.5" y="494.417" fill="#000" font-size="11" textLength="66.628" font-family="'Arial'">Familia / tutor</text></g><g class="entity" data-qualified-name="GMN23" id="ent0024" data-source-line="43"><path d="M654.5,324.099 L654.5,359.396 A0,0 0 0 0 654.5,359.396 L947.589,359.396 A0,0 0 0 0 947.589,359.396 L947.589,334.099 L937.589,324.099 L743.838,324.099 L427.679,239.689 L735.838,324.099 L654.5,324.099 A0,0 0 0 0 654.5,324.099" style="stroke:#181818;stroke-width:0.5;" fill="#FEFFDD"/><path d="M937.589,324.099 L937.589,334.099 L947.589,334.099 L937.589,324.099" style="stroke:#181818;stroke-width:0.5;" fill="#FEFFDD"/><text x="660.5" y="339.417" fill="#000" font-size="11" textLength="272.089" font-family="'Arial'">Fuente: pmv_fastapi/docs/diagramas/C4_contexto.puml</text><text x="660.5" y="352.065" fill="#000" font-size="11" textLength="233.541" font-family="'Arial'">coordinacion/s6/DATOS_PMV_FASTAPI.md §3</text></g><g class="link" data-entity-1="ent0001" data-entity-2="ent0004" id="lnk17" data-link-type="dependency"><polygon points="294.092,206.556,287.375,199.353,289.491,204.6,284.245,206.716,294.092,206.556" fill="#181818" style="stroke:#181818;stroke-width:1;stroke-linejoin:miter;stroke-miterlimit:10;"/><path d="M238.524,134.309 C240.722,150.557 245.846,168.307 257,181.099 C266.875,192.424 275.533,198.666 289.491,204.6" style="stroke:#181818;stroke-width:1;" fill="none"/><text x="265.11" y="164.417" fill="#000" font-size="11" textLength="93.543" font-family="'Arial'">Registra y consulta</text><text x="259" y="177.065" fill="#000" font-size="11" textLength="105.762" font-family="'Arial'">expedientes (HTTPS)</text></g><g class="link" data-entity-1="ent0002" data-entity-2="ent0004" id="lnk18" data-link-type="dependency"><polygon points="370,206.592,374,197.592,370,201.592,366,197.592,370,206.592" fill="#181818" style="stroke:#181818;stroke-width:1;stroke-linejoin:miter;stroke-miterlimit:10;"/><path d="M370,134.286 C370,158.982 370,183.826 370,201.592" style="stroke:#181818;stroke-width:1;" fill="none"/><text x="372" y="164.417" fill="#000" font-size="11" textLength="74.578" font-family="'Arial'">Registra visitas</text><text x="373.531" y="177.065" fill="#000" font-size="11" textLength="71.516" font-family="'Arial'">(INC-3, offline)</text></g><g class="link" data-entity-1="ent0003" data-entity-2="ent0004" id="lnk19" data-link-type="dependency"><polygon points="417.557,206.393,427.4,206.056,422.054,204.207,423.903,198.861,417.557,206.393" fill="#181818" style="stroke:#181818;stroke-width:1;stroke-linejoin:miter;stroke-miterlimit:10;"/><path d="M473,134.282 C469.337,150.337 462.992,167.954 452,181.099 C442.913,191.965 434.73,198.046 422.054,204.207" style="stroke:#181818;stroke-width:1;" fill="none"/><text x="482.523" y="164.417" fill="#000" font-size="11" textLength="86.824" font-family="'Arial'">Consulta reportes</text><text x="470" y="177.065" fill="#000" font-size="11" textLength="111.869" font-family="'Arial'">e indicadores (HTTPS)</text></g><g class="link" data-entity-1="ent0004" data-entity-2="ent0008" id="lnk20" data-link-type="dependency"><polygon points="88.184,325.744,98.007,326.454,92.887,324.048,95.293,318.928,88.184,325.744" fill="#181818" style="stroke:#181818;stroke-width:1;stroke-linejoin:miter;stroke-miterlimit:10;"/><path d="M326.774,239.689 C264.287,262.227 154.212,301.929 92.887,324.048" style="stroke:#181818;stroke-width:1;" fill="none"/><text x="261.449" y="277.417" fill="#000" font-size="11" textLength="81.936" font-family="'Arial'">Exporta/consulta</text><text x="259" y="290.065" fill="#000" font-size="11" textLength="86.834" font-family="'Arial'">datos autorizados</text><text x="274.297" y="302.714" fill="#000" font-size="11" textLength="56.241" font-family="'Arial'">(API futura)</text></g><g class="link" data-entity-1="ent0004" data-entity-2="ent0012" id="lnk21" data-link-type="dependency"><polygon points="370,324.764,374,315.764,370,319.764,366,315.764,370,324.764" fill="#181818" style="stroke:#181818;stroke-width:1;stroke-linejoin:miter;stroke-miterlimit:10;"/><path d="M370,239.81 C370,262.045 370,297.462 370,319.764" style="stroke:#181818;stroke-width:1;" fill="none"/><text x="372" y="283.417" fill="#000" font-size="11" textLength="95.38" font-family="'Arial'">Envía recordatorios</text><text x="380.58" y="296.065" fill="#000" font-size="11" textLength="78.219" font-family="'Arial'">(INC-4, HTTPS)</text></g><g class="link" data-entity-1="ent0012" data-entity-2="ent0016" id="lnk22" data-link-type="dependency"><polygon points="370,423.934,374,414.934,370,418.934,366,414.934,370,423.934" fill="#181818" style="stroke:#181818;stroke-width:1;stroke-linejoin:miter;stroke-miterlimit:10;"/><path d="M370,358.378 C370,375.094 370,397.044 370,418.934" style="stroke:#181818;stroke-width:1;" fill="none"/><text x="373.834" y="389.417" fill="#000" font-size="11" textLength="47.078" font-family="'Arial'">Mensajes</text><text x="372" y="402.065" fill="#000" font-size="11" textLength="50.746" font-family="'Arial'">WhatsApp</text></g><?plantuml-src bLJBRjD05DtxAoxfegcKreH682g1v2OnP94GaGWsbQBRyTWPEWzhPfm-Ldm4_u1OTCM2VVCdV0btd2TLMH1l8iyzzvnxxXaVGbfnxJaOAmgXKPv1gHQp79t7KiIPOIxE11OM5RgusvanGzKttfoKbPBH8IGPbXup18HTdRCi1YSq2CrabN47bYlZZOkUbHOBXI3nrbGUdE8UDKRkIkWI2GoNoAuAQogTTOqq5WxI-hTNaV4SA-bJ4Z92nQ6HM86oyNJ5HDnnQBUZo0ilENGxyF0BHcB19RJXzzTlq5kB9X1qrxFHVmdZuIT8oOPaF8WYP9wqDCRSEaCcXMA7DDc5RlPrpgtY5cE__C6qO7ZK07J0TGu7lMx_TVfg0q-AscfcLAM5HolCXTvqgZ78t6FCE-wyMFxKuBcrWbxHhCGw5CmQoxCLbn9iYuiiP-HfGTCs9i9vlfgjnprdhEuqvOgseElNYUPA80nqZjeBMNTpWbJqa_H5UXvfGu8f6dCF9Wyd4S17Nb1VQq0R5IBJWWLAaU6gEvFB--12YoeTBogX14rju9OoK1hhkJkXa-3k6w9b58pwk1rndK6W-sk2zuC9n30SZ2P9hMqUjANFm_D8sxpMjfdOv8A9rQBiMYwTDlFALzQqO33g7hSXhsXjeGGbGytuqTCQFi_HkwGiuRoYJ7FdW39Hgxd6VuYvnjedPco6OMU6TWivAY45mPg1lhFFjbvskggWYNr5BseEGcr9eX2gu-EtzOhEeB7U19AvT2yTPHulDByfUHOyfslNV3-TZYT7ZIWawodWGZXAegD41KsdBHAVIngI825KUv3kcc2xHcAY-vtHgZDAuXvN5101ELyX-pS1WF5EOZ2570apYZk21txo5EhrqFtPTY23GmEzMDu7uZq_ruexBTZGKcs01By8C-JQuPUWShC-4bOlwT9uRzGkpgiFuFzzzu3y9YsKVYQCZjtBk9TCFqnc5EjPcaocDCo9ok3X--bkoNy0?></g></svg>