<?xml version="1.0" encoding="utf-8" standalone="no"?>
<!DOCTYPE svg PUBLIC "-//W3C//DTD SVG 1.1//EN"
  "http://www.w3.org/Graphics/SVG/1.1/DTD/svg11.dtd">
<svg xmlns:xlink="http://www.w3.org/1999/xlink" width="792pt" height="309.6pt" viewBox="0 0 792 309.6" xmlns="http://www.w3.org/2000/svg" version="1.1">
 <metadata>
  <rdf:RDF xmlns:dc="http://purl.org/dc/elements/1.1/" xmlns:cc="http://creativecommons.org/ns#" xmlns:rdf="http://www.w3.org/1999/02/22-rdf-syntax-ns#">
   <cc:Work>
    <dc:type rdf:resource="http://purl.org/dc/dcmitype/StillImage"/>
    <dc:date>2026-10-02T07:01:47.085939</dc:date>
    <dc:format>image/svg+xml</dc:format>
    <dc:creator>
     <cc:Agent>
      <dc:title>Matplotlib v3.11.2, https://matplotlib.org/</dc:title>
     </cc:Agent>
    </dc:creator>
   </cc:Work>
  </rdf:RDF>
 </metadata>
 <defs>
  <style type="text/css">*{stroke-linejoin: round; stroke-linecap: butt}</style>
 </defs>
 <g id="figure_1">
  <g id="patch_1">
   <path d="M 0 309.6 
L 792 309.6 
L 792 0 
L 0 0 
z
" style="fill: #ffffff"/>
  </g>
  <g id="axes_1">
   <g id="patch_2">
    <path d="M 183.6 39.6 
L 781.2 39.6 
Q 788.4 39.6 788.4 46.8 
L 788.4 255.6 
Q 788.4 262.8 781.2 262.8 
L 183.6 262.8 
Q 176.4 262.8 176.4 255.6 
L 176.4 46.8 
Q 176.4 39.6 183.6 39.6 
z
" clip-path="url(#p951fd797a2)" style="fill: #ffffff; stroke-dasharray: 9.6,4.8; stroke-dashoffset: 0; stroke: #34506b; stroke-width: 1.6; stroke-linejoin: miter"/>
   </g>
   <g id="patch_3">
    <path d="M 16.56 75.6 
L 145.44 75.6 
Q 151.2 75.6 151.2 81.36 
L 151.2 149.04 
Q 151.2 154.8 145.44 154.8 
L 16.56 154.8 
Q 10.8 154.8 10.8 149.04 
L 10.8 81.36 
Q 10.8 75.6 16.56 75.6 
z
" clip-path="url(#p951fd797a2)" style="fill: #dce9f7; stroke: #34506b; stroke-width: 1.6; stroke-linejoin: miter"/>
   </g>
   <g id="patch_4">
    <path d="M 16.56 172.8 
L 145.44 172.8 
Q 151.2 172.8 151.2 178.56 
L 151.2 246.24 
Q 151.2 252 145.44 252 
L 16.56 252 
Q 10.8 252 10.8 246.24 
L 10.8 178.56 
Q 10.8 172.8 16.56 172.8 
z
" clip-path="url(#p951fd797a2)" style="fill: #dce9f7; stroke: #34506b; stroke-width: 1.6; stroke-linejoin: miter"/>
   </g>
   <g id="patch_5">
    <path d="M 200.16 75.6 
L 354.24 75.6 
Q 360 75.6 360 81.36 
L 360 159.84 
Q 360 165.6 354.24 165.6 
L 200.16 165.6 
Q 194.4 165.6 194.4 159.84 
L 194.4 81.36 
Q 194.4 75.6 200.16 75.6 
z
" clip-path="url(#p951fd797a2)" style="fill: #eaf2fb; stroke: #34506b; stroke-width: 1.6; stroke-linejoin: miter"/>
   </g>
   <g id="patch_6">
    <path d="M 200.16 180 
L 354.24 180 
Q 360 180 360 185.76 
L 360 249.84 
Q 360 255.6 354.24 255.6 
L 200.16 255.6 
Q 194.4 255.6 194.4 249.84 
L 194.4 185.76 
Q 194.4 180 200.16 180 
z
" clip-path="url(#p951fd797a2)" style="fill: #e6f5ea; stroke: #34506b; stroke-width: 1.6; stroke-linejoin: miter"/>
   </g>
   <g id="patch_7">
    <path d="M 401.76 75.6 
L 577.44 75.6 
Q 583.2 75.6 583.2 81.36 
L 583.2 159.84 
Q 583.2 165.6 577.44 165.6 
L 401.76 165.6 
Q 396 165.6 396 159.84 
L 396 81.36 
Q 396 75.6 401.76 75.6 
z
" clip-path="url(#p951fd797a2)" style="fill: #eaf2fb; stroke: #34506b; stroke-width: 1.6; stroke-linejoin: miter"/>
   </g>
   <g id="patch_8">
    <path d="M 614.16 75.6 
L 771.84 75.6 
Q 777.6 75.6 777.6 81.36 
L 777.6 159.84 
Q 777.6 165.6 771.84 165.6 
L 614.16 165.6 
Q 608.4 165.6 608.4 159.84 
L 608.4 81.36 
Q 608.4 75.6 614.16 75.6 
z
" clip-path="url(#p951fd797a2)" style="fill: #e6f5ea; stroke: #34506b; stroke-width: 1.6; stroke-linejoin: miter"/>
   </g>
   <g id="patch_9">
    <path d="M 401.76 273.6 
L 577.44 273.6 
Q 583.2 273.6 583.2 279.36 
L 583.2 300.24 
Q 583.2 306 577.44 306 
L 401.76 306 
Q 396 306 396 300.24 
L 396 279.36 
Q 396 273.6 401.76 273.6 
z
" clip-path="url(#p951fd797a2)" style="fill: #f0f0f0; stroke: #34506b; stroke-width: 1.6; stroke-linejoin: miter"/>
   </g>
   <g id="patch_10">
    <path d="M 151.2 100.8 
Q 172.8 108 192.490812 114.563604 
" clip-path="url(#p951fd797a2)" style="fill: none; stroke: #34506b; stroke-width: 1.8; stroke-linecap: round"/>
    <path d="M 187.431167 109.50396 
L 192.490812 114.563604 
L 185.40731 115.575533 
z
" clip-path="url(#p951fd797a2)" style="fill: #34506b; stroke: #34506b; stroke-width: 1.8; stroke-linecap: round"/>
   </g>
   <g id="patch_11">
    <path d="M 151.2 216 
Q 172.8 183.6 193.283687 152.874469 
" clip-path="url(#p951fd797a2)" style="fill: none; stroke: #34506b; stroke-width: 1.8; stroke-linecap: round"/>
    <path d="M 187.071045 156.42455 
L 193.283687 152.874469 
L 192.396167 159.974631 
z
" clip-path="url(#p951fd797a2)" style="fill: #34506b; stroke: #34506b; stroke-width: 1.8; stroke-linecap: round"/>
   </g>
   <g id="patch_12">
    <path d="M 277.2 165.6 
Q 277.2 172.8 277.2 177.987539 
" clip-path="url(#p951fd797a2)" style="fill: none; stroke: #34506b; stroke-width: 1.8; stroke-linecap: round"/>
    <path d="M 280.4 171.587539 
L 277.2 177.987539 
L 274 171.587539 
z
" clip-path="url(#p951fd797a2)" style="fill: #34506b; stroke: #34506b; stroke-width: 1.8; stroke-linecap: round"/>
   </g>
   <g id="patch_13">
    <path d="M 360 120.6 
Q 378 120.6 393.987539 120.6 
" clip-path="url(#p951fd797a2)" style="fill: none; stroke: #34506b; stroke-width: 1.8; stroke-linecap: round"/>
    <path d="M 387.587539 117.4 
L 393.987539 120.6 
L 387.587539 123.8 
z
" clip-path="url(#p951fd797a2)" style="fill: #34506b; stroke: #34506b; stroke-width: 1.8; stroke-linecap: round"/>
   </g>
   <g id="patch_14">
    <path d="M 583.2 120.6 
Q 595.8 120.6 606.387539 120.6 
" clip-path="url(#p951fd797a2)" style="fill: none; stroke: #34506b; stroke-width: 1.8; stroke-linecap: round"/>
    <path d="M 599.987539 117.4 
L 606.387539 120.6 
L 599.987539 123.8 
z
" clip-path="url(#p951fd797a2)" style="fill: #34506b; stroke: #34506b; stroke-width: 1.8; stroke-linecap: round"/>
   </g>
   <g id="patch_15">
    <path d="M 489.6 273.6 
Q 489.6 219.6 489.6 167.612461 
" clip-path="url(#p951fd797a2)" style="fill: none; stroke-dasharray: 9,5.4; stroke-dashoffset: 0; stroke: #34506b; stroke-width: 1.8; stroke-linecap: round"/>
    <path d="M 486.4 174.012461 
L 489.6 167.612461 
L 492.8 174.012461 
z
" clip-path="url(#p951fd797a2)" style="fill: #34506b; stroke-dasharray: 9,5.4; stroke-dashoffset: 0; stroke: #34506b; stroke-width: 1.8; stroke-linecap: round"/>
   </g>
   <g id="text_1">
    <!-- C4 nivel 2: contenedores del PMV FastAPI -->
    <g style="fill: #1f2d3d" transform="translate(225.965469 22.399414) scale(0.17 -0.17)">
     <defs>
      <path id="Arial-BoldMT-26" d="M 3397 1684 
L 4294 1400 
Q 4088 650 3608 286 
Q 3128 -78 2391 -78 
Q 1478 -78 890 545 
Q 303 1169 303 2250 
Q 303 3394 893 4026 
Q 1484 4659 2447 4659 
Q 3288 4659 3813 4163 
Q 4125 3869 4281 3319 
L 3366 3100 
Q 3284 3456 3026 3662 
Q 2769 3869 2400 3869 
Q 1891 3869 1573 3503 
Q 1256 3138 1256 2319 
Q 1256 1450 1568 1081 
Q 1881 713 2381 713 
Q 2750 713 3015 947 
Q 3281 1181 3397 1684 
z
" transform="scale(0.015625)"/>
      <path id="Arial-BoldMT-17" d="M 1994 0 
L 1994 922 
L 119 922 
L 119 1691 
L 2106 4600 
L 2844 4600 
L 2844 1694 
L 3413 1694 
L 3413 922 
L 2844 922 
L 2844 0 
L 1994 0 
z
M 1994 1694 
L 1994 3259 
L 941 1694 
L 1994 1694 
z
" transform="scale(0.015625)"/>
      <path id="Arial-BoldMT-3" transform="scale(0.015625)"/>
      <path id="Arial-BoldMT-51" d="M 3478 0 
L 2600 0 
L 2600 1694 
Q 2600 2231 2544 2389 
Q 2488 2547 2361 2634 
Q 2234 2722 2056 2722 
Q 1828 2722 1647 2597 
Q 1466 2472 1398 2265 
Q 1331 2059 1331 1503 
L 1331 0 
L 453 0 
L 453 3319 
L 1269 3319 
L 1269 2831 
Q 1703 3394 2363 3394 
Q 2653 3394 2893 3289 
Q 3134 3184 3257 3021 
Q 3381 2859 3429 2653 
Q 3478 2447 3478 2063 
L 3478 0 
z
" transform="scale(0.015625)"/>
      <path id="Arial-BoldMT-4c" d="M 459 3769 
L 459 4581 
L 1338 4581 
L 1338 3769 
L 459 3769 
z
M 459 0 
L 459 3319 
L 1338 3319 
L 1338 0 
L 459 0 
z
" transform="scale(0.015625)"/>
      <path id="Arial-BoldMT-59" d="M 1372 0 
L 34 3319 
L 956 3319 
L 1581 1625 
L 1763 1059 
Q 1834 1275 1853 1344 
Q 1897 1484 1947 1625 
L 2578 3319 
L 3481 3319 
L 2163 0 
L 1372 0 
z
" transform="scale(0.015625)"/>
      <path id="Arial-BoldMT-48" d="M 2381 1056 
L 3256 909 
Q 3088 428 2723 176 
Q 2359 -75 1813 -75 
Q 947 -75 531 491 
Q 203 944 203 1634 
Q 203 2459 634 2926 
Q 1066 3394 1725 3394 
Q 2466 3394 2894 2905 
Q 3322 2416 3303 1406 
L 1103 1406 
Q 1113 1016 1316 798 
Q 1519 581 1822 581 
Q 2028 581 2168 693 
Q 2309 806 2381 1056 
z
M 2431 1944 
Q 2422 2325 2234 2523 
Q 2047 2722 1778 2722 
Q 1491 2722 1303 2513 
Q 1116 2303 1119 1944 
L 2431 1944 
z
" transform="scale(0.015625)"/>
      <path id="Arial-BoldMT-4f" d="M 459 0 
L 459 4581 
L 1338 4581 
L 1338 0 
L 459 0 
z
" transform="scale(0.015625)"/>
      <path id="Arial-BoldMT-15" d="M 3238 816 
L 3238 0 
L 159 0 
Q 209 463 459 877 
Q 709 1291 1447 1975 
Q 2041 2528 2175 2725 
Q 2356 2997 2356 3263 
Q 2356 3556 2198 3714 
Q 2041 3872 1763 3872 
Q 1488 3872 1325 3706 
Q 1163 3541 1138 3156 
L 263 3244 
Q 341 3969 753 4284 
Q 1166 4600 1784 4600 
Q 2463 4600 2850 4234 
Q 3238 3869 3238 3325 
Q 3238 3016 3127 2736 
Q 3016 2456 2775 2150 
Q 2616 1947 2200 1565 
Q 1784 1184 1673 1059 
Q 1563 934 1494 816 
L 3238 816 
z
" transform="scale(0.015625)"/>
      <path id="Arial-BoldMT-1d" d="M 628 2441 
L 628 3319 
L 1506 3319 
L 1506 2441 
L 628 2441 
z
M 628 0 
L 628 878 
L 1506 878 
L 1506 0 
L 628 0 
z
" transform="scale(0.015625)"/>
      <path id="Arial-BoldMT-46" d="M 3353 2338 
L 2488 2181 
Q 2444 2441 2289 2572 
Q 2134 2703 1888 2703 
Q 1559 2703 1364 2476 
Q 1169 2250 1169 1719 
Q 1169 1128 1367 884 
Q 1566 641 1900 641 
Q 2150 641 2309 783 
Q 2469 925 2534 1272 
L 3397 1125 
Q 3263 531 2881 228 
Q 2500 -75 1859 -75 
Q 1131 -75 698 384 
Q 266 844 266 1656 
Q 266 2478 700 2936 
Q 1134 3394 1875 3394 
Q 2481 3394 2839 3133 
Q 3197 2872 3353 2338 
z
" transform="scale(0.015625)"/>
      <path id="Arial-BoldMT-52" d="M 256 1706 
Q 256 2144 472 2553 
Q 688 2963 1083 3178 
Q 1478 3394 1966 3394 
Q 2719 3394 3200 2905 
Q 3681 2416 3681 1669 
Q 3681 916 3195 420 
Q 2709 -75 1972 -75 
Q 1516 -75 1102 131 
Q 688 338 472 736 
Q 256 1134 256 1706 
z
M 1156 1659 
Q 1156 1166 1390 903 
Q 1625 641 1969 641 
Q 2313 641 2545 903 
Q 2778 1166 2778 1666 
Q 2778 2153 2545 2415 
Q 2313 2678 1969 2678 
Q 1625 2678 1390 2415 
Q 1156 2153 1156 1659 
z
" transform="scale(0.015625)"/>
      <path id="Arial-BoldMT-57" d="M 1981 3319 
L 1981 2619 
L 1381 2619 
L 1381 1281 
Q 1381 875 1398 808 
Q 1416 741 1477 697 
Q 1538 653 1625 653 
Q 1747 653 1978 738 
L 2053 56 
Q 1747 -75 1359 -75 
Q 1122 -75 931 4 
Q 741 84 652 211 
Q 563 338 528 553 
Q 500 706 500 1172 
L 500 2619 
L 97 2619 
L 97 3319 
L 500 3319 
L 500 3978 
L 1381 4491 
L 1381 3319 
L 1981 3319 
z
" transform="scale(0.015625)"/>
      <path id="Arial-BoldMT-47" d="M 3503 0 
L 2688 0 
L 2688 488 
Q 2484 203 2207 64 
Q 1931 -75 1650 -75 
Q 1078 -75 670 386 
Q 263 847 263 1672 
Q 263 2516 659 2955 
Q 1056 3394 1663 3394 
Q 2219 3394 2625 2931 
L 2625 4581 
L 3503 4581 
L 3503 0 
z
M 1159 1731 
Q 1159 1200 1306 963 
Q 1519 619 1900 619 
Q 2203 619 2415 876 
Q 2628 1134 2628 1647 
Q 2628 2219 2422 2470 
Q 2216 2722 1894 2722 
Q 1581 2722 1370 2473 
Q 1159 2225 1159 1731 
z
" transform="scale(0.015625)"/>
      <path id="Arial-BoldMT-55" d="M 1300 0 
L 422 0 
L 422 3319 
L 1238 3319 
L 1238 2847 
Q 1447 3181 1614 3287 
Q 1781 3394 1994 3394 
Q 2294 3394 2572 3228 
L 2300 2463 
Q 2078 2606 1888 2606 
Q 1703 2606 1575 2504 
Q 1447 2403 1373 2137 
Q 1300 1872 1300 1025 
L 1300 0 
z
" transform="scale(0.015625)"/>
      <path id="Arial-BoldMT-56" d="M 150 947 
L 1031 1081 
Q 1088 825 1259 692 
Q 1431 559 1741 559 
Q 2081 559 2253 684 
Q 2369 772 2369 919 
Q 2369 1019 2306 1084 
Q 2241 1147 2013 1200 
Q 950 1434 666 1628 
Q 272 1897 272 2375 
Q 272 2806 612 3100 
Q 953 3394 1669 3394 
Q 2350 3394 2681 3172 
Q 3013 2950 3138 2516 
L 2309 2363 
Q 2256 2556 2107 2659 
Q 1959 2763 1684 2763 
Q 1338 2763 1188 2666 
Q 1088 2597 1088 2488 
Q 1088 2394 1175 2328 
Q 1294 2241 1995 2081 
Q 2697 1922 2975 1691 
Q 3250 1456 3250 1038 
Q 3250 581 2869 253 
Q 2488 -75 1741 -75 
Q 1063 -75 667 200 
Q 272 475 150 947 
z
" transform="scale(0.015625)"/>
      <path id="Arial-BoldMT-33" d="M 466 0 
L 466 4581 
L 1950 4581 
Q 2794 4581 3050 4513 
Q 3444 4409 3709 4064 
Q 3975 3719 3975 3172 
Q 3975 2750 3822 2462 
Q 3669 2175 3433 2011 
Q 3197 1847 2953 1794 
Q 2622 1728 1994 1728 
L 1391 1728 
L 1391 0 
L 466 0 
z
M 1391 3806 
L 1391 2506 
L 1897 2506 
Q 2444 2506 2628 2578 
Q 2813 2650 2917 2803 
Q 3022 2956 3022 3159 
Q 3022 3409 2875 3571 
Q 2728 3734 2503 3775 
Q 2338 3806 1838 3806 
L 1391 3806 
z
" transform="scale(0.015625)"/>
      <path id="Arial-BoldMT-30" d="M 453 0 
L 453 4581 
L 1838 4581 
L 2669 1456 
L 3491 4581 
L 4878 4581 
L 4878 0 
L 4019 0 
L 4019 3606 
L 3109 0 
L 2219 0 
L 1313 3606 
L 1313 0 
L 453 0 
z
" transform="scale(0.015625)"/>
      <path id="Arial-BoldMT-39" d="M 1634 0 
L -3 4581 
L 1000 4581 
L 2159 1191 
L 3281 4581 
L 4263 4581 
L 2622 0 
L 1634 0 
z
" transform="scale(0.015625)"/>
      <path id="Arial-BoldMT-29" d="M 472 0 
L 472 4581 
L 3613 4581 
L 3613 3806 
L 1397 3806 
L 1397 2722 
L 3309 2722 
L 3309 1947 
L 1397 1947 
L 1397 0 
L 472 0 
z
" transform="scale(0.015625)"/>
      <path id="Arial-BoldMT-44" d="M 1116 2306 
L 319 2450 
Q 453 2931 781 3162 
Q 1109 3394 1756 3394 
Q 2344 3394 2631 3255 
Q 2919 3116 3036 2902 
Q 3153 2688 3153 2116 
L 3144 1091 
Q 3144 653 3186 445 
Q 3228 238 3344 0 
L 2475 0 
Q 2441 88 2391 259 
Q 2369 338 2359 363 
Q 2134 144 1878 34 
Q 1622 -75 1331 -75 
Q 819 -75 523 203 
Q 228 481 228 906 
Q 228 1188 362 1408 
Q 497 1628 739 1745 
Q 981 1863 1438 1950 
Q 2053 2066 2291 2166 
L 2291 2253 
Q 2291 2506 2166 2614 
Q 2041 2722 1694 2722 
Q 1459 2722 1328 2630 
Q 1197 2538 1116 2306 
z
M 2291 1594 
Q 2122 1538 1756 1459 
Q 1391 1381 1278 1306 
Q 1106 1184 1106 997 
Q 1106 813 1243 678 
Q 1381 544 1594 544 
Q 1831 544 2047 700 
Q 2206 819 2256 991 
Q 2291 1103 2291 1419 
L 2291 1594 
z
" transform="scale(0.015625)"/>
      <path id="Arial-BoldMT-24" d="M 4597 0 
L 3591 0 
L 3191 1041 
L 1359 1041 
L 981 0 
L 0 0 
L 1784 4581 
L 2763 4581 
L 4597 0 
z
M 2894 1813 
L 2263 3513 
L 1644 1813 
L 2894 1813 
z
" transform="scale(0.015625)"/>
      <path id="Arial-BoldMT-2c" d="M 438 0 
L 438 4581 
L 1363 4581 
L 1363 0 
L 438 0 
z
" transform="scale(0.015625)"/>
     </defs>
     <use xlink:href="#Arial-BoldMT-26"/>
     <use xlink:href="#Arial-BoldMT-17" transform="translate(72.21875 0)"/>
     <use xlink:href="#Arial-BoldMT-3" transform="translate(127.828125 0)"/>
     <use xlink:href="#Arial-BoldMT-51" transform="translate(155.609375 0)"/>
     <use xlink:href="#Arial-BoldMT-4c" transform="translate(216.6875 0)"/>
     <use xlink:href="#Arial-BoldMT-59" transform="translate(244.46875 0)"/>
     <use xlink:href="#Arial-BoldMT-48" transform="translate(300.078125 0)"/>
     <use xlink:href="#Arial-BoldMT-4f" transform="translate(355.6875 0)"/>
     <use xlink:href="#Arial-BoldMT-3" transform="translate(383.46875 0)"/>
     <use xlink:href="#Arial-BoldMT-15" transform="translate(411.25 0)"/>
     <use xlink:href="#Arial-BoldMT-1d" transform="translate(466.859375 0)"/>
     <use xlink:href="#Arial-BoldMT-3" transform="translate(500.15625 0)"/>
     <use xlink:href="#Arial-BoldMT-46" transform="translate(527.9375 0)"/>
     <use xlink:href="#Arial-BoldMT-52" transform="translate(583.546875 0)"/>
     <use xlink:href="#Arial-BoldMT-51" transform="translate(644.625 0)"/>
     <use xlink:href="#Arial-BoldMT-57" transform="translate(705.703125 0)"/>
     <use xlink:href="#Arial-BoldMT-48" transform="translate(739 0)"/>
     <use xlink:href="#Arial-BoldMT-51" transform="translate(794.609375 0)"/>
     <use xlink:href="#Arial-BoldMT-48" transform="translate(855.6875 0)"/>
     <use xlink:href="#Arial-BoldMT-47" transform="translate(911.296875 0)"/>
     <use xlink:href="#Arial-BoldMT-52" transform="translate(972.375 0)"/>
     <use xlink:href="#Arial-BoldMT-55" transform="translate(1033.453125 0)"/>
     <use xlink:href="#Arial-BoldMT-48" transform="translate(1072.375 0)"/>
     <use xlink:href="#Arial-BoldMT-56" transform="translate(1127.984375 0)"/>
     <use xlink:href="#Arial-BoldMT-3" transform="translate(1183.59375 0)"/>
     <use xlink:href="#Arial-BoldMT-47" transform="translate(1211.375 0)"/>
     <use xlink:href="#Arial-BoldMT-48" transform="translate(1272.453125 0)"/>
     <use xlink:href="#Arial-BoldMT-4f" transform="translate(1328.0625 0)"/>
     <use xlink:href="#Arial-BoldMT-3" transform="translate(1355.84375 0)"/>
     <use xlink:href="#Arial-BoldMT-33" transform="translate(1383.625 0)"/>
     <use xlink:href="#Arial-BoldMT-30" transform="translate(1450.328125 0)"/>
     <use xlink:href="#Arial-BoldMT-39" transform="translate(1533.625 0)"/>
     <use xlink:href="#Arial-BoldMT-3" transform="translate(1600.328125 0)"/>
     <use xlink:href="#Arial-BoldMT-29" transform="translate(1628.109375 0)"/>
     <use xlink:href="#Arial-BoldMT-44" transform="translate(1689.1875 0)"/>
     <use xlink:href="#Arial-BoldMT-56" transform="translate(1744.796875 0)"/>
     <use xlink:href="#Arial-BoldMT-57" transform="translate(1800.40625 0)"/>
     <use xlink:href="#Arial-BoldMT-24" transform="translate(1833.703125 0)"/>
     <use xlink:href="#Arial-BoldMT-33" transform="translate(1905.921875 0)"/>
     <use xlink:href="#Arial-BoldMT-2c" transform="translate(1972.625 0)"/>
    </g>
   </g>
   <g id="text_2">
    <!-- Sistema de detección temprana de anemia -->
    <g style="fill: #4a5a6a" transform="translate(330.32125 61.740625) scale(0.16 -0.16)">
     <defs>
      <path id="ArialMT-36" d="M 288 1472 
L 859 1522 
Q 900 1178 1048 958 
Q 1197 738 1509 602 
Q 1822 466 2213 466 
Q 2559 466 2825 569 
Q 3091 672 3220 851 
Q 3350 1031 3350 1244 
Q 3350 1459 3225 1620 
Q 3100 1781 2813 1891 
Q 2628 1963 1997 2114 
Q 1366 2266 1113 2400 
Q 784 2572 623 2826 
Q 463 3081 463 3397 
Q 463 3744 659 4045 
Q 856 4347 1234 4503 
Q 1613 4659 2075 4659 
Q 2584 4659 2973 4495 
Q 3363 4331 3572 4012 
Q 3781 3694 3797 3291 
L 3216 3247 
Q 3169 3681 2898 3903 
Q 2628 4125 2100 4125 
Q 1550 4125 1298 3923 
Q 1047 3722 1047 3438 
Q 1047 3191 1225 3031 
Q 1400 2872 2139 2705 
Q 2878 2538 3153 2413 
Q 3553 2228 3743 1945 
Q 3934 1663 3934 1294 
Q 3934 928 3725 604 
Q 3516 281 3123 101 
Q 2731 -78 2241 -78 
Q 1619 -78 1198 103 
Q 778 284 539 648 
Q 300 1013 288 1472 
z
" transform="scale(0.015625)"/>
      <path id="ArialMT-4c" d="M 425 3934 
L 425 4581 
L 988 4581 
L 988 3934 
L 425 3934 
z
M 425 0 
L 425 3319 
L 988 3319 
L 988 0 
L 425 0 
z
" transform="scale(0.015625)"/>
      <path id="ArialMT-56" d="M 197 991 
L 753 1078 
Q 800 744 1014 566 
Q 1228 388 1613 388 
Q 2000 388 2187 545 
Q 2375 703 2375 916 
Q 2375 1106 2209 1216 
Q 2094 1291 1634 1406 
Q 1016 1563 777 1677 
Q 538 1791 414 1992 
Q 291 2194 291 2438 
Q 291 2659 392 2848 
Q 494 3038 669 3163 
Q 800 3259 1026 3326 
Q 1253 3394 1513 3394 
Q 1903 3394 2198 3281 
Q 2494 3169 2634 2976 
Q 2775 2784 2828 2463 
L 2278 2388 
Q 2241 2644 2061 2787 
Q 1881 2931 1553 2931 
Q 1166 2931 1000 2803 
Q 834 2675 834 2503 
Q 834 2394 903 2306 
Q 972 2216 1119 2156 
Q 1203 2125 1616 2013 
Q 2213 1853 2448 1751 
Q 2684 1650 2818 1456 
Q 2953 1263 2953 975 
Q 2953 694 2789 445 
Q 2625 197 2315 61 
Q 2006 -75 1616 -75 
Q 969 -75 630 194 
Q 291 463 197 991 
z
" transform="scale(0.015625)"/>
      <path id="ArialMT-57" d="M 1650 503 
L 1731 6 
Q 1494 -44 1306 -44 
Q 1000 -44 831 53 
Q 663 150 594 308 
Q 525 466 525 972 
L 525 2881 
L 113 2881 
L 113 3319 
L 525 3319 
L 525 4141 
L 1084 4478 
L 1084 3319 
L 1650 3319 
L 1650 2881 
L 1084 2881 
L 1084 941 
Q 1084 700 1114 631 
Q 1144 563 1211 522 
Q 1278 481 1403 481 
Q 1497 481 1650 503 
z
" transform="scale(0.015625)"/>
      <path id="ArialMT-48" d="M 2694 1069 
L 3275 997 
Q 3138 488 2766 206 
Q 2394 -75 1816 -75 
Q 1088 -75 661 373 
Q 234 822 234 1631 
Q 234 2469 665 2931 
Q 1097 3394 1784 3394 
Q 2450 3394 2872 2941 
Q 3294 2488 3294 1666 
Q 3294 1616 3291 1516 
L 816 1516 
Q 847 969 1125 678 
Q 1403 388 1819 388 
Q 2128 388 2347 550 
Q 2566 713 2694 1069 
z
M 847 1978 
L 2700 1978 
Q 2663 2397 2488 2606 
Q 2219 2931 1791 2931 
Q 1403 2931 1139 2672 
Q 875 2413 847 1978 
z
" transform="scale(0.015625)"/>
      <path id="ArialMT-50" d="M 422 0 
L 422 3319 
L 925 3319 
L 925 2853 
Q 1081 3097 1340 3245 
Q 1600 3394 1931 3394 
Q 2300 3394 2536 3241 
Q 2772 3088 2869 2813 
Q 3263 3394 3894 3394 
Q 4388 3394 4653 3120 
Q 4919 2847 4919 2278 
L 4919 0 
L 4359 0 
L 4359 2091 
Q 4359 2428 4304 2576 
Q 4250 2725 4106 2815 
Q 3963 2906 3769 2906 
Q 3419 2906 3187 2673 
Q 2956 2441 2956 1928 
L 2956 0 
L 2394 0 
L 2394 2156 
Q 2394 2531 2256 2718 
Q 2119 2906 1806 2906 
Q 1569 2906 1367 2781 
Q 1166 2656 1075 2415 
Q 984 2175 984 1722 
L 984 0 
L 422 0 
z
" transform="scale(0.015625)"/>
      <path id="ArialMT-44" d="M 2588 409 
Q 2275 144 1986 34 
Q 1697 -75 1366 -75 
Q 819 -75 525 192 
Q 231 459 231 875 
Q 231 1119 342 1320 
Q 453 1522 633 1644 
Q 813 1766 1038 1828 
Q 1203 1872 1538 1913 
Q 2219 1994 2541 2106 
Q 2544 2222 2544 2253 
Q 2544 2597 2384 2738 
Q 2169 2928 1744 2928 
Q 1347 2928 1158 2789 
Q 969 2650 878 2297 
L 328 2372 
Q 403 2725 575 2942 
Q 747 3159 1072 3276 
Q 1397 3394 1825 3394 
Q 2250 3394 2515 3294 
Q 2781 3194 2906 3042 
Q 3031 2891 3081 2659 
Q 3109 2516 3109 2141 
L 3109 1391 
Q 3109 606 3145 398 
Q 3181 191 3288 0 
L 2700 0 
Q 2613 175 2588 409 
z
M 2541 1666 
Q 2234 1541 1622 1453 
Q 1275 1403 1131 1340 
Q 988 1278 909 1158 
Q 831 1038 831 891 
Q 831 666 1001 516 
Q 1172 366 1500 366 
Q 1825 366 2078 508 
Q 2331 650 2450 897 
Q 2541 1088 2541 1459 
L 2541 1666 
z
" transform="scale(0.015625)"/>
      <path id="ArialMT-3" transform="scale(0.015625)"/>
      <path id="ArialMT-47" d="M 2575 0 
L 2575 419 
Q 2259 -75 1647 -75 
Q 1250 -75 917 144 
Q 584 363 401 755 
Q 219 1147 219 1656 
Q 219 2153 384 2558 
Q 550 2963 881 3178 
Q 1213 3394 1622 3394 
Q 1922 3394 2156 3267 
Q 2391 3141 2538 2938 
L 2538 4581 
L 3097 4581 
L 3097 0 
L 2575 0 
z
M 797 1656 
Q 797 1019 1065 703 
Q 1334 388 1700 388 
Q 2069 388 2326 689 
Q 2584 991 2584 1609 
Q 2584 2291 2321 2609 
Q 2059 2928 1675 2928 
Q 1300 2928 1048 2622 
Q 797 2316 797 1656 
z
" transform="scale(0.015625)"/>
      <path id="ArialMT-46" d="M 2588 1216 
L 3141 1144 
Q 3050 572 2676 248 
Q 2303 -75 1759 -75 
Q 1078 -75 664 370 
Q 250 816 250 1647 
Q 250 2184 428 2587 
Q 606 2991 970 3192 
Q 1334 3394 1763 3394 
Q 2303 3394 2647 3120 
Q 2991 2847 3088 2344 
L 2541 2259 
Q 2463 2594 2264 2762 
Q 2066 2931 1784 2931 
Q 1359 2931 1093 2626 
Q 828 2322 828 1663 
Q 828 994 1084 691 
Q 1341 388 1753 388 
Q 2084 388 2306 591 
Q 2528 794 2588 1216 
z
" transform="scale(0.015625)"/>
      <path id="ArialMT-79" d="M 213 1659 
Q 213 2581 725 3025 
Q 1153 3394 1769 3394 
Q 2453 3394 2887 2945 
Q 3322 2497 3322 1706 
Q 3322 1066 3130 698 
Q 2938 331 2570 128 
Q 2203 -75 1769 -75 
Q 1072 -75 642 372 
Q 213 819 213 1659 
z
M 791 1659 
Q 791 1022 1069 705 
Q 1347 388 1769 388 
Q 2188 388 2466 706 
Q 2744 1025 2744 1678 
Q 2744 2294 2464 2611 
Q 2184 2928 1769 2928 
Q 1347 2928 1069 2612 
Q 791 2297 791 1659 
z
M 1457 3731 
L 1872 4606 
L 2610 4606 
L 1922 3731 
L 1457 3731 
z
" transform="scale(0.015625)"/>
      <path id="ArialMT-51" d="M 422 0 
L 422 3319 
L 928 3319 
L 928 2847 
Q 1294 3394 1984 3394 
Q 2284 3394 2536 3286 
Q 2788 3178 2913 3003 
Q 3038 2828 3088 2588 
Q 3119 2431 3119 2041 
L 3119 0 
L 2556 0 
L 2556 2019 
Q 2556 2363 2490 2533 
Q 2425 2703 2258 2804 
Q 2091 2906 1866 2906 
Q 1506 2906 1245 2678 
Q 984 2450 984 1813 
L 984 0 
L 422 0 
z
" transform="scale(0.015625)"/>
      <path id="ArialMT-53" d="M 422 -1272 
L 422 3319 
L 934 3319 
L 934 2888 
Q 1116 3141 1344 3267 
Q 1572 3394 1897 3394 
Q 2322 3394 2647 3175 
Q 2972 2956 3137 2557 
Q 3303 2159 3303 1684 
Q 3303 1175 3120 767 
Q 2938 359 2589 142 
Q 2241 -75 1856 -75 
Q 1575 -75 1351 44 
Q 1128 163 984 344 
L 984 -1272 
L 422 -1272 
z
M 931 1641 
Q 931 1000 1190 694 
Q 1450 388 1819 388 
Q 2194 388 2461 705 
Q 2728 1022 2728 1688 
Q 2728 2322 2467 2637 
Q 2206 2953 1844 2953 
Q 1484 2953 1207 2617 
Q 931 2281 931 1641 
z
" transform="scale(0.015625)"/>
      <path id="ArialMT-55" d="M 416 0 
L 416 3319 
L 922 3319 
L 922 2816 
Q 1116 3169 1280 3281 
Q 1444 3394 1641 3394 
Q 1925 3394 2219 3213 
L 2025 2691 
Q 1819 2813 1613 2813 
Q 1428 2813 1281 2702 
Q 1134 2591 1072 2394 
Q 978 2094 978 1738 
L 978 0 
L 416 0 
z
" transform="scale(0.015625)"/>
     </defs>
     <use xlink:href="#ArialMT-36"/>
     <use xlink:href="#ArialMT-4c" transform="translate(66.703125 0)"/>
     <use xlink:href="#ArialMT-56" transform="translate(88.921875 0)"/>
     <use xlink:href="#ArialMT-57" transform="translate(138.921875 0)"/>
     <use xlink:href="#ArialMT-48" transform="translate(166.703125 0)"/>
     <use xlink:href="#ArialMT-50" transform="translate(222.3125 0)"/>
     <use xlink:href="#ArialMT-44" transform="translate(305.609375 0)"/>
     <use xlink:href="#ArialMT-3" transform="translate(361.21875 0)"/>
     <use xlink:href="#ArialMT-47" transform="translate(389 0)"/>
     <use xlink:href="#ArialMT-48" transform="translate(444.609375 0)"/>
     <use xlink:href="#ArialMT-3" transform="translate(500.21875 0)"/>
     <use xlink:href="#ArialMT-47" transform="translate(528 0)"/>
     <use xlink:href="#ArialMT-48" transform="translate(583.609375 0)"/>
     <use xlink:href="#ArialMT-57" transform="translate(639.21875 0)"/>
     <use xlink:href="#ArialMT-48" transform="translate(667 0)"/>
     <use xlink:href="#ArialMT-46" transform="translate(722.609375 0)"/>
     <use xlink:href="#ArialMT-46" transform="translate(772.609375 0)"/>
     <use xlink:href="#ArialMT-4c" transform="translate(822.609375 0)"/>
     <use xlink:href="#ArialMT-79" transform="translate(844.828125 0)"/>
     <use xlink:href="#ArialMT-51" transform="translate(900.4375 0)"/>
     <use xlink:href="#ArialMT-3" transform="translate(956.046875 0)"/>
     <use xlink:href="#ArialMT-57" transform="translate(983.828125 0)"/>
     <use xlink:href="#ArialMT-48" transform="translate(1011.609375 0)"/>
     <use xlink:href="#ArialMT-50" transform="translate(1067.21875 0)"/>
     <use xlink:href="#ArialMT-53" transform="translate(1150.515625 0)"/>
     <use xlink:href="#ArialMT-55" transform="translate(1206.125 0)"/>
     <use xlink:href="#ArialMT-44" transform="translate(1239.421875 0)"/>
     <use xlink:href="#ArialMT-51" transform="translate(1295.03125 0)"/>
     <use xlink:href="#ArialMT-44" transform="translate(1350.640625 0)"/>
     <use xlink:href="#ArialMT-3" transform="translate(1406.25 0)"/>
     <use xlink:href="#ArialMT-47" transform="translate(1434.03125 0)"/>
     <use xlink:href="#ArialMT-48" transform="translate(1489.640625 0)"/>
     <use xlink:href="#ArialMT-3" transform="translate(1545.25 0)"/>
     <use xlink:href="#ArialMT-44" transform="translate(1573.03125 0)"/>
     <use xlink:href="#ArialMT-51" transform="translate(1628.640625 0)"/>
     <use xlink:href="#ArialMT-48" transform="translate(1684.25 0)"/>
     <use xlink:href="#ArialMT-50" transform="translate(1739.859375 0)"/>
     <use xlink:href="#ArialMT-4c" transform="translate(1823.15625 0)"/>
     <use xlink:href="#ArialMT-44" transform="translate(1845.375 0)"/>
    </g>
   </g>
   <g id="text_3">
    <!-- Personal -->
    <g style="fill: #1f2d3d" transform="translate(49.4275 111.447734) scale(0.16 -0.16)">
     <defs>
      <path id="ArialMT-33" d="M 494 0 
L 494 4581 
L 2222 4581 
Q 2678 4581 2919 4538 
Q 3256 4481 3484 4323 
Q 3713 4166 3852 3881 
Q 3991 3597 3991 3256 
Q 3991 2672 3619 2267 
Q 3247 1863 2275 1863 
L 1100 1863 
L 1100 0 
L 494 0 
z
M 1100 2403 
L 2284 2403 
Q 2872 2403 3119 2622 
Q 3366 2841 3366 3238 
Q 3366 3525 3220 3729 
Q 3075 3934 2838 4000 
Q 2684 4041 2272 4041 
L 1100 4041 
L 1100 2403 
z
" transform="scale(0.015625)"/>
      <path id="ArialMT-52" d="M 213 1659 
Q 213 2581 725 3025 
Q 1153 3394 1769 3394 
Q 2453 3394 2887 2945 
Q 3322 2497 3322 1706 
Q 3322 1066 3130 698 
Q 2938 331 2570 128 
Q 2203 -75 1769 -75 
Q 1072 -75 642 372 
Q 213 819 213 1659 
z
M 791 1659 
Q 791 1022 1069 705 
Q 1347 388 1769 388 
Q 2188 388 2466 706 
Q 2744 1025 2744 1678 
Q 2744 2294 2464 2611 
Q 2184 2928 1769 2928 
Q 1347 2928 1069 2612 
Q 791 2297 791 1659 
z
" transform="scale(0.015625)"/>
      <path id="ArialMT-4f" d="M 409 0 
L 409 4581 
L 972 4581 
L 972 0 
L 409 0 
z
" transform="scale(0.015625)"/>
     </defs>
     <use xlink:href="#ArialMT-33"/>
     <use xlink:href="#ArialMT-48" transform="translate(66.703125 0)"/>
     <use xlink:href="#ArialMT-55" transform="translate(122.3125 0)"/>
     <use xlink:href="#ArialMT-56" transform="translate(155.609375 0)"/>
     <use xlink:href="#ArialMT-52" transform="translate(205.609375 0)"/>
     <use xlink:href="#ArialMT-51" transform="translate(261.21875 0)"/>
     <use xlink:href="#ArialMT-44" transform="translate(316.828125 0)"/>
     <use xlink:href="#ArialMT-4f" transform="translate(372.4375 0)"/>
    </g>
    <!-- de salud -->
    <g style="fill: #1f2d3d" transform="translate(50.75625 130.217266) scale(0.16 -0.16)">
     <defs>
      <path id="ArialMT-58" d="M 2597 0 
L 2597 488 
Q 2209 -75 1544 -75 
Q 1250 -75 995 37 
Q 741 150 617 320 
Q 494 491 444 738 
Q 409 903 409 1263 
L 409 3319 
L 972 3319 
L 972 1478 
Q 972 1038 1006 884 
Q 1059 663 1231 536 
Q 1403 409 1656 409 
Q 1909 409 2131 539 
Q 2353 669 2445 892 
Q 2538 1116 2538 1541 
L 2538 3319 
L 3100 3319 
L 3100 0 
L 2597 0 
z
" transform="scale(0.015625)"/>
     </defs>
     <use xlink:href="#ArialMT-47"/>
     <use xlink:href="#ArialMT-48" transform="translate(55.609375 0)"/>
     <use xlink:href="#ArialMT-3" transform="translate(111.21875 0)"/>
     <use xlink:href="#ArialMT-56" transform="translate(139 0)"/>
     <use xlink:href="#ArialMT-44" transform="translate(189 0)"/>
     <use xlink:href="#ArialMT-4f" transform="translate(244.609375 0)"/>
     <use xlink:href="#ArialMT-58" transform="translate(266.828125 0)"/>
     <use xlink:href="#ArialMT-47" transform="translate(322.4375 0)"/>
    </g>
   </g>
   <g id="text_4">
    <!-- Gestión -->
    <g style="fill: #1f2d3d" transform="translate(53.43125 208.741484) scale(0.16 -0.16)">
     <defs>
      <path id="ArialMT-2a" d="M 2638 1797 
L 2638 2334 
L 4578 2338 
L 4578 638 
Q 4131 281 3656 101 
Q 3181 -78 2681 -78 
Q 2006 -78 1454 211 
Q 903 500 622 1047 
Q 341 1594 341 2269 
Q 341 2938 620 3517 
Q 900 4097 1425 4378 
Q 1950 4659 2634 4659 
Q 3131 4659 3532 4498 
Q 3934 4338 4162 4050 
Q 4391 3763 4509 3300 
L 3963 3150 
Q 3859 3500 3706 3700 
Q 3553 3900 3268 4020 
Q 2984 4141 2638 4141 
Q 2222 4141 1919 4014 
Q 1616 3888 1430 3681 
Q 1244 3475 1141 3228 
Q 966 2803 966 2306 
Q 966 1694 1177 1281 
Q 1388 869 1791 669 
Q 2194 469 2647 469 
Q 3041 469 3416 620 
Q 3791 772 3984 944 
L 3984 1797 
L 2638 1797 
z
" transform="scale(0.015625)"/>
     </defs>
     <use xlink:href="#ArialMT-2a"/>
     <use xlink:href="#ArialMT-48" transform="translate(77.78125 0)"/>
     <use xlink:href="#ArialMT-56" transform="translate(133.390625 0)"/>
     <use xlink:href="#ArialMT-57" transform="translate(183.390625 0)"/>
     <use xlink:href="#ArialMT-4c" transform="translate(211.171875 0)"/>
     <use xlink:href="#ArialMT-79" transform="translate(233.390625 0)"/>
     <use xlink:href="#ArialMT-51" transform="translate(289 0)"/>
    </g>
    <!-- territorial -->
    <g style="fill: #1f2d3d" transform="translate(49.885 227.417266) scale(0.16 -0.16)">
     <use xlink:href="#ArialMT-57"/>
     <use xlink:href="#ArialMT-48" transform="translate(27.78125 0)"/>
     <use xlink:href="#ArialMT-55" transform="translate(83.390625 0)"/>
     <use xlink:href="#ArialMT-55" transform="translate(116.6875 0)"/>
     <use xlink:href="#ArialMT-4c" transform="translate(149.984375 0)"/>
     <use xlink:href="#ArialMT-57" transform="translate(172.203125 0)"/>
     <use xlink:href="#ArialMT-52" transform="translate(199.984375 0)"/>
     <use xlink:href="#ArialMT-55" transform="translate(255.59375 0)"/>
     <use xlink:href="#ArialMT-4c" transform="translate(288.890625 0)"/>
     <use xlink:href="#ArialMT-44" transform="translate(311.109375 0)"/>
     <use xlink:href="#ArialMT-4f" transform="translate(366.71875 0)"/>
    </g>
   </g>
   <g id="text_5">
    <!-- Cliente PWA -->
    <g style="fill: #1f2d3d" transform="translate(230.08375 94.448438) scale(0.16 -0.16)">
     <defs>
      <path id="Arial-BoldMT-3a" d="M 1116 0 
L 22 4581 
L 969 4581 
L 1659 1434 
L 2497 4581 
L 3597 4581 
L 4400 1381 
L 5103 4581 
L 6034 4581 
L 4922 0 
L 3941 0 
L 3028 3425 
L 2119 0 
L 1116 0 
z
" transform="scale(0.015625)"/>
     </defs>
     <use xlink:href="#Arial-BoldMT-26"/>
     <use xlink:href="#Arial-BoldMT-4f" transform="translate(72.21875 0)"/>
     <use xlink:href="#Arial-BoldMT-4c" transform="translate(100 0)"/>
     <use xlink:href="#Arial-BoldMT-48" transform="translate(127.78125 0)"/>
     <use xlink:href="#Arial-BoldMT-51" transform="translate(183.390625 0)"/>
     <use xlink:href="#Arial-BoldMT-57" transform="translate(244.46875 0)"/>
     <use xlink:href="#Arial-BoldMT-48" transform="translate(277.765625 0)"/>
     <use xlink:href="#Arial-BoldMT-3" transform="translate(333.375 0)"/>
     <use xlink:href="#Arial-BoldMT-33" transform="translate(361.15625 0)"/>
     <use xlink:href="#Arial-BoldMT-3a" transform="translate(427.859375 0)"/>
     <use xlink:href="#Arial-BoldMT-24" transform="translate(516.734375 0)"/>
    </g>
   </g>
   <g id="text_6">
    <!-- HTML, CSS, JS -->
    <g style="fill: #1f2d3d" transform="translate(220.7475 122.076016) scale(0.16 -0.16)">
     <defs>
      <path id="ArialMT-2b" d="M 513 0 
L 513 4581 
L 1119 4581 
L 1119 2700 
L 3500 2700 
L 3500 4581 
L 4106 4581 
L 4106 0 
L 3500 0 
L 3500 2159 
L 1119 2159 
L 1119 0 
L 513 0 
z
" transform="scale(0.015625)"/>
      <path id="ArialMT-37" d="M 1659 0 
L 1659 4041 
L 150 4041 
L 150 4581 
L 3781 4581 
L 3781 4041 
L 2266 4041 
L 2266 0 
L 1659 0 
z
" transform="scale(0.015625)"/>
      <path id="ArialMT-30" d="M 475 0 
L 475 4581 
L 1388 4581 
L 2472 1338 
Q 2622 884 2691 659 
Q 2769 909 2934 1394 
L 4031 4581 
L 4847 4581 
L 4847 0 
L 4263 0 
L 4263 3834 
L 2931 0 
L 2384 0 
L 1059 3900 
L 1059 0 
L 475 0 
z
" transform="scale(0.015625)"/>
      <path id="ArialMT-2f" d="M 469 0 
L 469 4581 
L 1075 4581 
L 1075 541 
L 3331 541 
L 3331 0 
L 469 0 
z
" transform="scale(0.015625)"/>
      <path id="ArialMT-f" d="M 569 0 
L 569 641 
L 1209 641 
L 1209 0 
Q 1209 -353 1084 -570 
Q 959 -788 688 -906 
L 531 -666 
Q 709 -588 793 -436 
Q 878 -284 888 0 
L 569 0 
z
" transform="scale(0.015625)"/>
      <path id="ArialMT-26" d="M 3763 1606 
L 4369 1453 
Q 4178 706 3683 314 
Q 3188 -78 2472 -78 
Q 1731 -78 1267 223 
Q 803 525 561 1097 
Q 319 1669 319 2325 
Q 319 3041 592 3573 
Q 866 4106 1370 4382 
Q 1875 4659 2481 4659 
Q 3169 4659 3637 4309 
Q 4106 3959 4291 3325 
L 3694 3184 
Q 3534 3684 3231 3912 
Q 2928 4141 2469 4141 
Q 1941 4141 1586 3887 
Q 1231 3634 1087 3207 
Q 944 2781 944 2328 
Q 944 1744 1114 1308 
Q 1284 872 1643 656 
Q 2003 441 2422 441 
Q 2931 441 3284 734 
Q 3638 1028 3763 1606 
z
" transform="scale(0.015625)"/>
      <path id="ArialMT-2d" d="M 184 1300 
L 731 1375 
Q 753 850 928 656 
Q 1103 463 1413 463 
Q 1641 463 1806 567 
Q 1972 672 2034 851 
Q 2097 1031 2097 1425 
L 2097 4581 
L 2703 4581 
L 2703 1459 
Q 2703 884 2564 568 
Q 2425 253 2123 87 
Q 1822 -78 1416 -78 
Q 813 -78 492 269 
Q 172 616 184 1300 
z
" transform="scale(0.015625)"/>
     </defs>
     <use xlink:href="#ArialMT-2b"/>
     <use xlink:href="#ArialMT-37" transform="translate(72.21875 0)"/>
     <use xlink:href="#ArialMT-30" transform="translate(133.296875 0)"/>
     <use xlink:href="#ArialMT-2f" transform="translate(216.59375 0)"/>
     <use xlink:href="#ArialMT-f" transform="translate(272.203125 0)"/>
     <use xlink:href="#ArialMT-3" transform="translate(299.984375 0)"/>
     <use xlink:href="#ArialMT-26" transform="translate(327.765625 0)"/>
     <use xlink:href="#ArialMT-36" transform="translate(399.984375 0)"/>
     <use xlink:href="#ArialMT-36" transform="translate(466.6875 0)"/>
     <use xlink:href="#ArialMT-f" transform="translate(533.390625 0)"/>
     <use xlink:href="#ArialMT-3" transform="translate(561.171875 0)"/>
     <use xlink:href="#ArialMT-2d" transform="translate(588.953125 0)"/>
     <use xlink:href="#ArialMT-36" transform="translate(638.953125 0)"/>
    </g>
    <!-- Service Worker -->
    <g style="fill: #1f2d3d" transform="translate(222.67125 141.880547) scale(0.16 -0.16)">
     <defs>
      <path id="ArialMT-59" d="M 1344 0 
L 81 3319 
L 675 3319 
L 1388 1331 
Q 1503 1009 1600 663 
Q 1675 925 1809 1294 
L 2547 3319 
L 3125 3319 
L 1869 0 
L 1344 0 
z
" transform="scale(0.015625)"/>
      <path id="ArialMT-3a" d="M 1294 0 
L 78 4581 
L 700 4581 
L 1397 1578 
Q 1509 1106 1591 641 
Q 1766 1375 1797 1488 
L 2669 4581 
L 3400 4581 
L 4056 2263 
Q 4303 1400 4413 641 
Q 4500 1075 4641 1638 
L 5359 4581 
L 5969 4581 
L 4713 0 
L 4128 0 
L 3163 3491 
Q 3041 3928 3019 4028 
Q 2947 3713 2884 3491 
L 1913 0 
L 1294 0 
z
" transform="scale(0.015625)"/>
      <path id="ArialMT-4e" d="M 425 0 
L 425 4581 
L 988 4581 
L 988 1969 
L 2319 3319 
L 3047 3319 
L 1778 2088 
L 3175 0 
L 2481 0 
L 1384 1697 
L 988 1316 
L 988 0 
L 425 0 
z
" transform="scale(0.015625)"/>
     </defs>
     <use xlink:href="#ArialMT-36"/>
     <use xlink:href="#ArialMT-48" transform="translate(66.703125 0)"/>
     <use xlink:href="#ArialMT-55" transform="translate(122.3125 0)"/>
     <use xlink:href="#ArialMT-59" transform="translate(155.609375 0)"/>
     <use xlink:href="#ArialMT-4c" transform="translate(205.609375 0)"/>
     <use xlink:href="#ArialMT-46" transform="translate(227.828125 0)"/>
     <use xlink:href="#ArialMT-48" transform="translate(277.828125 0)"/>
     <use xlink:href="#ArialMT-3" transform="translate(333.4375 0)"/>
     <use xlink:href="#ArialMT-3a" transform="translate(361.21875 0)"/>
     <use xlink:href="#ArialMT-52" transform="translate(453.796875 0)"/>
     <use xlink:href="#ArialMT-55" transform="translate(509.40625 0)"/>
     <use xlink:href="#ArialMT-4e" transform="translate(542.703125 0)"/>
     <use xlink:href="#ArialMT-48" transform="translate(592.703125 0)"/>
     <use xlink:href="#ArialMT-55" transform="translate(648.3125 0)"/>
    </g>
   </g>
   <g id="text_7">
    <!-- Almacenamiento -->
    <g style="fill: #1f2d3d" transform="translate(213.18375 198.848437) scale(0.16 -0.16)">
     <defs>
      <path id="Arial-BoldMT-50" d="M 394 3319 
L 1203 3319 
L 1203 2866 
Q 1638 3394 2238 3394 
Q 2556 3394 2790 3262 
Q 3025 3131 3175 2866 
Q 3394 3131 3647 3262 
Q 3900 3394 4188 3394 
Q 4553 3394 4806 3245 
Q 5059 3097 5184 2809 
Q 5275 2597 5275 2122 
L 5275 0 
L 4397 0 
L 4397 1897 
Q 4397 2391 4306 2534 
Q 4184 2722 3931 2722 
Q 3747 2722 3584 2609 
Q 3422 2497 3350 2280 
Q 3278 2063 3278 1594 
L 3278 0 
L 2400 0 
L 2400 1819 
Q 2400 2303 2353 2443 
Q 2306 2584 2207 2653 
Q 2109 2722 1941 2722 
Q 1738 2722 1575 2612 
Q 1413 2503 1342 2297 
Q 1272 2091 1272 1613 
L 1272 0 
L 394 0 
L 394 3319 
z
" transform="scale(0.015625)"/>
     </defs>
     <use xlink:href="#Arial-BoldMT-24"/>
     <use xlink:href="#Arial-BoldMT-4f" transform="translate(72.21875 0)"/>
     <use xlink:href="#Arial-BoldMT-50" transform="translate(100 0)"/>
     <use xlink:href="#Arial-BoldMT-44" transform="translate(188.921875 0)"/>
     <use xlink:href="#Arial-BoldMT-46" transform="translate(244.53125 0)"/>
     <use xlink:href="#Arial-BoldMT-48" transform="translate(300.140625 0)"/>
     <use xlink:href="#Arial-BoldMT-51" transform="translate(355.75 0)"/>
     <use xlink:href="#Arial-BoldMT-44" transform="translate(416.828125 0)"/>
     <use xlink:href="#Arial-BoldMT-50" transform="translate(472.4375 0)"/>
     <use xlink:href="#Arial-BoldMT-4c" transform="translate(561.359375 0)"/>
     <use xlink:href="#Arial-BoldMT-48" transform="translate(589.140625 0)"/>
     <use xlink:href="#Arial-BoldMT-51" transform="translate(644.75 0)"/>
     <use xlink:href="#Arial-BoldMT-57" transform="translate(705.828125 0)"/>
     <use xlink:href="#Arial-BoldMT-52" transform="translate(739.125 0)"/>
    </g>
   </g>
   <g id="text_8">
    <!-- navegador: -->
    <g style="fill: #1f2d3d" transform="translate(237.1725 225.827266) scale(0.16 -0.16)">
     <defs>
      <path id="ArialMT-4a" d="M 319 -275 
L 866 -356 
Q 900 -609 1056 -725 
Q 1266 -881 1628 -881 
Q 2019 -881 2231 -725 
Q 2444 -569 2519 -288 
Q 2563 -116 2559 434 
Q 2191 0 1641 0 
Q 956 0 581 494 
Q 206 988 206 1678 
Q 206 2153 378 2554 
Q 550 2956 876 3175 
Q 1203 3394 1644 3394 
Q 2231 3394 2613 2919 
L 2613 3319 
L 3131 3319 
L 3131 450 
Q 3131 -325 2973 -648 
Q 2816 -972 2473 -1159 
Q 2131 -1347 1631 -1347 
Q 1038 -1347 672 -1080 
Q 306 -813 319 -275 
z
M 784 1719 
Q 784 1066 1043 766 
Q 1303 466 1694 466 
Q 2081 466 2343 764 
Q 2606 1063 2606 1700 
Q 2606 2309 2336 2618 
Q 2066 2928 1684 2928 
Q 1309 2928 1046 2623 
Q 784 2319 784 1719 
z
" transform="scale(0.015625)"/>
      <path id="ArialMT-1d" d="M 578 2678 
L 578 3319 
L 1219 3319 
L 1219 2678 
L 578 2678 
z
M 578 0 
L 578 641 
L 1219 641 
L 1219 0 
L 578 0 
z
" transform="scale(0.015625)"/>
     </defs>
     <use xlink:href="#ArialMT-51"/>
     <use xlink:href="#ArialMT-44" transform="translate(55.609375 0)"/>
     <use xlink:href="#ArialMT-59" transform="translate(111.21875 0)"/>
     <use xlink:href="#ArialMT-48" transform="translate(161.21875 0)"/>
     <use xlink:href="#ArialMT-4a" transform="translate(216.828125 0)"/>
     <use xlink:href="#ArialMT-44" transform="translate(272.4375 0)"/>
     <use xlink:href="#ArialMT-47" transform="translate(328.046875 0)"/>
     <use xlink:href="#ArialMT-52" transform="translate(383.65625 0)"/>
     <use xlink:href="#ArialMT-55" transform="translate(439.265625 0)"/>
     <use xlink:href="#ArialMT-1d" transform="translate(472.5625 0)"/>
    </g>
    <!-- borrador y caché -->
    <g style="fill: #1f2d3d" transform="translate(217.17375 244.628047) scale(0.16 -0.16)">
     <defs>
      <path id="ArialMT-45" d="M 941 0 
L 419 0 
L 419 4581 
L 981 4581 
L 981 2947 
Q 1338 3394 1891 3394 
Q 2197 3394 2470 3270 
Q 2744 3147 2920 2923 
Q 3097 2700 3197 2384 
Q 3297 2069 3297 1709 
Q 3297 856 2875 390 
Q 2453 -75 1863 -75 
Q 1275 -75 941 416 
L 941 0 
z
M 934 1684 
Q 934 1088 1097 822 
Q 1363 388 1816 388 
Q 2184 388 2453 708 
Q 2722 1028 2722 1663 
Q 2722 2313 2464 2622 
Q 2206 2931 1841 2931 
Q 1472 2931 1203 2611 
Q 934 2291 934 1684 
z
" transform="scale(0.015625)"/>
      <path id="ArialMT-5c" d="M 397 -1278 
L 334 -750 
Q 519 -800 656 -800 
Q 844 -800 956 -737 
Q 1069 -675 1141 -563 
Q 1194 -478 1313 -144 
Q 1328 -97 1363 -6 
L 103 3319 
L 709 3319 
L 1400 1397 
Q 1534 1031 1641 628 
Q 1738 1016 1872 1384 
L 2581 3319 
L 3144 3319 
L 1881 -56 
Q 1678 -603 1566 -809 
Q 1416 -1088 1222 -1217 
Q 1028 -1347 759 -1347 
Q 597 -1347 397 -1278 
z
" transform="scale(0.015625)"/>
      <path id="ArialMT-4b" d="M 422 0 
L 422 4581 
L 984 4581 
L 984 2938 
Q 1378 3394 1978 3394 
Q 2347 3394 2619 3248 
Q 2891 3103 3008 2847 
Q 3125 2591 3125 2103 
L 3125 0 
L 2563 0 
L 2563 2103 
Q 2563 2525 2380 2717 
Q 2197 2909 1863 2909 
Q 1613 2909 1392 2779 
Q 1172 2650 1078 2428 
Q 984 2206 984 1816 
L 984 0 
L 422 0 
z
" transform="scale(0.015625)"/>
      <path id="ArialMT-70" d="M 2694 1069 
L 3275 997 
Q 3138 488 2766 206 
Q 2394 -75 1816 -75 
Q 1088 -75 661 373 
Q 234 822 234 1631 
Q 234 2469 665 2931 
Q 1097 3394 1784 3394 
Q 2450 3394 2872 2941 
Q 3294 2488 3294 1666 
Q 3294 1616 3291 1516 
L 816 1516 
Q 847 969 1125 678 
Q 1403 388 1819 388 
Q 2128 388 2347 550 
Q 2566 713 2694 1069 
z
M 847 1978 
L 2700 1978 
Q 2663 2397 2488 2606 
Q 2219 2931 1791 2931 
Q 1403 2931 1139 2672 
Q 875 2413 847 1978 
z
M 1453 3731 
L 1868 4606 
L 2606 4606 
L 1918 3731 
L 1453 3731 
z
" transform="scale(0.015625)"/>
     </defs>
     <use xlink:href="#ArialMT-45"/>
     <use xlink:href="#ArialMT-52" transform="translate(55.609375 0)"/>
     <use xlink:href="#ArialMT-55" transform="translate(111.21875 0)"/>
     <use xlink:href="#ArialMT-55" transform="translate(144.515625 0)"/>
     <use xlink:href="#ArialMT-44" transform="translate(177.8125 0)"/>
     <use xlink:href="#ArialMT-47" transform="translate(233.421875 0)"/>
     <use xlink:href="#ArialMT-52" transform="translate(289.03125 0)"/>
     <use xlink:href="#ArialMT-55" transform="translate(344.640625 0)"/>
     <use xlink:href="#ArialMT-3" transform="translate(377.9375 0)"/>
     <use xlink:href="#ArialMT-5c" transform="translate(405.71875 0)"/>
     <use xlink:href="#ArialMT-3" transform="translate(455.71875 0)"/>
     <use xlink:href="#ArialMT-46" transform="translate(483.5 0)"/>
     <use xlink:href="#ArialMT-44" transform="translate(533.5 0)"/>
     <use xlink:href="#ArialMT-46" transform="translate(589.109375 0)"/>
     <use xlink:href="#ArialMT-4b" transform="translate(639.109375 0)"/>
     <use xlink:href="#ArialMT-70" transform="translate(694.71875 0)"/>
    </g>
   </g>
   <g id="text_9">
    <!-- API REST -->
    <g style="fill: #1f2d3d" transform="translate(452.705 94.448438) scale(0.16 -0.16)">
     <defs>
      <path id="Arial-BoldMT-35" d="M 469 0 
L 469 4581 
L 2416 4581 
Q 3150 4581 3483 4457 
Q 3816 4334 4016 4018 
Q 4216 3703 4216 3297 
Q 4216 2781 3912 2445 
Q 3609 2109 3006 2022 
Q 3306 1847 3501 1637 
Q 3697 1428 4028 894 
L 4588 0 
L 3481 0 
L 2813 997 
Q 2456 1531 2325 1670 
Q 2194 1809 2047 1861 
Q 1900 1913 1581 1913 
L 1394 1913 
L 1394 0 
L 469 0 
z
M 1394 2644 
L 2078 2644 
Q 2744 2644 2909 2700 
Q 3075 2756 3169 2893 
Q 3263 3031 3263 3238 
Q 3263 3469 3139 3611 
Q 3016 3753 2791 3791 
Q 2678 3806 2116 3806 
L 1394 3806 
L 1394 2644 
z
" transform="scale(0.015625)"/>
      <path id="Arial-BoldMT-28" d="M 466 0 
L 466 4581 
L 3863 4581 
L 3863 3806 
L 1391 3806 
L 1391 2791 
L 3691 2791 
L 3691 2019 
L 1391 2019 
L 1391 772 
L 3950 772 
L 3950 0 
L 466 0 
z
" transform="scale(0.015625)"/>
      <path id="Arial-BoldMT-36" d="M 231 1491 
L 1131 1578 
Q 1213 1125 1461 912 
Q 1709 700 2131 700 
Q 2578 700 2804 889 
Q 3031 1078 3031 1331 
Q 3031 1494 2936 1608 
Q 2841 1722 2603 1806 
Q 2441 1863 1863 2006 
Q 1119 2191 819 2459 
Q 397 2838 397 3381 
Q 397 3731 595 4036 
Q 794 4341 1167 4500 
Q 1541 4659 2069 4659 
Q 2931 4659 3367 4281 
Q 3803 3903 3825 3272 
L 2900 3231 
Q 2841 3584 2645 3739 
Q 2450 3894 2059 3894 
Q 1656 3894 1428 3728 
Q 1281 3622 1281 3444 
Q 1281 3281 1419 3166 
Q 1594 3019 2269 2859 
Q 2944 2700 3267 2529 
Q 3591 2359 3773 2064 
Q 3956 1769 3956 1334 
Q 3956 941 3737 597 
Q 3519 253 3119 86 
Q 2719 -81 2122 -81 
Q 1253 -81 787 320 
Q 322 722 231 1491 
z
" transform="scale(0.015625)"/>
      <path id="Arial-BoldMT-37" d="M 1497 0 
L 1497 3806 
L 138 3806 
L 138 4581 
L 3778 4581 
L 3778 3806 
L 2422 3806 
L 2422 0 
L 1497 0 
z
" transform="scale(0.015625)"/>
     </defs>
     <use xlink:href="#Arial-BoldMT-24"/>
     <use xlink:href="#Arial-BoldMT-33" transform="translate(72.21875 0)"/>
     <use xlink:href="#Arial-BoldMT-2c" transform="translate(138.921875 0)"/>
     <use xlink:href="#Arial-BoldMT-3" transform="translate(166.703125 0)"/>
     <use xlink:href="#Arial-BoldMT-35" transform="translate(194.484375 0)"/>
     <use xlink:href="#Arial-BoldMT-28" transform="translate(266.703125 0)"/>
     <use xlink:href="#Arial-BoldMT-36" transform="translate(333.40625 0)"/>
     <use xlink:href="#Arial-BoldMT-37" transform="translate(400.109375 0)"/>
    </g>
   </g>
   <g id="text_10">
    <!-- FastAPI, Python 3.11 -->
    <g style="fill: #1f2d3d" transform="translate(414.6 121.451016) scale(0.16 -0.16)">
     <defs>
      <path id="ArialMT-29" d="M 525 0 
L 525 4581 
L 3616 4581 
L 3616 4041 
L 1131 4041 
L 1131 2622 
L 3281 2622 
L 3281 2081 
L 1131 2081 
L 1131 0 
L 525 0 
z
" transform="scale(0.015625)"/>
      <path id="ArialMT-24" d="M -9 0 
L 1750 4581 
L 2403 4581 
L 4278 0 
L 3588 0 
L 3053 1388 
L 1138 1388 
L 634 0 
L -9 0 
z
M 1313 1881 
L 2866 1881 
L 2388 3150 
Q 2169 3728 2063 4100 
Q 1975 3659 1816 3225 
L 1313 1881 
z
" transform="scale(0.015625)"/>
      <path id="ArialMT-2c" d="M 597 0 
L 597 4581 
L 1203 4581 
L 1203 0 
L 597 0 
z
" transform="scale(0.015625)"/>
      <path id="ArialMT-16" d="M 269 1209 
L 831 1284 
Q 928 806 1161 595 
Q 1394 384 1728 384 
Q 2125 384 2398 659 
Q 2672 934 2672 1341 
Q 2672 1728 2419 1979 
Q 2166 2231 1775 2231 
Q 1616 2231 1378 2169 
L 1441 2663 
Q 1497 2656 1531 2656 
Q 1891 2656 2178 2843 
Q 2466 3031 2466 3422 
Q 2466 3731 2256 3934 
Q 2047 4138 1716 4138 
Q 1388 4138 1169 3931 
Q 950 3725 888 3313 
L 325 3413 
Q 428 3978 793 4289 
Q 1159 4600 1703 4600 
Q 2078 4600 2393 4439 
Q 2709 4278 2876 4000 
Q 3044 3722 3044 3409 
Q 3044 3113 2884 2869 
Q 2725 2625 2413 2481 
Q 2819 2388 3044 2092 
Q 3269 1797 3269 1353 
Q 3269 753 2831 336 
Q 2394 -81 1725 -81 
Q 1122 -81 723 278 
Q 325 638 269 1209 
z
" transform="scale(0.015625)"/>
      <path id="ArialMT-11" d="M 581 0 
L 581 641 
L 1222 641 
L 1222 0 
L 581 0 
z
" transform="scale(0.015625)"/>
      <path id="ArialMT-14" d="M 2384 0 
L 1822 0 
L 1822 3584 
Q 1619 3391 1289 3197 
Q 959 3003 697 2906 
L 697 3450 
Q 1169 3672 1522 3987 
Q 1875 4303 2022 4600 
L 2384 4600 
L 2384 0 
z
" transform="scale(0.015625)"/>
     </defs>
     <use xlink:href="#ArialMT-29"/>
     <use xlink:href="#ArialMT-44" transform="translate(61.078125 0)"/>
     <use xlink:href="#ArialMT-56" transform="translate(116.6875 0)"/>
     <use xlink:href="#ArialMT-57" transform="translate(166.6875 0)"/>
     <use xlink:href="#ArialMT-24" transform="translate(194.46875 0)"/>
     <use xlink:href="#ArialMT-33" transform="translate(261.171875 0)"/>
     <use xlink:href="#ArialMT-2c" transform="translate(327.875 0)"/>
     <use xlink:href="#ArialMT-f" transform="translate(355.65625 0)"/>
     <use xlink:href="#ArialMT-3" transform="translate(383.4375 0)"/>
     <use xlink:href="#ArialMT-33" transform="translate(411.21875 0)"/>
     <use xlink:href="#ArialMT-5c" transform="translate(477.921875 0)"/>
     <use xlink:href="#ArialMT-57" transform="translate(527.921875 0)"/>
     <use xlink:href="#ArialMT-4b" transform="translate(555.703125 0)"/>
     <use xlink:href="#ArialMT-52" transform="translate(611.3125 0)"/>
     <use xlink:href="#ArialMT-51" transform="translate(666.921875 0)"/>
     <use xlink:href="#ArialMT-3" transform="translate(722.53125 0)"/>
     <use xlink:href="#ArialMT-16" transform="translate(750.3125 0)"/>
     <use xlink:href="#ArialMT-11" transform="translate(805.921875 0)"/>
     <use xlink:href="#ArialMT-14" transform="translate(833.703125 0)"/>
     <use xlink:href="#ArialMT-14" transform="translate(881.890625 0)"/>
    </g>
    <!-- OpenAPI 3.1 -->
    <g style="fill: #1f2d3d" transform="translate(443.79375 140.393047) scale(0.16 -0.16)">
     <defs>
      <path id="ArialMT-32" d="M 309 2231 
Q 309 3372 921 4017 
Q 1534 4663 2503 4663 
Q 3138 4663 3647 4359 
Q 4156 4056 4423 3514 
Q 4691 2972 4691 2284 
Q 4691 1588 4409 1038 
Q 4128 488 3612 205 
Q 3097 -78 2500 -78 
Q 1853 -78 1343 234 
Q 834 547 571 1087 
Q 309 1628 309 2231 
z
M 934 2222 
Q 934 1394 1379 917 
Q 1825 441 2497 441 
Q 3181 441 3623 922 
Q 4066 1403 4066 2288 
Q 4066 2847 3877 3264 
Q 3688 3681 3323 3911 
Q 2959 4141 2506 4141 
Q 1863 4141 1398 3698 
Q 934 3256 934 2222 
z
" transform="scale(0.015625)"/>
     </defs>
     <use xlink:href="#ArialMT-32"/>
     <use xlink:href="#ArialMT-53" transform="translate(77.78125 0)"/>
     <use xlink:href="#ArialMT-48" transform="translate(133.390625 0)"/>
     <use xlink:href="#ArialMT-51" transform="translate(189 0)"/>
     <use xlink:href="#ArialMT-24" transform="translate(244.609375 0)"/>
     <use xlink:href="#ArialMT-33" transform="translate(311.3125 0)"/>
     <use xlink:href="#ArialMT-2c" transform="translate(378.015625 0)"/>
     <use xlink:href="#ArialMT-3" transform="translate(405.796875 0)"/>
     <use xlink:href="#ArialMT-16" transform="translate(433.578125 0)"/>
     <use xlink:href="#ArialMT-11" transform="translate(489.1875 0)"/>
     <use xlink:href="#ArialMT-14" transform="translate(516.96875 0)"/>
    </g>
   </g>
   <g id="text_11">
    <!-- Base de datos -->
    <g style="fill: #1f2d3d" transform="translate(638.7625 94.448438) scale(0.16 -0.16)">
     <defs>
      <path id="Arial-BoldMT-25" d="M 469 4581 
L 2300 4581 
Q 2844 4581 3111 4536 
Q 3378 4491 3589 4347 
Q 3800 4203 3940 3964 
Q 4081 3725 4081 3428 
Q 4081 3106 3907 2837 
Q 3734 2569 3438 2434 
Q 3856 2313 4081 2019 
Q 4306 1725 4306 1328 
Q 4306 1016 4161 720 
Q 4016 425 3764 248 
Q 3513 72 3144 31 
Q 2913 6 2028 0 
L 469 0 
L 469 4581 
z
M 1394 3819 
L 1394 2759 
L 2000 2759 
Q 2541 2759 2672 2775 
Q 2909 2803 3045 2939 
Q 3181 3075 3181 3297 
Q 3181 3509 3064 3642 
Q 2947 3775 2716 3803 
Q 2578 3819 1925 3819 
L 1394 3819 
z
M 1394 1997 
L 1394 772 
L 2250 772 
Q 2750 772 2884 800 
Q 3091 838 3220 983 
Q 3350 1128 3350 1372 
Q 3350 1578 3250 1722 
Q 3150 1866 2961 1931 
Q 2772 1997 2141 1997 
L 1394 1997 
z
" transform="scale(0.015625)"/>
     </defs>
     <use xlink:href="#Arial-BoldMT-25"/>
     <use xlink:href="#Arial-BoldMT-44" transform="translate(72.21875 0)"/>
     <use xlink:href="#Arial-BoldMT-56" transform="translate(127.828125 0)"/>
     <use xlink:href="#Arial-BoldMT-48" transform="translate(183.4375 0)"/>
     <use xlink:href="#Arial-BoldMT-3" transform="translate(239.046875 0)"/>
     <use xlink:href="#Arial-BoldMT-47" transform="translate(266.828125 0)"/>
     <use xlink:href="#Arial-BoldMT-48" transform="translate(327.90625 0)"/>
     <use xlink:href="#Arial-BoldMT-3" transform="translate(383.515625 0)"/>
     <use xlink:href="#Arial-BoldMT-47" transform="translate(411.296875 0)"/>
     <use xlink:href="#Arial-BoldMT-44" transform="translate(472.375 0)"/>
     <use xlink:href="#Arial-BoldMT-57" transform="translate(527.984375 0)"/>
     <use xlink:href="#Arial-BoldMT-52" transform="translate(561.28125 0)"/>
     <use xlink:href="#Arial-BoldMT-56" transform="translate(622.359375 0)"/>
    </g>
   </g>
   <g id="text_12">
    <!-- PostgreSQL 16 -->
    <g style="fill: #1f2d3d" transform="translate(638.6 121.529766) scale(0.16 -0.16)">
     <defs>
      <path id="ArialMT-34" d="M 3966 491 
Q 4388 200 4744 66 
L 4566 -356 
Q 4072 -178 3581 206 
Q 3072 -78 2456 -78 
Q 1834 -78 1328 222 
Q 822 522 548 1065 
Q 275 1609 275 2291 
Q 275 2969 550 3525 
Q 825 4081 1333 4372 
Q 1841 4663 2469 4663 
Q 3103 4663 3612 4361 
Q 4122 4059 4389 3517 
Q 4656 2975 4656 2294 
Q 4656 1728 4484 1276 
Q 4313 825 3966 491 
z
M 2631 1266 
Q 3156 1119 3497 828 
Q 4031 1316 4031 2294 
Q 4031 2850 3842 3265 
Q 3653 3681 3289 3911 
Q 2925 4141 2472 4141 
Q 1794 4141 1347 3677 
Q 900 3213 900 2291 
Q 900 1397 1342 919 
Q 1784 441 2472 441 
Q 2797 441 3084 563 
Q 2800 747 2484 825 
L 2631 1266 
z
" transform="scale(0.015625)"/>
      <path id="ArialMT-19" d="M 3184 3459 
L 2625 3416 
Q 2550 3747 2413 3897 
Q 2184 4138 1850 4138 
Q 1581 4138 1378 3988 
Q 1113 3794 959 3422 
Q 806 3050 800 2363 
Q 1003 2672 1297 2822 
Q 1591 2972 1913 2972 
Q 2475 2972 2870 2558 
Q 3266 2144 3266 1488 
Q 3266 1056 3080 686 
Q 2894 316 2569 119 
Q 2244 -78 1831 -78 
Q 1128 -78 684 439 
Q 241 956 241 2144 
Q 241 3472 731 4075 
Q 1159 4600 1884 4600 
Q 2425 4600 2770 4297 
Q 3116 3994 3184 3459 
z
M 888 1484 
Q 888 1194 1011 928 
Q 1134 663 1356 523 
Q 1578 384 1822 384 
Q 2178 384 2434 671 
Q 2691 959 2691 1453 
Q 2691 1928 2437 2201 
Q 2184 2475 1800 2475 
Q 1419 2475 1153 2201 
Q 888 1928 888 1484 
z
" transform="scale(0.015625)"/>
     </defs>
     <use xlink:href="#ArialMT-33"/>
     <use xlink:href="#ArialMT-52" transform="translate(66.703125 0)"/>
     <use xlink:href="#ArialMT-56" transform="translate(122.3125 0)"/>
     <use xlink:href="#ArialMT-57" transform="translate(172.3125 0)"/>
     <use xlink:href="#ArialMT-4a" transform="translate(200.09375 0)"/>
     <use xlink:href="#ArialMT-55" transform="translate(255.703125 0)"/>
     <use xlink:href="#ArialMT-48" transform="translate(289 0)"/>
     <use xlink:href="#ArialMT-36" transform="translate(344.609375 0)"/>
     <use xlink:href="#ArialMT-34" transform="translate(411.3125 0)"/>
     <use xlink:href="#ArialMT-2f" transform="translate(489.09375 0)"/>
     <use xlink:href="#ArialMT-3" transform="translate(541 0)"/>
     <use xlink:href="#ArialMT-14" transform="translate(568.78125 0)"/>
     <use xlink:href="#ArialMT-19" transform="translate(624.390625 0)"/>
    </g>
    <!-- SQLite (desarr.) -->
    <g style="fill: #1f2d3d" transform="translate(636.53875 140.299297) scale(0.16 -0.16)">
     <defs>
      <path id="ArialMT-b" d="M 1497 -1347 
Q 1031 -759 709 28 
Q 388 816 388 1659 
Q 388 2403 628 3084 
Q 909 3875 1497 4659 
L 1900 4659 
Q 1522 4009 1400 3731 
Q 1209 3300 1100 2831 
Q 966 2247 966 1656 
Q 966 153 1900 -1347 
L 1497 -1347 
z
" transform="scale(0.015625)"/>
      <path id="ArialMT-c" d="M 791 -1347 
L 388 -1347 
Q 1322 153 1322 1656 
Q 1322 2244 1188 2822 
Q 1081 3291 891 3722 
Q 769 4003 388 4659 
L 791 4659 
Q 1378 3875 1659 3084 
Q 1900 2403 1900 1659 
Q 1900 816 1576 28 
Q 1253 -759 791 -1347 
z
" transform="scale(0.015625)"/>
     </defs>
     <use xlink:href="#ArialMT-36"/>
     <use xlink:href="#ArialMT-34" transform="translate(66.703125 0)"/>
     <use xlink:href="#ArialMT-2f" transform="translate(144.484375 0)"/>
     <use xlink:href="#ArialMT-4c" transform="translate(200.09375 0)"/>
     <use xlink:href="#ArialMT-57" transform="translate(222.3125 0)"/>
     <use xlink:href="#ArialMT-48" transform="translate(250.09375 0)"/>
     <use xlink:href="#ArialMT-3" transform="translate(305.703125 0)"/>
     <use xlink:href="#ArialMT-b" transform="translate(333.484375 0)"/>
     <use xlink:href="#ArialMT-47" transform="translate(366.78125 0)"/>
     <use xlink:href="#ArialMT-48" transform="translate(422.390625 0)"/>
     <use xlink:href="#ArialMT-56" transform="translate(478 0)"/>
     <use xlink:href="#ArialMT-44" transform="translate(528 0)"/>
     <use xlink:href="#ArialMT-55" transform="translate(583.609375 0)"/>
     <use xlink:href="#ArialMT-55" transform="translate(616.90625 0)"/>
     <use xlink:href="#ArialMT-11" transform="translate(644.6875 0)"/>
     <use xlink:href="#ArialMT-c" transform="translate(672.46875 0)"/>
    </g>
   </g>
   <g id="text_13">
    <!-- GitHub Actions · CI/CD -->
    <g style="fill: #1f2d3d" transform="translate(402.795 295.52625) scale(0.16 -0.16)">
     <defs>
      <path id="Arial-BoldMT-2a" d="M 2597 1684 
L 2597 2456 
L 4591 2456 
L 4591 631 
Q 4300 350 3748 136 
Q 3197 -78 2631 -78 
Q 1913 -78 1378 223 
Q 844 525 575 1086 
Q 306 1647 306 2306 
Q 306 3022 606 3578 
Q 906 4134 1484 4431 
Q 1925 4659 2581 4659 
Q 3434 4659 3914 4301 
Q 4394 3944 4531 3313 
L 3613 3141 
Q 3516 3478 3248 3673 
Q 2981 3869 2581 3869 
Q 1975 3869 1617 3484 
Q 1259 3100 1259 2344 
Q 1259 1528 1621 1120 
Q 1984 713 2572 713 
Q 2863 713 3155 827 
Q 3447 941 3656 1103 
L 3656 1684 
L 2597 1684 
z
" transform="scale(0.015625)"/>
      <path id="Arial-BoldMT-2b" d="M 469 0 
L 469 4581 
L 1394 4581 
L 1394 2778 
L 3206 2778 
L 3206 4581 
L 4131 4581 
L 4131 0 
L 3206 0 
L 3206 2003 
L 1394 2003 
L 1394 0 
L 469 0 
z
" transform="scale(0.015625)"/>
      <path id="Arial-BoldMT-58" d="M 2644 0 
L 2644 497 
Q 2463 231 2167 78 
Q 1872 -75 1544 -75 
Q 1209 -75 943 72 
Q 678 219 559 484 
Q 441 750 441 1219 
L 441 3319 
L 1319 3319 
L 1319 1794 
Q 1319 1094 1367 936 
Q 1416 778 1544 686 
Q 1672 594 1869 594 
Q 2094 594 2272 717 
Q 2450 841 2515 1023 
Q 2581 1206 2581 1919 
L 2581 3319 
L 3459 3319 
L 3459 0 
L 2644 0 
z
" transform="scale(0.015625)"/>
      <path id="Arial-BoldMT-45" d="M 422 0 
L 422 4581 
L 1300 4581 
L 1300 2931 
Q 1706 3394 2263 3394 
Q 2869 3394 3266 2955 
Q 3663 2516 3663 1694 
Q 3663 844 3258 384 
Q 2853 -75 2275 -75 
Q 1991 -75 1714 67 
Q 1438 209 1238 488 
L 1238 0 
L 422 0 
z
M 1294 1731 
Q 1294 1216 1456 969 
Q 1684 619 2063 619 
Q 2353 619 2558 867 
Q 2763 1116 2763 1650 
Q 2763 2219 2556 2470 
Q 2350 2722 2028 2722 
Q 1713 2722 1503 2476 
Q 1294 2231 1294 1731 
z
" transform="scale(0.015625)"/>
      <path id="Arial-BoldMT-101" d="M 625 1791 
L 625 2669 
L 1503 2669 
L 1503 1791 
L 625 1791 
z
" transform="scale(0.015625)"/>
      <path id="Arial-BoldMT-12" d="M -9 -78 
L 1125 4659 
L 1784 4659 
L 638 -78 
L -9 -78 
z
" transform="scale(0.015625)"/>
      <path id="Arial-BoldMT-27" d="M 463 4581 
L 2153 4581 
Q 2725 4581 3025 4494 
Q 3428 4375 3715 4072 
Q 4003 3769 4153 3330 
Q 4303 2891 4303 2247 
Q 4303 1681 4163 1272 
Q 3991 772 3672 463 
Q 3431 228 3022 97 
Q 2716 0 2203 0 
L 463 0 
L 463 4581 
z
M 1388 3806 
L 1388 772 
L 2078 772 
Q 2466 772 2638 816 
Q 2863 872 3011 1006 
Q 3159 1141 3253 1448 
Q 3347 1756 3347 2288 
Q 3347 2819 3253 3103 
Q 3159 3388 2990 3547 
Q 2822 3706 2563 3763 
Q 2369 3806 1803 3806 
L 1388 3806 
z
" transform="scale(0.015625)"/>
     </defs>
     <use xlink:href="#Arial-BoldMT-2a"/>
     <use xlink:href="#Arial-BoldMT-4c" transform="translate(77.78125 0)"/>
     <use xlink:href="#Arial-BoldMT-57" transform="translate(105.5625 0)"/>
     <use xlink:href="#Arial-BoldMT-2b" transform="translate(138.859375 0)"/>
     <use xlink:href="#Arial-BoldMT-58" transform="translate(211.078125 0)"/>
     <use xlink:href="#Arial-BoldMT-45" transform="translate(272.15625 0)"/>
     <use xlink:href="#Arial-BoldMT-3" transform="translate(333.234375 0)"/>
     <use xlink:href="#Arial-BoldMT-24" transform="translate(357.3125 0)"/>
     <use xlink:href="#Arial-BoldMT-46" transform="translate(429.53125 0)"/>
     <use xlink:href="#Arial-BoldMT-57" transform="translate(485.140625 0)"/>
     <use xlink:href="#Arial-BoldMT-4c" transform="translate(518.4375 0)"/>
     <use xlink:href="#Arial-BoldMT-52" transform="translate(546.21875 0)"/>
     <use xlink:href="#Arial-BoldMT-51" transform="translate(607.296875 0)"/>
     <use xlink:href="#Arial-BoldMT-56" transform="translate(668.375 0)"/>
     <use xlink:href="#Arial-BoldMT-3" transform="translate(723.984375 0)"/>
     <use xlink:href="#Arial-BoldMT-101" transform="translate(751.765625 0)"/>
     <use xlink:href="#Arial-BoldMT-3" transform="translate(785.0625 0)"/>
     <use xlink:href="#Arial-BoldMT-26" transform="translate(812.84375 0)"/>
     <use xlink:href="#Arial-BoldMT-2c" transform="translate(885.0625 0)"/>
     <use xlink:href="#Arial-BoldMT-12" transform="translate(912.84375 0)"/>
     <use xlink:href="#Arial-BoldMT-26" transform="translate(940.625 0)"/>
     <use xlink:href="#Arial-BoldMT-27" transform="translate(1012.84375 0)"/>
    </g>
   </g>
   <g id="text_14">
    <!-- Fuente: elaboración propia (§3.2) -->
    <g style="fill: #4a5a6a" transform="translate(10.8 292.140469) scale(0.16 -0.16)">
     <defs>
      <path id="ArialMT-86" d="M 447 -219 
L 1013 -138 
Q 1100 -544 1290 -708 
Q 1481 -872 1809 -872 
Q 2128 -872 2308 -709 
Q 2488 -547 2488 -328 
Q 2488 -169 2375 -34 
Q 2181 200 1313 731 
Q 850 1016 667 1177 
Q 484 1338 368 1556 
Q 253 1775 253 2013 
Q 253 2313 440 2556 
Q 628 2800 956 2897 
Q 734 3109 643 3289 
Q 553 3469 553 3672 
Q 553 4072 865 4365 
Q 1178 4659 1694 4659 
Q 2278 4659 2606 4381 
Q 2934 4103 3000 3575 
L 2416 3516 
Q 2350 3897 2186 4047 
Q 2022 4197 1744 4197 
Q 1456 4197 1279 4042 
Q 1103 3888 1103 3700 
Q 1103 3538 1216 3400 
Q 1391 3188 2172 2713 
Q 2663 2413 2834 2272 
Q 3056 2084 3161 1884 
Q 3266 1684 3266 1450 
Q 3266 1097 3038 847 
Q 2906 703 2556 556 
Q 2806 366 2929 147 
Q 3053 -72 3053 -322 
Q 3053 -597 2897 -842 
Q 2741 -1088 2447 -1217 
Q 2153 -1347 1813 -1347 
Q 1216 -1347 866 -1048 
Q 516 -750 447 -219 
z
M 2275 763 
Q 2506 881 2620 1039 
Q 2734 1197 2734 1347 
Q 2734 1525 2572 1722 
Q 2406 1919 1869 2250 
Q 1441 2513 1231 2681 
Q 978 2538 870 2394 
Q 763 2250 763 2075 
Q 763 1878 906 1700 
Q 1050 1522 1553 1225 
Q 1972 978 2275 763 
z
" transform="scale(0.015625)"/>
      <path id="ArialMT-15" d="M 3222 541 
L 3222 0 
L 194 0 
Q 188 203 259 391 
Q 375 700 629 1000 
Q 884 1300 1366 1694 
Q 2113 2306 2375 2664 
Q 2638 3022 2638 3341 
Q 2638 3675 2398 3904 
Q 2159 4134 1775 4134 
Q 1369 4134 1125 3890 
Q 881 3647 878 3216 
L 300 3275 
Q 359 3922 746 4261 
Q 1134 4600 1788 4600 
Q 2447 4600 2831 4234 
Q 3216 3869 3216 3328 
Q 3216 3053 3103 2787 
Q 2991 2522 2730 2228 
Q 2469 1934 1863 1422 
Q 1356 997 1212 845 
Q 1069 694 975 541 
L 3222 541 
z
" transform="scale(0.015625)"/>
     </defs>
     <use xlink:href="#ArialMT-29"/>
     <use xlink:href="#ArialMT-58" transform="translate(61.078125 0)"/>
     <use xlink:href="#ArialMT-48" transform="translate(116.6875 0)"/>
     <use xlink:href="#ArialMT-51" transform="translate(172.296875 0)"/>
     <use xlink:href="#ArialMT-57" transform="translate(227.90625 0)"/>
     <use xlink:href="#ArialMT-48" transform="translate(255.6875 0)"/>
     <use xlink:href="#ArialMT-1d" transform="translate(311.296875 0)"/>
     <use xlink:href="#ArialMT-3" transform="translate(339.078125 0)"/>
     <use xlink:href="#ArialMT-48" transform="translate(366.859375 0)"/>
     <use xlink:href="#ArialMT-4f" transform="translate(422.46875 0)"/>
     <use xlink:href="#ArialMT-44" transform="translate(444.6875 0)"/>
     <use xlink:href="#ArialMT-45" transform="translate(500.296875 0)"/>
     <use xlink:href="#ArialMT-52" transform="translate(555.90625 0)"/>
     <use xlink:href="#ArialMT-55" transform="translate(611.515625 0)"/>
     <use xlink:href="#ArialMT-44" transform="translate(644.8125 0)"/>
     <use xlink:href="#ArialMT-46" transform="translate(700.421875 0)"/>
     <use xlink:href="#ArialMT-4c" transform="translate(750.421875 0)"/>
     <use xlink:href="#ArialMT-79" transform="translate(772.640625 0)"/>
     <use xlink:href="#ArialMT-51" transform="translate(828.25 0)"/>
     <use xlink:href="#ArialMT-3" transform="translate(883.859375 0)"/>
     <use xlink:href="#ArialMT-53" transform="translate(911.640625 0)"/>
     <use xlink:href="#ArialMT-55" transform="translate(967.25 0)"/>
     <use xlink:href="#ArialMT-52" transform="translate(1000.546875 0)"/>
     <use xlink:href="#ArialMT-53" transform="translate(1056.15625 0)"/>
     <use xlink:href="#ArialMT-4c" transform="translate(1111.765625 0)"/>
     <use xlink:href="#ArialMT-44" transform="translate(1133.984375 0)"/>
     <use xlink:href="#ArialMT-3" transform="translate(1189.59375 0)"/>
     <use xlink:href="#ArialMT-b" transform="translate(1217.375 0)"/>
     <use xlink:href="#ArialMT-86" transform="translate(1250.671875 0)"/>
     <use xlink:href="#ArialMT-16" transform="translate(1306.28125 0)"/>
     <use xlink:href="#ArialMT-11" transform="translate(1361.890625 0)"/>
     <use xlink:href="#ArialMT-15" transform="translate(1389.671875 0)"/>
     <use xlink:href="#ArialMT-c" transform="translate(1445.28125 0)"/>
    </g>
   </g>
   <g id="text_15">
    <!-- Monolito modular -->
    <g style="fill: #4a5a6a" transform="translate(593.84125 211.433437) scale(0.16 -0.16)">
     <use xlink:href="#ArialMT-30"/>
     <use xlink:href="#ArialMT-52" transform="translate(83.296875 0)"/>
     <use xlink:href="#ArialMT-51" transform="translate(138.90625 0)"/>
     <use xlink:href="#ArialMT-52" transform="translate(194.515625 0)"/>
     <use xlink:href="#ArialMT-4f" transform="translate(250.125 0)"/>
     <use xlink:href="#ArialMT-4c" transform="translate(272.34375 0)"/>
     <use xlink:href="#ArialMT-57" transform="translate(294.5625 0)"/>
     <use xlink:href="#ArialMT-52" transform="translate(322.34375 0)"/>
     <use xlink:href="#ArialMT-3" transform="translate(377.953125 0)"/>
     <use xlink:href="#ArialMT-50" transform="translate(405.734375 0)"/>
     <use xlink:href="#ArialMT-52" transform="translate(489.03125 0)"/>
     <use xlink:href="#ArialMT-47" transform="translate(544.640625 0)"/>
     <use xlink:href="#ArialMT-58" transform="translate(600.25 0)"/>
     <use xlink:href="#ArialMT-4f" transform="translate(655.859375 0)"/>
     <use xlink:href="#ArialMT-44" transform="translate(678.078125 0)"/>
     <use xlink:href="#ArialMT-55" transform="translate(733.6875 0)"/>
    </g>
    <!-- sin gateway -->
    <g style="fill: #4a5a6a" transform="translate(612.95625 228.8475) scale(0.16 -0.16)">
     <defs>
      <path id="ArialMT-5a" d="M 1034 0 
L 19 3319 
L 600 3319 
L 1128 1403 
L 1325 691 
Q 1338 744 1497 1375 
L 2025 3319 
L 2603 3319 
L 3100 1394 
L 3266 759 
L 3456 1400 
L 4025 3319 
L 4572 3319 
L 3534 0 
L 2950 0 
L 2422 1988 
L 2294 2553 
L 1622 0 
L 1034 0 
z
" transform="scale(0.015625)"/>
     </defs>
     <use xlink:href="#ArialMT-56"/>
     <use xlink:href="#ArialMT-4c" transform="translate(50 0)"/>
     <use xlink:href="#ArialMT-51" transform="translate(72.21875 0)"/>
     <use xlink:href="#ArialMT-3" transform="translate(127.828125 0)"/>
     <use xlink:href="#ArialMT-4a" transform="translate(155.609375 0)"/>
     <use xlink:href="#ArialMT-44" transform="translate(211.21875 0)"/>
     <use xlink:href="#ArialMT-57" transform="translate(266.828125 0)"/>
     <use xlink:href="#ArialMT-48" transform="translate(294.609375 0)"/>
     <use xlink:href="#ArialMT-5a" transform="translate(350.21875 0)"/>
     <use xlink:href="#ArialMT-44" transform="translate(422.4375 0)"/>
     <use xlink:href="#ArialMT-5c" transform="translate(478.046875 0)"/>
    </g>
   </g>
  </g>
 </g>
 <defs>
  <clipPath id="p951fd797a2">
   <rect x="0" y="0" width="792" height="309.6"/>
  </clipPath>
 </defs>
</svg>
