<svg xmlns="http://www.w3.org/2000/svg" xmlns:xlink="http://www.w3.org/1999/xlink" version="1.1" data-diagram-type="DESCRIPTION" style="width:1260px;height:437px;background:#FFFFFF;" width="1260px" height="437px" viewBox="0 0 1260 437" zoomAndPan="magnify" preserveAspectRatio="none" contentStyleType="text/css"><?plantuml 1.2026.8?><defs/><g font-family="sans-serif" lengthAdjust="spacing"><g class="title" data-source-line="8"><text x="395.702" y="23.132" fill="#000" font-size="14" textLength="462.096" font-weight="700" font-family="'Arial'">C4 · Nivel 3 — Componentes de la API REST (arquitectura hexagonal)</text></g><!--cluster apiboundary--><g class="cluster" data-qualified-name="apiboundary" id="ent0003" data-source-line="13"><rect x="14" y="113.099" width="931" height="300" fill="none" style="stroke:#181818;stroke-width:1;" rx="2.5" ry="2.5"/><text x="433.106" y="124.479" fill="#000" font-size="10" textLength="92.788" font-weight="700" font-family="'Arial'">API REST (FastAPI)</text></g><!--entity pwa--><g class="entity" data-qualified-name="pwa" id="ent0001" data-source-line="10"><rect x="156.5" y="41.099" width="76.685" height="31.499" fill="#EAF2FB" style="stroke:#181818;stroke-width:0.5;" rx="2.5" ry="2.5"/><text x="166.5" y="60.479" fill="#000" font-size="10" textLength="56.685" font-family="'Arial'">Cliente PWA</text></g><!--entity db--><g class="entity" data-qualified-name="db" id="ent0002" data-source-line="11"><rect x="961.5" y="359.599" width="127.28" height="31.499" fill="#E6F5EA" style="stroke:#181818;stroke-width:0.5;" rx="2.5" ry="2.5"/><text x="971.5" y="378.979" fill="#000" font-size="10" textLength="107.28" font-family="'Arial'">PostgreSQL 16 / SQLite</text></g><g class="entity" data-qualified-name="GMN35" id="ent0036" data-source-line="63"><path d="M961.5,246.099 L961.5,302.095 L1252.09,302.095 L1252.09,256.099 L1242.09,246.099 L961.5,246.099" style="stroke:#181818;stroke-width:0.5;" fill="#FEFFDD"/><path d="M1242.09,246.099 L1242.09,256.099 L1252.09,256.099 L1242.09,246.099" style="stroke:#181818;stroke-width:1;" fill="#FEFFDD"/><text x="967.5" y="260.479" fill="#000" font-size="10" textLength="239.028" font-family="'Arial'">Arquitectura hexagonal: el dominio y los casos de uso</text><text x="967.5" y="271.978" fill="#000" font-size="10" textLength="210.693" font-family="'Arial'">no dependen de frameworks ni bases de datos.</text><text x="967.5" y="283.477" fill="#000" font-size="10" textLength="269.59" font-family="'Arial'">Fuente: pmv_fastapi/docs/diagramas/C4_componentes.puml</text><text x="967.5" y="294.976" fill="#000" font-size="10" textLength="178.428" font-family="'Arial'">pmv_fastapi/app/ (estructura del código)</text></g><!--entity router--><g class="entity" data-qualified-name="apiboundary.router" id="ent0004" data-source-line="14"><rect x="139.5" y="151.599" width="111.138" height="42.998" fill="#EAF2FB" style="stroke:#181818;stroke-width:0.5;" rx="2.5" ry="2.5"/><text x="149.5" y="170.979" fill="#000" font-size="10" textLength="75.034" font-family="'Arial'">Adaptador HTTP</text><text x="149.5" y="182.478" fill="#000" font-size="10" textLength="91.138" font-family="'Arial'">(FastAPI APIRouter)</text></g><g class="entity" data-qualified-name="apiboundary.GMN5" id="ent0006" data-source-line="16"><path d="M268.5,151.099 L268.5,169.099 L250.734,173.099 L268.5,177.099 L268.5,195.596 A0,0 0 0 0 268.5,195.596 L449.051,195.596 A0,0 0 0 0 449.051,195.596 L449.051,161.099 L439.051,151.099 L268.5,151.099 A0,0 0 0 0 268.5,151.099" style="stroke:#181818;stroke-width:0.5;" fill="#FEFFDD"/><path d="M439.051,151.099 L439.051,161.099 L449.051,161.099 L439.051,151.099" style="stroke:#181818;stroke-width:0.5;" fill="#FEFFDD"/><text x="274.5" y="165.479" fill="#000" font-size="10" textLength="159.551" font-family="'Arial'">Endpoints /api/ninos, /evaluaciones,</text><text x="274.5" y="176.978" fill="#000" font-size="10" textLength="102.832" font-family="'Arial'">/validaciones, /reportes</text><text x="274.5" y="188.477" fill="#000" font-size="10" textLength="142.881" font-family="'Arial'">Errores 422/409/404 en español</text></g><!--entity dto--><g class="entity" data-qualified-name="apiboundary.dto" id="ent0008" data-source-line="21"><rect x="360.5" y="252.599" width="91.133" height="42.998" fill="#EAF2FB" style="stroke:#181818;stroke-width:0.5;" rx="2.5" ry="2.5"/><text x="370.5" y="271.979" fill="#000" font-size="10" textLength="71.133" font-family="'Arial'">Esquemas DTO</text><text x="370.5" y="283.478" fill="#000" font-size="10" textLength="45.015" font-family="'Arial'">(Pydantic)</text></g><g class="entity" data-qualified-name="apiboundary.GMN9" id="ent0010" data-source-line="23"><path d="M469.5,257.599 L469.5,270.099 L451.719,274.099 L469.5,278.099 L469.5,290.597 A0,0 0 0 0 469.5,290.597 L608.356,290.597 A0,0 0 0 0 608.356,290.597 L608.356,267.599 L598.356,257.599 L469.5,257.599 A0,0 0 0 0 469.5,257.599" style="stroke:#181818;stroke-width:0.5;" fill="#FEFFDD"/><path d="M598.356,257.599 L598.356,267.599 L608.356,267.599 L598.356,257.599" style="stroke:#181818;stroke-width:0.5;" fill="#FEFFDD"/><text x="475.5" y="271.979" fill="#000" font-size="10" textLength="117.856" font-family="'Arial'">Contrato de entrada/salida</text><text x="475.5" y="283.478" fill="#000" font-size="10" textLength="57.261" font-family="'Arial'">OpenAPI 3.1</text></g><!--entity svc--><g class="entity" data-qualified-name="apiboundary.svc" id="ent0012" data-source-line="27"><rect x="30" y="252.599" width="105.605" height="42.998" fill="#EAF2FB" style="stroke:#181818;stroke-width:0.5;" rx="2.5" ry="2.5"/><text x="40" y="271.979" fill="#000" font-size="10" textLength="85.605" font-family="'Arial'">ServicioExpediente</text><text x="40" y="283.478" fill="#000" font-size="10" textLength="67.808" font-family="'Arial'">(Casos de uso)</text></g><g class="entity" data-qualified-name="apiboundary.GMN13" id="ent0014" data-source-line="29"><path d="M154,257.599 L154,270.099 L136.174,274.099 L154,278.099 L154,290.597 A0,0 0 0 0 154,290.597 L342.314,290.597 A0,0 0 0 0 342.314,290.597 L342.314,267.599 L332.314,257.599 L154,257.599 A0,0 0 0 0 154,257.599" style="stroke:#181818;stroke-width:0.5;" fill="#FEFFDD"/><path d="M332.314,257.599 L332.314,267.599 L342.314,267.599 L332.314,257.599" style="stroke:#181818;stroke-width:0.5;" fill="#FEFFDD"/><text x="160" y="271.979" fill="#000" font-size="10" textLength="137.832" font-family="'Arial'">Registrar, consultar, actualizar,</text><text x="160" y="283.478" fill="#000" font-size="10" textLength="167.314" font-family="'Arial'">listar seguimiento, reporte del periodo</text></g><!--entity dom--><g class="entity" data-qualified-name="apiboundary.dom" id="ent0016" data-source-line="33"><rect x="54.5" y="359.599" width="56.68" height="31.499" fill="#E6F5EA" style="stroke:#181818;stroke-width:0.5;" rx="2.5" ry="2.5"/><text x="64.5" y="378.979" fill="#000" font-size="10" textLength="36.68" font-family="'Arial'">Dominio</text></g><g class="entity" data-qualified-name="apiboundary.GMN17" id="ent0018" data-source-line="35"><path d="M130,353.099 L130,371.099 L111.566,375.099 L130,379.099 L130,397.596 A0,0 0 0 0 130,397.596 L319.999,397.596 A0,0 0 0 0 319.999,397.596 L319.999,363.099 L309.999,353.099 L130,353.099 A0,0 0 0 0 130,353.099" style="stroke:#181818;stroke-width:0.5;" fill="#FEFFDD"/><path d="M309.999,353.099 L309.999,363.099 L319.999,363.099 L309.999,353.099" style="stroke:#181818;stroke-width:0.5;" fill="#FEFFDD"/><text x="136" y="367.479" fill="#000" font-size="10" textLength="118.394" font-family="'Arial'">Entidades y reglas clínicas</text><text x="136" y="378.978" fill="#000" font-size="10" textLength="168.999" font-family="'Arial'">Validación de datos, ajuste por altitud,</text><text x="136" y="390.477" fill="#000" font-size="10" textLength="160.63" font-family="'Arial'">clasificación de anemia (OMS 2024)</text></g><!--entity port--><g class="entity" data-qualified-name="apiboundary.port" id="ent0020" data-source-line="40"><rect x="442" y="359.599" width="128.389" height="31.499" fill="#F0F0F0" style="stroke:#181818;stroke-width:0.5;" rx="2.5" ry="2.5"/><text x="452" y="378.979" fill="#000" font-size="10" textLength="108.389" font-family="'Arial'">Puerto RepositorioNinos</text></g><g class="entity" data-qualified-name="apiboundary.GMN21" id="ent0022" data-source-line="42"><path d="M588.5,358.599 L588.5,371.099 L570.025,375.099 L588.5,379.099 L588.5,391.597 A0,0 0 0 0 588.5,391.597 L717.894,391.597 A0,0 0 0 0 717.894,391.597 L717.894,368.599 L707.894,358.599 L588.5,358.599 A0,0 0 0 0 588.5,358.599" style="stroke:#181818;stroke-width:0.5;" fill="#FEFFDD"/><path d="M707.894,358.599 L707.894,368.599 L717.894,368.599 L707.894,358.599" style="stroke:#181818;stroke-width:0.5;" fill="#FEFFDD"/><text x="594.5" y="372.979" fill="#000" font-size="10" textLength="79.473" font-family="'Arial'">Interfaz (Protocol)</text><text x="594.5" y="384.478" fill="#000" font-size="10" textLength="108.394" font-family="'Arial'">Contrato de persistencia</text></g><!--entity repo--><g class="entity" data-qualified-name="apiboundary.repo" id="ent0024" data-source-line="46"><rect x="626.5" y="258.599" width="127.28" height="31.499" fill="#EAF2FB" style="stroke:#181818;stroke-width:0.5;" rx="2.5" ry="2.5"/><text x="636.5" y="277.979" fill="#000" font-size="10" textLength="107.28" font-family="'Arial'">Adaptador SQLAlchemy</text></g><g class="entity" data-qualified-name="apiboundary.GMN25" id="ent0026" data-source-line="48"><path d="M771.5,252.099 L771.5,270.099 L753.75,274.099 L771.5,278.099 L771.5,296.596 A0,0 0 0 0 771.5,296.596 L928.667,296.596 A0,0 0 0 0 928.667,296.596 L928.667,262.099 L918.667,252.099 L771.5,252.099 A0,0 0 0 0 771.5,252.099" style="stroke:#181818;stroke-width:0.5;" fill="#FEFFDD"/><path d="M918.667,252.099 L918.667,262.099 L928.667,262.099 L918.667,252.099" style="stroke:#181818;stroke-width:0.5;" fill="#FEFFDD"/><text x="777.5" y="266.479" fill="#000" font-size="10" textLength="75.034" font-family="'Arial'">SQLAlchemy 2.1</text><text x="777.5" y="277.978" fill="#000" font-size="10" textLength="93.94" font-family="'Arial'">Implementa el puerto</text><text x="777.5" y="289.477" fill="#000" font-size="10" textLength="136.167" font-family="'Arial'">Consultas por lotes (ADR-006)</text></g><g class="link" data-entity-1="ent0001" data-entity-2="ent0004" id="lnk28" data-link-type="dependency"><polygon points="195,151.531,199,142.531,195,146.531,191,142.531,195,151.531" fill="#181818" style="stroke:#181818;stroke-width:1;stroke-linejoin:miter;stroke-miterlimit:10;"/><path d="M195,72.1 C195,92.199 195,123.63 195,146.531" style="stroke:#181818;stroke-width:1;" fill="none"/><text x="197" y="101.479" fill="#000" font-size="10" textLength="68.887" font-family="'Arial'">JSON (HTTPS)</text></g><g class="link" data-entity-1="ent0004" data-entity-2="ent0008" id="lnk29" data-link-type="dependency"><polygon points="364.309,252.502,357.959,244.974,359.811,250.319,354.466,252.171,364.309,252.502" fill="#181818" style="stroke:#181818;stroke-width:1;stroke-linejoin:miter;stroke-miterlimit:10;"/><path d="M240.189,194.609 C271.406,208.863 313.834,228.402 351,246.099 C355.322,248.156 355.326,248.142 359.811,250.319" style="stroke:#181818;stroke-width:1;" fill="none"/><text x="314" y="224.479" fill="#000" font-size="10" textLength="64.478" font-family="'Arial'">Valida formato</text></g><g class="link" data-entity-1="ent0004" data-entity-2="ent0012" id="lnk30" data-link-type="dependency"><polygon points="106.562,252.271,115.954,249.308,110.308,248.96,110.656,243.314,106.562,252.271" fill="#181818" style="stroke:#181818;stroke-width:1;stroke-linejoin:miter;stroke-miterlimit:10;"/><path d="M171.794,194.611 C152.7,211.489 129.499,231.997 110.308,248.96" style="stroke:#181818;stroke-width:1;" fill="none"/><text x="152" y="224.479" fill="#000" font-size="10" textLength="91.167" font-family="'Arial'">Invoca casos de uso</text></g><g class="link" data-entity-1="ent0012" data-entity-2="ent0016" id="lnk31" data-link-type="dependency"><polygon points="83,359.398,87,350.398,83,354.398,79,350.398,83,359.398" fill="#181818" style="stroke:#181818;stroke-width:1;stroke-linejoin:miter;stroke-miterlimit:10;"/><path d="M83,295.611 C83,314.641 83,337.496 83,354.398" style="stroke:#181818;stroke-width:1;" fill="none"/><text x="85" y="331.479" fill="#000" font-size="10" textLength="57.251" font-family="'Arial'">Aplica reglas</text></g><g class="link" data-entity-1="ent0012" data-entity-2="ent0020" id="lnk32" data-link-type="dependency"><polygon points="441.711,365.523,433.387,360.259,436.764,364.797,432.226,368.174,441.711,365.523" fill="#181818" style="stroke:#181818;stroke-width:1;stroke-linejoin:miter;stroke-miterlimit:10;"/><path d="M127.267,295.73 C133.158,298.074 139.175,300.272 145,302.099 C246.534,333.929 363.754,354.086 436.764,364.797" style="stroke:#181818;stroke-width:1;" fill="none"/><text x="275" y="331.479" fill="#000" font-size="10" textLength="54.492" font-family="'Arial'">Depende de</text></g><g class="link" data-entity-1="ent0024" data-entity-2="ent0020" id="lnk33" data-link-type="dependency"><polygon points="532.961,359.592,542.782,358.85,537.365,357.223,538.992,351.805,532.961,359.592" fill="#181818" style="stroke:#181818;stroke-width:1;stroke-linejoin:miter;stroke-miterlimit:10;"/><path d="M662.85,289.706 C627.962,308.478 572.161,338.501 537.365,357.223" style="stroke:#181818;stroke-width:1;" fill="none"/><text x="605" y="331.479" fill="#000" font-size="10" textLength="52.246" font-family="'Arial'">Implementa</text></g><g class="link" data-entity-1="ent0024" data-entity-2="ent0002" id="lnk34" data-link-type="dependency"><polygon points="972.263,359.512,964.652,353.261,967.443,358.182,962.523,360.973,972.263,359.512" fill="#181818" style="stroke:#181818;stroke-width:1;stroke-linejoin:miter;stroke-miterlimit:10;"/><path d="M727.296,289.6 C738.685,293.837 751.293,298.336 763,302.099 C844.607,328.324 866.356,330.35 949,353.099 C956.523,355.169 959.644,356.029 967.443,358.182" style="stroke:#181818;stroke-width:1;" fill="none"/><text x="879" y="331.479" fill="#000" font-size="10" textLength="20.01" font-family="'Arial'">SQL</text></g><g class="link" data-entity-1="ent0003" data-entity-2="ent0036" id="lnk37" data-link-type="association"><path d="M945.155,186.955 C945.289,187.027 945.423,187.098 945.558,187.17 C947.715,188.318 949.982,189.525 952.346,190.783 C961.801,195.815 972.804,201.672 984.501,207.897 C1007.894,220.349 1034.066,234.279 1056.194,246.057" style="stroke:#181818;stroke-width:1;stroke-dasharray:7,7;" fill="none"/></g><?plantuml-src bLLBRYCt4DttAIgQnKY0xPOrYe5u4K2H9SJ1n5Oa8za469IRL9inc-mXsPgHWm0vHAwHHJ2BxEERv2HvPCkM18yMiM60PdtuwjMhwjSqRQG9agnJfJAipwckLk-Mx0FNAXUsyBbGN3gksEVZuRl2LhKrCSIVr4sbizSq4bm75anCMrVlYfoyCgHCeHiXFJbPsM1zzaNjkAoODAzj4yXNCh3XpDyhKpE2wPQB-zBPneYnrTRHgsdwsV4GSicD3bDhmXLNaZeZfrXtFk-nK0-IJljP5bJGaiP3-kTlkb8hgUaD_Vlx7pJUbeGuuABHx9BcayKDTTczRrIGHMWSqvtyoAK5IRqiSxXZKo9XPwnLed3sqwX3xAd-mFHgCfeEfj_ikisi3wMJYn_UqkaPvOG3CgS8SOk0i-cNaz5UuYsCAVg1_th96usvZUomMzEl6T5kHDiAaFRjpStiP_CK62kQWstfsXGkdPzH4XcB0Y21kq1skJ7ZccXYH6sL2PxoA0YZZFL7bCiLwuOB1TxyKNBCSQF4qnNbJjRMWT8sYtFMWTxXO90F-r_XRqZIaFGrF_vbDNoa4Gb4jb_GnBzl9FH45pVNA6Us5co2AjegHB07Iu0jlJo60Xp34PsLyIWuzmbfCb_NqaH-tfoS7WQna6wbKDZaOor5wZMWZDdRf9V6snQENnK7uS2MtflBKdcWS4TKMECXqNXaw0kO7d1ENXe-xCZBib5LVD0UqOPFlAYfbavPOGyZlh2LCigsBDdgMLqlMBBLfii1ZCGfNIDDgH5MwCS_ZIguRU2Fc-O-VZAnPW56qMJ-fV581s346kFLY1P_WGHgYU3d03QoKapTw-yNDEWFXht3s6UDTEZN7FLw5R2Nx5KKNJjQe03xe1z_NnGJZUdvItJ8BVc1kZE7bLDOtNkX1L3emR8qXUB3MBRpX6aTwU9ELkjsW83kyFZ0c1xS1j4W2GpOgbhB2YrbYerCjJw1It98HPAsSHjrHnVputx_R8-jtx8iRfZZuw-VnlYSEjyjhg-e6uT-qUjac_le4cS4zhP_jBIk0W5x7b6syBWqArim5JkonaA5BMM1Xk0pgZMQkb78rfgw0lE5n3H5TKWy40dQDMuBtp5YyS44cZfPbZYyjI7WBP2ui-LG_UYpU_WySYXQhKEv6iXtyQV6u9nG9HakyMsG7woxzsGKFZI-NVb9pYTmRp-6__iRI7i1NDSvTIN6l6dnnf4j7Zy9LTfUzjp7_m00?></g></svg>