<svg xmlns="http://www.w3.org/2000/svg" xmlns:xlink="http://www.w3.org/1999/xlink" version="1.1" data-diagram-type="DESCRIPTION" style="width:713px;height:1027px;background:#FFFFFF;" width="713px" height="1027px" viewBox="0 0 713 1027" zoomAndPan="magnify" preserveAspectRatio="none" contentStyleType="text/css"><?plantuml 1.2026.8?><defs/><g font-family="sans-serif" lengthAdjust="spacing"><g class="title" data-source-line="7"><text x="161.444" y="23.132" fill="#000" font-size="14" textLength="383.612" font-weight="700" font-family="'Arial'">Hoja de ruta planificada: Sprints 1 a 8 (01/09 a 21/12/2026)</text></g><!--entity S1--><g class="entity" data-qualified-name="S1" id="ent0001" data-source-line="9"><rect x="90.5" y="49.099" width="98.278" height="57.947" fill="#C8E6C9" style="stroke:#181818;stroke-width:0.5;" rx="2.5" ry="2.5"/><text x="100.5" y="69.417" fill="#000" font-size="11" textLength="37.909" font-family="'Arial'">Sprint 1</text><text x="100.5" y="82.065" fill="#000" font-size="11" textLength="78.278" font-family="'Arial'">(01-14/09/2026)</text><text x="100.5" y="94.714" fill="#000" font-size="11" textLength="14.062" font-family="'Arial'">H0</text></g><!--entity S2--><g class="entity" data-qualified-name="S2" id="ent0002" data-source-line="10"><rect x="90.5" y="143.099" width="98.278" height="57.947" fill="#C8E6C9" style="stroke:#181818;stroke-width:0.5;" rx="2.5" ry="2.5"/><text x="100.5" y="163.417" fill="#000" font-size="11" textLength="37.909" font-family="'Arial'">Sprint 2</text><text x="100.5" y="176.065" fill="#000" font-size="11" textLength="78.278" font-family="'Arial'">(15-28/09/2026)</text><text x="100.5" y="188.714" fill="#000" font-size="11" textLength="14.062" font-family="'Arial'">H1</text></g><!--entity INC1--><g class="entity" data-qualified-name="INC1" id="ent0003" data-source-line="11"><rect x="6" y="237.099" width="158.762" height="57.947" fill="#81C784" style="stroke:#181818;stroke-width:0.5;" rx="2.5" ry="2.5"/><text x="16" y="257.417" fill="#000" font-size="11" textLength="104.511" font-family="'Arial'">INC-1: ENTREGADO</text><text x="16" y="270.065" fill="#000" font-size="11" textLength="138.762" font-family="'Arial'">v1.0-PMV (commit 9ce90c3)</text><text x="16" y="282.714" fill="#000" font-size="11" textLength="75.802" font-family="'Arial'">HU-01 a HU-05</text></g><!--entity S3--><g class="entity" data-qualified-name="S3" id="ent0006" data-source-line="15"><rect x="150.5" y="331.099" width="86.043" height="57.947" fill="#FFF59D" style="stroke:#181818;stroke-width:0.5;" rx="2.5" ry="2.5"/><text x="160.5" y="351.417" fill="#000" font-size="11" textLength="37.909" font-family="'Arial'">Sprint 3</text><text x="160.5" y="364.065" fill="#000" font-size="11" textLength="66.043" font-family="'Arial'">(29/09-12/10)</text><text x="160.5" y="376.714" fill="#000" font-size="11" textLength="14.062" font-family="'Arial'">H2</text></g><!--entity INC2--><g class="entity" data-qualified-name="INC2" id="ent0007" data-source-line="16"><rect x="34" y="425.099" width="176.503" height="57.947" fill="#FFB74D" style="stroke:#181818;stroke-width:0.5;" rx="2.5" ry="2.5"/><text x="44" y="445.417" fill="#000" font-size="11" textLength="129.626" font-family="'Arial'">INC-2: Agenda automática</text><text x="44" y="458.065" fill="#000" font-size="11" textLength="41.572" font-family="'Arial'">y alertas</text><text x="44" y="470.714" fill="#000" font-size="11" textLength="156.503" font-family="'Arial'">(más backlog técnico: CI y E2E)</text></g><!--entity S4--><g class="entity" data-qualified-name="S4" id="ent0010" data-source-line="20"><rect x="229" y="425.099" width="70.751" height="57.947" fill="#F1F1F1" style="stroke:#181818;stroke-width:0.5;" rx="2.5" ry="2.5"/><text x="239" y="445.417" fill="#000" font-size="11" textLength="37.909" font-family="'Arial'">Sprint 4</text><text x="239" y="458.065" fill="#000" font-size="11" textLength="50.751" font-family="'Arial'">(13-26/10)</text><text x="239" y="470.714" fill="#000" font-size="11" textLength="14.062" font-family="'Arial'">H3</text></g><!--entity INC3--><g class="entity" data-qualified-name="INC3" id="ent0011" data-source-line="21"><rect x="145.5" y="525.599" width="117.824" height="45.298" fill="#F1F1F1" style="stroke:#181818;stroke-width:0.5;" rx="2.5" ry="2.5"/><text x="155.5" y="545.917" fill="#000" font-size="11" textLength="97.824" font-family="'Arial'">INC-3: Sin conexión</text><text x="155.5" y="558.565" fill="#000" font-size="11" textLength="78.257" font-family="'Arial'">y sincronización</text></g><!--entity S5--><g class="entity" data-qualified-name="S5" id="ent0012" data-source-line="22"><rect x="281.5" y="519.099" width="86.043" height="57.947" fill="#F1F1F1" style="stroke:#181818;stroke-width:0.5;" rx="2.5" ry="2.5"/><text x="291.5" y="539.417" fill="#000" font-size="11" textLength="37.909" font-family="'Arial'">Sprint 5</text><text x="291.5" y="552.065" fill="#000" font-size="11" textLength="66.043" font-family="'Arial'">(27/10-09/11)</text><text x="291.5" y="564.714" fill="#000" font-size="11" textLength="14.062" font-family="'Arial'">H4</text></g><!--entity INC4--><g class="entity" data-qualified-name="INC4" id="ent0013" data-source-line="23"><rect x="216" y="619.599" width="109.251" height="45.298" fill="#F1F1F1" style="stroke:#181818;stroke-width:0.5;" rx="2.5" ry="2.5"/><text x="226" y="639.917" fill="#000" font-size="11" textLength="89.251" font-family="'Arial'">INC-4: Mensajería</text><text x="226" y="652.565" fill="#000" font-size="11" textLength="49.516" font-family="'Arial'">y barreras</text></g><!--entity S6--><g class="entity" data-qualified-name="S6" id="ent0018" data-source-line="29"><rect x="343" y="613.099" width="70.751" height="57.947" fill="#F1F1F1" style="stroke:#181818;stroke-width:0.5;" rx="2.5" ry="2.5"/><text x="353" y="633.417" fill="#000" font-size="11" textLength="37.909" font-family="'Arial'">Sprint 6</text><text x="353" y="646.065" fill="#000" font-size="11" textLength="50.751" font-family="'Arial'">(10-23/11)</text><text x="353" y="658.714" fill="#000" font-size="11" textLength="14.062" font-family="'Arial'">H5</text></g><!--entity INC5a--><g class="entity" data-qualified-name="INC5a" id="ent0019" data-source-line="30"><rect x="220.5" y="713.599" width="170.396" height="45.298" fill="#F1F1F1" style="stroke:#181818;stroke-width:0.5;" rx="2.5" ry="2.5"/><text x="230.5" y="733.917" fill="#000" font-size="11" textLength="150.396" font-family="'Arial'">INC-5: Datos, experimentación</text><text x="230.5" y="746.565" fill="#000" font-size="11" textLength="135.749" font-family="'Arial'">y entrenamiento del modelo</text></g><!--entity S7--><g class="entity" data-qualified-name="S7" id="ent0020" data-source-line="31"><rect x="408.5" y="707.099" width="86.043" height="57.947" fill="#F1F1F1" style="stroke:#181818;stroke-width:0.5;" rx="2.5" ry="2.5"/><text x="418.5" y="727.417" fill="#000" font-size="11" textLength="37.909" font-family="'Arial'">Sprint 7</text><text x="418.5" y="740.065" fill="#000" font-size="11" textLength="66.043" font-family="'Arial'">(24/11-07/12)</text><text x="418.5" y="752.714" fill="#000" font-size="11" textLength="14.062" font-family="'Arial'">H6</text></g><!--entity INC5b--><g class="entity" data-qualified-name="INC5b" id="ent0021" data-source-line="32"><rect x="283.5" y="807.599" width="188.153" height="45.298" fill="#F1F1F1" style="stroke:#181818;stroke-width:0.5;" rx="2.5" ry="2.5"/><text x="293.5" y="827.917" fill="#000" font-size="11" textLength="168.153" font-family="'Arial'">INC-5: integración modelo-agenda</text><text x="293.5" y="840.565" fill="#000" font-size="11" textLength="123.503" font-family="'Arial'">e INC-6: inicio del tablero</text></g><!--entity S8--><g class="entity" data-qualified-name="S8" id="ent0026" data-source-line="38"><rect x="490" y="801.099" width="70.751" height="57.947" fill="#F1F1F1" style="stroke:#181818;stroke-width:0.5;" rx="2.5" ry="2.5"/><text x="500" y="821.417" fill="#000" font-size="11" textLength="37.909" font-family="'Arial'">Sprint 8</text><text x="500" y="834.065" fill="#000" font-size="11" textLength="50.751" font-family="'Arial'">(08-21/12)</text><text x="500" y="846.714" fill="#000" font-size="11" textLength="14.062" font-family="'Arial'">H7</text></g><!--entity INC6--><g class="entity" data-qualified-name="INC6" id="ent0027" data-source-line="39"><rect x="456.5" y="895.099" width="137.976" height="45.298" fill="#F1F1F1" style="stroke:#181818;stroke-width:0.5;" rx="2.5" ry="2.5"/><text x="466.5" y="915.417" fill="#000" font-size="11" textLength="117.976" font-family="'Arial'">INC-6: Tablero territorial</text><text x="466.5" y="928.065" fill="#000" font-size="11" textLength="44.634" font-family="'Arial'">completo</text></g><g class="entity" data-qualified-name="GMN30" id="ent0031" data-source-line="44"><path d="M353.5,976.099 L353.5,1011.396 A0,0 0 0 0 353.5,1011.396 L697.947,1011.396 A0,0 0 0 0 697.947,1011.396 L697.947,986.099 L687.947,976.099 L529.5,976.099 L525.5,940.401 L521.5,976.099 L353.5,976.099 A0,0 0 0 0 353.5,976.099" style="stroke:#181818;stroke-width:0.5;" fill="#FEFFDD"/><path d="M687.947,976.099 L687.947,986.099 L697.947,986.099 L687.947,976.099" style="stroke:#181818;stroke-width:0.5;" fill="#FEFFDD"/><text x="359.5" y="991.417" fill="#000" font-size="11" textLength="323.447" font-family="'Arial'">Fuente: Informe integrador, Tablas 15 y 16 (S3-4, Tablas 17 y 23).</text><text x="359.5" y="1004.065" fill="#000" font-size="11" textLength="246.426" font-family="'Arial'">Calendario planificado; solo INC-1 está entregado.</text></g><g class="link" data-entity-1="ent0001" data-entity-2="ent0002" id="lnk4" data-link-type="dependency"><polygon points="139.5,142.851,143.5,133.851,139.5,137.851,135.5,133.851,139.5,142.851" fill="#181818" style="stroke:#181818;stroke-width:1;stroke-linejoin:miter;stroke-miterlimit:10;"/><path d="M139.5,107.202 C139.5,118.51 139.5,126.528 139.5,137.851" style="stroke:#181818;stroke-width:1;" fill="none"/></g><g class="link" data-entity-1="ent0002" data-entity-2="ent0003" id="lnk5" data-link-type="dependency"><polygon points="102.08,236.851,110.086,231.114,104.611,232.539,103.186,227.064,102.08,236.851" fill="#181818" style="stroke:#181818;stroke-width:1;stroke-linejoin:miter;stroke-miterlimit:10;"/><path d="M123.005,201.202 C116.367,212.51 111.257,221.216 104.611,232.539" style="stroke:#181818;stroke-width:1;" fill="none"/></g><g class="link" data-entity-1="ent0002" data-entity-2="ent0006" id="lnk8" data-link-type="dependency"><polygon points="191.491,330.853,194.618,321.514,191.016,325.876,186.654,322.274,191.491,330.853" fill="#181818" style="stroke:#181818;stroke-width:1;stroke-linejoin:miter;stroke-miterlimit:10;"/><path d="M156.978,201.196 C163.044,212.061 169.357,224.82 173.5,237.099 C183.999,268.214 188.617,300.737 191.016,325.876" style="stroke:#181818;stroke-width:1;stroke-dasharray:7,7;" fill="none"/></g><g class="link" data-entity-1="ent0006" data-entity-2="ent0007" id="lnk9" data-link-type="dependency"><polygon points="144.3,424.851,152.965,420.17,147.355,420.892,146.632,415.282,144.3,424.851" fill="#181818" style="stroke:#181818;stroke-width:1;stroke-linejoin:miter;stroke-miterlimit:10;"/><path d="M171.812,389.202 C163.085,400.51 156.093,409.57 147.355,420.892" style="stroke:#181818;stroke-width:1;" fill="none"/></g><g class="link" data-entity-1="ent0006" data-entity-2="ent0010" id="lnk14" data-link-type="dependency"><polygon points="242.7,424.851,240.368,415.282,239.645,420.892,234.035,420.17,242.7,424.851" fill="#181818" style="stroke:#181818;stroke-width:1;stroke-linejoin:miter;stroke-miterlimit:10;"/><path d="M215.188,389.202 C223.915,400.51 230.907,409.57 239.645,420.892" style="stroke:#181818;stroke-width:1;" fill="none"/></g><g class="link" data-entity-1="ent0010" data-entity-2="ent0011" id="lnk15" data-link-type="dependency"><polygon points="218.527,525.59,226.794,520.237,221.258,521.402,220.093,515.867,218.527,525.59" fill="#181818" style="stroke:#181818;stroke-width:1;stroke-linejoin:miter;stroke-miterlimit:10;"/><path d="M246.172,483.202 C237.281,496.835 229.5,508.765 221.258,521.402" style="stroke:#181818;stroke-width:1;" fill="none"/></g><g class="link" data-entity-1="ent0010" data-entity-2="ent0012" id="lnk16" data-link-type="dependency"><polygon points="306.077,518.851,304.512,509.127,303.346,514.663,297.811,513.497,306.077,518.851" fill="#181818" style="stroke:#181818;stroke-width:1;stroke-linejoin:miter;stroke-miterlimit:10;"/><path d="M282.828,483.202 C290.203,494.51 295.962,503.34 303.346,514.663" style="stroke:#181818;stroke-width:1;" fill="none"/></g><g class="link" data-entity-1="ent0012" data-entity-2="ent0013" id="lnk17" data-link-type="dependency"><polygon points="283.124,619.59,291.13,613.853,285.655,615.278,284.231,609.804,283.124,619.59" fill="#181818" style="stroke:#181818;stroke-width:1;stroke-linejoin:miter;stroke-miterlimit:10;"/><path d="M308.005,577.202 C300.003,590.835 293.073,602.641 285.655,615.278" style="stroke:#181818;stroke-width:1;" fill="none"/></g><g class="link" data-entity-1="ent0012" data-entity-2="ent0018" id="lnk22" data-link-type="dependency"><polygon points="361.92,612.851,360.814,603.064,359.389,608.539,353.914,607.114,361.92,612.851" fill="#181818" style="stroke:#181818;stroke-width:1;stroke-linejoin:miter;stroke-miterlimit:10;"/><path d="M340.995,577.202 C347.633,588.51 352.743,597.216 359.389,608.539" style="stroke:#181818;stroke-width:1;" fill="none"/></g><g class="link" data-entity-1="ent0018" data-entity-2="ent0019" id="lnk23" data-link-type="dependency"><polygon points="322.566,713.59,331.294,709.027,325.674,709.674,325.027,704.054,322.566,713.59" fill="#181818" style="stroke:#181818;stroke-width:1;stroke-linejoin:miter;stroke-miterlimit:10;"/><path d="M356.201,671.202 C345.383,684.835 335.701,697.037 325.674,709.674" style="stroke:#181818;stroke-width:1;" fill="none"/></g><g class="link" data-entity-1="ent0018" data-entity-2="ent0020" id="lnk24" data-link-type="dependency"><polygon points="429.086,706.851,426.625,697.314,425.978,702.934,420.358,702.287,429.086,706.851" fill="#181818" style="stroke:#181818;stroke-width:1;stroke-linejoin:miter;stroke-miterlimit:10;"/><path d="M400.799,671.202 C409.772,682.51 416.994,691.611 425.978,702.934" style="stroke:#181818;stroke-width:1;" fill="none"/></g><g class="link" data-entity-1="ent0020" data-entity-2="ent0021" id="lnk25" data-link-type="dependency"><polygon points="394.8,807.59,403.558,803.085,397.934,803.694,397.324,798.07,394.8,807.59" fill="#181818" style="stroke:#181818;stroke-width:1;stroke-linejoin:miter;stroke-miterlimit:10;"/><path d="M428.895,765.202 C417.929,778.835 408.098,791.057 397.934,803.694" style="stroke:#181818;stroke-width:1;" fill="none"/></g><g class="link" data-entity-1="ent0020" data-entity-2="ent0026" id="lnk28" data-link-type="dependency"><polygon points="502.779,800.851,500.255,791.331,499.645,796.955,494.021,796.345,502.779,800.851" fill="#181818" style="stroke:#181818;stroke-width:1;stroke-linejoin:miter;stroke-miterlimit:10;"/><path d="M474.105,765.202 C483.2,776.51 490.538,785.632 499.645,796.955" style="stroke:#181818;stroke-width:1;" fill="none"/></g><g class="link" data-entity-1="ent0026" data-entity-2="ent0027" id="lnk29" data-link-type="dependency"><polygon points="525.5,895.015,529.5,886.015,525.5,890.015,521.5,886.015,525.5,895.015" fill="#181818" style="stroke:#181818;stroke-width:1;stroke-linejoin:miter;stroke-miterlimit:10;"/><path d="M525.5,859.569 C525.5,871.13 525.5,879.266 525.5,890.015" style="stroke:#181818;stroke-width:1;" fill="none"/></g><?plantuml-src RPI_Rjim4CPtFSNL6Ue0eIDIVwq21LBRQJmaBQeqanTQPWmc4cbGT17dRJ9swDH7y8lrA5b9QiY39L5tz_tk8qyVuKe_S5W9C5lRNAKgZAY4ihg6uTqy9pwDJxqF6yFN5OUIx_JMGbq9onNtwaUfDjpm2fQyU5mRlLMhYIwrWPFBvlSkOYNk-RQqbrhP6ru965mOoSj1VqGkdmLGwdbMsbBy3xafkPBtik0hda6-CLBP6YXmI67eqtD_ZBUCdbDspdo6x9uH1TAkiSwW3GUwK1XAQ8ZHRTH2NVa3u3Na54ucwIoUZ7lo6ERHYB3qVHvjyrXVtlncGcW6ivlR7xEl5zDl2_MBZdpo_VeEXeMkAcbXN8YnNmIkqayq6-7TDMgAOZhYf7IIfA67P8HyHY4FjToTUzlNNO2KR8o813sWlglCMiQWsPTeF3rcP1bSh8LQSU1RgwlzYqL_5se7l1J6yXehucBTR7Efrs3tlmib2vt1P0uxcB7PQGVCdCQN99msc2D777YeV21cVSIXypKWB3xW1YrkU8mPu8PB1OLMuadk_of7MBiJgvLyveLRwZ227fd86PEW1i7jezGfXQrITAmKPd0jLCqVXDd_QPnOScE4uNKd47PD8MOUTkq5tJsMpADkDUnhEdPD-uG51vHso_Fu62NAOCfn7Cz0F6s4aMuusruT5ZuOeNWbtSZYZ9HGQVpN7MR4UwGJPqI8kiH7EvXJZrlrf4STCyJQj9A7weGtfsMXXDCWiGkIXMm1B5_YgNaZM7PEO6zvt7c2O8S75CsJr-LbdrUf6zYKD6FjQ9EMDZscHP3RLXsiC4PQxJuo2uMpjYc5VMMAEqKiaQUTTknvIbi1Isrn23o0ooswAZAOgtjjAj4viTBchD71OZJ2yqzZ6EO12TzM4rnbmUa8YqnmXj0hW-wyVRhq9wZnGzcuHq7KTl_IRkKQtuqyJ027ulq3?></g></svg>